<svg width="1138" height="16" viewBox="0 0 1138 16" fill="none" xmlns="http://www.w3.org/2000/svg">
<path d="M0.292893 7.29289C-0.0976311 7.68342 -0.0976311 8.31658 0.292893 8.70711L6.65685 15.0711C7.04738 15.4616 7.68054 15.4616 8.07107 15.0711C8.46159 14.6805 8.46159 14.0474 8.07107 13.6569L2.41421 8L8.07107 2.34315C8.46159 1.95262 8.46159 1.31946 8.07107 0.928933C7.68054 0.538408 7.04738 0.538408 6.65685 0.928933L0.292893 7.29289ZM1137.71 8.70721C1138.1 8.31668 1138.1 7.68352 1137.71 7.29299L1131.34 0.929031C1130.95 0.538507 1130.32 0.538507 1129.93 0.929031C1129.54 1.31956 1129.54 1.95272 1129.93 2.34324L1135.59 8.0001L1129.93 13.657C1129.54 14.0475 1129.54 14.6806 1129.93 15.0712C1130.32 15.4617 1130.95 15.4617 1131.34 15.0712L1137.71 8.70721ZM1 9L3 9L3 7L1 7L1 9ZM7 9L11 9L11 7L7 7L7 9ZM15 9L19 9L19 7L15 7L15 9ZM23 9L27 9L27 7L23 7L23 9ZM31 9L35 9L35 7L31 7L31 9ZM39 9L43 9L43 7L39 7L39 9ZM47 9L51 9L51 7L47 7L47 9ZM55 9L59 9.00001L59 7.00001L55 7L55 9ZM63 9.00001L67 9.00001L67 7.00001L63 7.00001L63 9.00001ZM71 9.00001L75 9.00001L75 7.00001L71 7.00001L71 9.00001ZM79 9.00001L83 9.00001L83 7.00001L79 7.00001L79 9.00001ZM87 9.00001L91 9.00001L91 7.00001L87 7.00001L87 9.00001ZM95 9.00001L99 9.00001L99 7.00001L95 7.00001L95 9.00001ZM103 9.00001L107 9.00001L107 7.00001L103 7.00001L103 9.00001ZM111 9.00001L115 9.00001L115 7.00001L111 7.00001L111 9.00001ZM119 9.00001L123 9.00001L123 7.00001L119 7.00001L119 9.00001ZM127 9.00001L131 9.00001L131 7.00001L127 7.00001L127 9.00001ZM135 9.00001L139 9.00001L139 7.00001L135 7.00001L135 9.00001ZM143 9.00001L147 9.00001L147 7.00001L143 7.00001L143 9.00001ZM151 9.00001L155 9.00001L155 7.00001L151 7.00001L151 9.00001ZM159 9.00001L163 9.00001L163 7.00001L159 7.00001L159 9.00001ZM167 9.00001L171 9.00001L171 7.00001L167 7.00001L167 9.00001ZM175 9.00002L179 9.00002L179 7.00002L175 7.00002L175 9.00002ZM183 9.00002L187 9.00002L187 7.00002L183 7.00002L183 9.00002ZM191 9.00002L195 9.00002L195 7.00002L191 7.00002L191 9.00002ZM199 9.00002L203 9.00002L203 7.00002L199 7.00002L199 9.00002ZM207 9.00002L211 9.00002L211 7.00002L207 7.00002L207 9.00002ZM215 9.00002L219 9.00002L219 7.00002L215 7.00002L215 9.00002ZM223 9.00002L227 9.00002L227 7.00002L223 7.00002L223 9.00002ZM231 9.00002L235 9.00002L235 7.00002L231 7.00002L231 9.00002ZM239 9.00002L243 9.00002L243 7.00002L239 7.00002L239 9.00002ZM247 9.00002L251 9.00002L251 7.00002L247 7.00002L247 9.00002ZM255 9.00002L259 9.00002L259 7.00002L255 7.00002L255 9.00002ZM263 9.00002L267 9.00002L267 7.00002L263 7.00002L263 9.00002ZM271 9.00002L275 9.00002L275 7.00002L271 7.00002L271 9.00002ZM279 9.00002L283 9.00002L283 7.00002L279 7.00002L279 9.00002ZM287 9.00003L291 9.00003L291 7.00003L287 7.00003L287 9.00003ZM295 9.00003L299 9.00003L299 7.00003L295 7.00003L295 9.00003ZM303 9.00003L307 9.00003L307 7.00003L303 7.00003L303 9.00003ZM311 9.00003L315 9.00003L315 7.00003L311 7.00003L311 9.00003ZM319 9.00003L323 9.00003L323 7.00003L319 7.00003L319 9.00003ZM327 9.00003L331 9.00003L331 7.00003L327 7.00003L327 9.00003ZM335 9.00003L339 9.00003L339 7.00003L335 7.00003L335 9.00003ZM343 9.00003L347 9.00003L347 7.00003L343 7.00003L343 9.00003ZM351 9.00003L355 9.00003L355 7.00003L351 7.00003L351 9.00003ZM359 9.00003L363 9.00003L363 7.00003L359 7.00003L359 9.00003ZM367 9.00003L371 9.00003L371 7.00003L367 7.00003L367 9.00003ZM375 9.00003L379 9.00003L379 7.00003L375 7.00003L375 9.00003ZM383 9.00003L387 9.00003L387 7.00003L383 7.00003L383 9.00003ZM391 9.00003L395 9.00003L395 7.00003L391 7.00003L391 9.00003ZM399 9.00003L403 9.00004L403 7.00004L399 7.00003L399 9.00003ZM407 9.00004L411 9.00004L411 7.00004L407 7.00004L407 9.00004ZM415 9.00004L419 9.00004L419 7.00004L415 7.00004L415 9.00004ZM423 9.00004L427 9.00004L427 7.00004L423 7.00004L423 9.00004ZM431 9.00004L435 9.00004L435 7.00004L431 7.00004L431 9.00004ZM439 9.00004L443 9.00004L443 7.00004L439 7.00004L439 9.00004ZM447 9.00004L451 9.00004L451 7.00004L447 7.00004L447 9.00004ZM455 9.00004L459 9.00004L459 7.00004L455 7.00004L455 9.00004ZM463 9.00004L467 9.00004L467 7.00004L463 7.00004L463 9.00004ZM471 9.00004L475 9.00004L475 7.00004L471 7.00004L471 9.00004ZM479 9.00004L483 9.00004L483 7.00004L479 7.00004L479 9.00004ZM487 9.00004L491 9.00004L491 7.00004L487 7.00004L487 9.00004ZM495 9.00004L499 9.00004L499 7.00004L495 7.00004L495 9.00004ZM503 9.00004L507 9.00004L507 7.00004L503 7.00004L503 9.00004ZM511 9.00004L515 9.00004L515 7.00004L511 7.00004L511 9.00004ZM519 9.00005L523 9.00005L523 7.00005L519 7.00005L519 9.00005ZM527 9.00005L531 9.00005L531 7.00005L527 7.00005L527 9.00005ZM535 9.00005L539 9.00005L539 7.00005L535 7.00005L535 9.00005ZM543 9.00005L547 9.00005L547 7.00005L543 7.00005L543 9.00005ZM551 9.00005L555 9.00005L555 7.00005L551 7.00005L551 9.00005ZM559 9.00005L563 9.00005L563 7.00005L559 7.00005L559 9.00005ZM567 9.00005L571 9.00005L571 7.00005L567 7.00005L567 9.00005ZM575 9.00005L579 9.00005L579 7.00005L575 7.00005L575 9.00005ZM583 9.00005L587 9.00005L587 7.00005L583 7.00005L583 9.00005ZM591 9.00005L595 9.00005L595 7.00005L591 7.00005L591 9.00005ZM599 9.00005L603 9.00005L603 7.00005L599 7.00005L599 9.00005ZM607 9.00005L611 9.00005L611 7.00005L607 7.00005L607 9.00005ZM615 9.00005L619 9.00005L619 7.00005L615 7.00005L615 9.00005ZM623 9.00005L627 9.00005L627 7.00005L623 7.00005L623 9.00005ZM631 9.00006L635 9.00006L635 7.00006L631 7.00006L631 9.00006ZM639 9.00006L643 9.00006L643 7.00006L639 7.00006L639 9.00006ZM647 9.00006L651 9.00006L651 7.00006L647 7.00006L647 9.00006ZM655 9.00006L659 9.00006L659 7.00006L655 7.00006L655 9.00006ZM663 9.00006L667 9.00006L667 7.00006L663 7.00006L663 9.00006ZM671 9.00006L675 9.00006L675 7.00006L671 7.00006L671 9.00006ZM679 9.00006L683 9.00006L683 7.00006L679 7.00006L679 9.00006ZM687 9.00006L691 9.00006L691 7.00006L687 7.00006L687 9.00006ZM695 9.00006L699 9.00006L699 7.00006L695 7.00006L695 9.00006ZM703 9.00006L707 9.00006L707 7.00006L703 7.00006L703 9.00006ZM711 9.00006L715 9.00006L715 7.00006L711 7.00006L711 9.00006ZM719 9.00006L723 9.00006L723 7.00006L719 7.00006L719 9.00006ZM727 9.00006L731 9.00006L731 7.00006L727 7.00006L727 9.00006ZM735 9.00006L739 9.00006L739 7.00006L735 7.00006L735 9.00006ZM743 9.00006L747 9.00007L747 7.00007L743 7.00006L743 9.00006ZM751 9.00007L755 9.00007L755 7.00007L751 7.00007L751 9.00007ZM759 9.00007L763 9.00007L763 7.00007L759 7.00007L759 9.00007ZM767 9.00007L771 9.00007L771 7.00007L767 7.00007L767 9.00007ZM775 9.00007L779 9.00007L779 7.00007L775 7.00007L775 9.00007ZM783 9.00007L787 9.00007L787 7.00007L783 7.00007L783 9.00007ZM791 9.00007L795 9.00007L795 7.00007L791 7.00007L791 9.00007ZM799 9.00007L803 9.00007L803 7.00007L799 7.00007L799 9.00007ZM807 9.00007L811 9.00007L811 7.00007L807 7.00007L807 9.00007ZM815 9.00007L819 9.00007L819 7.00007L815 7.00007L815 9.00007ZM823 9.00007L827 9.00007L827 7.00007L823 7.00007L823 9.00007ZM831 9.00007L835 9.00007L835 7.00007L831 7.00007L831 9.00007ZM839 9.00007L843 9.00007L843 7.00007L839 7.00007L839 9.00007ZM847 9.00007L851 9.00007L851 7.00007L847 7.00007L847 9.00007ZM855 9.00007L859 9.00008L859 7.00008L855 7.00007L855 9.00007ZM863 9.00008L867 9.00008L867 7.00008L863 7.00008L863 9.00008ZM871 9.00008L875 9.00008L875 7.00008L871 7.00008L871 9.00008ZM879 9.00008L883 9.00008L883 7.00008L879 7.00008L879 9.00008ZM887 9.00008L891 9.00008L891 7.00008L887 7.00008L887 9.00008ZM895 9.00008L899 9.00008L899 7.00008L895 7.00008L895 9.00008ZM903 9.00008L907 9.00008L907 7.00008L903 7.00008L903 9.00008ZM911 9.00008L915 9.00008L915 7.00008L911 7.00008L911 9.00008ZM919 9.00008L923 9.00008L923 7.00008L919 7.00008L919 9.00008ZM927 9.00008L931 9.00008L931 7.00008L927 7.00008L927 9.00008ZM935 9.00008L939 9.00008L939 7.00008L935 7.00008L935 9.00008ZM943 9.00008L947 9.00008L947 7.00008L943 7.00008L943 9.00008ZM951 9.00008L955 9.00008L955 7.00008L951 7.00008L951 9.00008ZM959 9.00008L963 9.00008L963 7.00008L959 7.00008L959 9.00008ZM967 9.00008L971 9.00008L971 7.00008L967 7.00008L967 9.00008ZM975 9.00009L979 9.00009L979 7.00009L975 7.00009L975 9.00009ZM983 9.00009L987 9.00009L987 7.00009L983 7.00009L983 9.00009ZM991 9.00009L995 9.00009L995 7.00009L991 7.00009L991 9.00009ZM999 9.00009L1003 9.00009L1003 7.00009L999 7.00009L999 9.00009ZM1007 9.00009L1011 9.00009L1011 7.00009L1007 7.00009L1007 9.00009ZM1015 9.00009L1019 9.00009L1019 7.00009L1015 7.00009L1015 9.00009ZM1023 9.00009L1027 9.00009L1027 7.00009L1023 7.00009L1023 9.00009ZM1031 9.00009L1035 9.00009L1035 7.00009L1031 7.00009L1031 9.00009ZM1039 9.00009L1043 9.00009L1043 7.00009L1039 7.00009L1039 9.00009ZM1047 9.00009L1051 9.00009L1051 7.00009L1047 7.00009L1047 9.00009ZM1055 9.00009L1059 9.00009L1059 7.00009L1055 7.00009L1055 9.00009ZM1063 9.00009L1067 9.00009L1067 7.00009L1063 7.00009L1063 9.00009ZM1071 9.00009L1075 9.00009L1075 7.00009L1071 7.00009L1071 9.00009ZM1079 9.00009L1083 9.00009L1083 7.00009L1079 7.00009L1079 9.00009ZM1087 9.00009L1091 9.0001L1091 7.0001L1087 7.00009L1087 9.00009ZM1095 9.0001L1099 9.0001L1099 7.0001L1095 7.0001L1095 9.0001ZM1103 9.0001L1107 9.0001L1107 7.0001L1103 7.0001L1103 9.0001ZM1111 9.0001L1115 9.0001L1115 7.0001L1111 7.0001L1111 9.0001ZM1119 9.0001L1123 9.0001L1123 7.0001L1119 7.0001L1119 9.0001ZM1127 9.0001L1131 9.0001L1131 7.0001L1127 7.0001L1127 9.0001ZM1135 9.0001L1137 9.0001L1137 7.0001L1135 7.0001L1135 9.0001Z" fill="#E3051A"/>
</svg>
