<svg width="64" height="64" viewBox="0 0 64 64" fill="none" xmlns="http://www.w3.org/2000/svg">
<g id="Layer_2">
<g id="Group">
<path id="Vector" d="M0 0V64H63.9978V0H0ZM30.3063 57.4893H5.82227V33.0053H30.3063V57.4893ZM18.801 30.9936C12.0403 30.9936 6.55896 25.5123 6.55896 18.7516C6.55896 11.9899 12.0403 6.50963 18.801 6.50963C25.5616 6.50963 31.0441 11.9899 31.0441 18.7516C31.043 25.5123 25.5605 30.9936 18.801 30.9936ZM57.4388 57.4893H32.9559V33.0053H57.4399V57.4893H57.4388ZM45.9335 30.9936C39.1729 30.9936 33.6915 25.5123 33.6915 18.7516C33.6915 11.9899 39.1729 6.50963 45.9335 6.50963C52.6942 6.50963 58.1755 11.9899 58.1755 18.7516C58.1766 25.5123 52.6953 30.9936 45.9335 30.9936Z" fill="white"/>
</g>
</g>
</svg>
