<svg width="62" height="63" viewBox="0 0 62 63" fill="none" xmlns="http://www.w3.org/2000/svg">
<g id="Layer_2">
<g id="Group">
<path id="Vector" d="M0 0V62.0021H62V0H0ZM29.3602 55.6946H5.64051V31.975H29.3602V55.6946ZM18.2141 30.0261C11.6644 30.0261 6.35421 24.7159 6.35421 18.1663C6.35421 11.6156 11.6644 6.30642 18.2141 6.30642C24.7637 6.30642 30.075 11.6156 30.075 18.1663C30.0739 24.7159 24.7626 30.0261 18.2141 30.0261ZM55.6458 55.6946H31.9272V31.975H55.6469V55.6946H55.6458ZM44.4996 30.0261C37.95 30.0261 32.6398 24.7159 32.6398 18.1663C32.6398 11.6156 37.95 6.30642 44.4996 6.30642C51.0493 6.30642 56.3595 11.6156 56.3595 18.1663C56.3605 24.7159 51.0503 30.0261 44.4996 30.0261Z" fill="#BE1F24"/>
</g>
</g>
</svg>
