<svg width="61" height="70" viewBox="0 0 61 70" fill="none" xmlns="http://www.w3.org/2000/svg">
<g id="Group 79">
<g id="Group">
<g id="Group_2">
<g id="Group_3">
<g id="Group_4">
<path id="Vector" d="M44.2201 0C40.2692 0 37.0684 3.19626 37.0684 7.13712C37.0684 11.0793 40.2692 14.2742 44.2201 14.2742C48.1698 14.2742 51.3719 11.0793 51.3719 7.13712C51.3719 3.19626 48.1698 0 44.2201 0ZM48.4549 8.88006C48.2237 9.43499 47.9064 9.91814 47.5019 10.327C47.0973 10.7371 46.622 11.0613 46.0748 11.301C45.5277 11.5406 44.9381 11.6611 44.3075 11.6611C43.6691 11.6611 43.077 11.5419 42.5298 11.301C41.9826 11.0613 41.5087 10.7371 41.1079 10.327C40.7059 9.91686 40.3899 9.43499 40.16 8.88006C39.9288 8.32514 39.8145 7.72921 39.8145 7.09226C39.8145 6.46172 39.9301 5.86963 40.16 5.31343C40.3912 4.7585 40.7072 4.27407 41.1079 3.8614C41.5087 3.44873 41.9826 3.12193 42.5298 2.88227C43.077 2.64262 43.6691 2.52343 44.3075 2.52343C44.9394 2.52343 45.529 2.64262 46.0748 2.88227C46.622 3.12193 47.0973 3.44873 47.5019 3.8614C47.9064 4.27407 48.2237 4.7585 48.4549 5.31343C48.6861 5.86835 48.8004 6.46172 48.8004 7.09226C48.8004 7.72921 48.6848 8.32514 48.4549 8.88006Z" fill="white" fill-opacity="0.6"/>
</g>
</g>
</g>
<g id="Group_5">
<g id="Group_6">
<path id="Vector_2" d="M29.6251 22.9312H15.3203V41.3283H29.6251V22.9312Z" fill="white"/>
</g>
</g>
<g id="Group_7">
<g id="Group_8">
<path id="Vector_3" d="M45.5714 22.9312H31.2666V41.3283H45.5714V22.9312Z" fill="white"/>
</g>
</g>
<g id="Group_9">
<g id="Group_10">
<g id="Group_11">
<path id="Vector_4" d="M38.4029 7.13708C34.452 7.13708 31.2512 10.3333 31.2512 14.2742C31.2512 18.2163 34.452 21.4113 38.4029 21.4113C42.3526 21.4113 45.5547 18.2163 45.5547 14.2742C45.5547 10.3333 42.3513 7.13708 38.4029 7.13708ZM42.6364 16.0171C42.4053 16.5721 42.088 17.0552 41.6834 17.4641C41.2788 17.8742 40.8036 18.1984 40.2564 18.4381C39.7092 18.6777 39.1197 18.7982 38.489 18.7982C37.8506 18.7982 37.2585 18.679 36.7113 18.4381C36.1642 18.1984 35.6902 17.8742 35.2895 17.4641C34.8874 17.0539 34.5715 16.5721 34.3415 16.0171C34.1103 15.4622 33.996 14.8663 33.996 14.2293C33.996 13.5988 34.1116 13.0067 34.3415 12.4505C34.5715 11.8956 34.8887 11.4112 35.2895 10.9985C35.6902 10.5858 36.1642 10.259 36.7113 10.0194C37.2585 9.7797 37.8506 9.66052 38.489 9.66052C39.1209 9.66052 39.7105 9.7797 40.2564 10.0194C40.8036 10.259 41.2788 10.5858 41.6834 10.9985C42.088 11.4112 42.4053 11.8956 42.6364 12.4505C42.8676 13.0054 42.982 13.5988 42.982 14.2293C42.9832 14.8663 42.8676 15.4622 42.6364 16.0171Z" fill="white" fill-opacity="0.7"/>
</g>
</g>
</g>
<g id="Group_12">
<g id="Group_13">
<path id="Vector_5" d="M29.0188 0C25.0679 0 21.8671 3.19626 21.8671 7.13712C21.8671 11.0793 25.0679 14.2742 29.0188 14.2742C32.9685 14.2742 36.1706 11.0793 36.1706 7.13712C36.1706 3.19626 32.9685 0 29.0188 0ZM33.2536 8.88006C33.0224 9.43499 32.7052 9.91814 32.3006 10.327C31.896 10.7371 31.4207 11.0613 30.8735 11.301C30.3264 11.5406 29.7368 11.6611 29.1062 11.6611C28.4678 11.6611 27.8757 11.5419 27.3285 11.301C26.7813 11.0613 26.3074 10.7371 25.9066 10.327C25.5046 9.91686 25.1886 9.43499 24.9587 8.88006C24.7275 8.32514 24.6132 7.72921 24.6132 7.09226C24.6132 6.46172 24.7288 5.86963 24.9587 5.31343C25.1899 4.7585 25.5059 4.27407 25.9066 3.8614C26.3074 3.44873 26.7813 3.12193 27.3285 2.88227C27.8757 2.64262 28.4678 2.52343 29.1062 2.52343C29.7381 2.52343 30.3277 2.64262 30.8735 2.88227C31.4207 3.12193 31.896 3.44873 32.3006 3.8614C32.7052 4.27407 33.0224 4.7585 33.2536 5.31343C33.4848 5.86835 33.5991 6.46172 33.5991 7.09226C33.5991 7.72921 33.4835 8.32514 33.2536 8.88006Z" fill="white" fill-opacity="0.8"/>
</g>
</g>
<g id="Group_14">
<g id="Group_15">
<g id="Group_16">
<path id="Vector_6" d="M22.4733 7.13708C18.5224 7.13708 15.3215 10.3333 15.3215 14.2742C15.3215 18.2163 18.5224 21.4113 22.4733 21.4113C26.4229 21.4113 29.625 18.2163 29.625 14.2742C29.625 10.3333 26.4217 7.13708 22.4733 7.13708ZM26.7068 16.0171C26.4756 16.5721 26.1583 17.0552 25.7537 17.4641C25.3491 17.8742 24.8739 18.1984 24.3267 18.4381C23.7796 18.6777 23.19 18.7982 22.5593 18.7982C21.921 18.7982 21.3289 18.679 20.7817 18.4381C20.2345 18.1984 19.7606 17.8742 19.3598 17.4641C18.9578 17.0539 18.6418 16.5721 18.4119 16.0171C18.1807 15.4622 18.0664 14.8663 18.0664 14.2293C18.0664 13.5988 18.182 13.0067 18.4119 12.4505C18.6431 11.8956 18.9591 11.4112 19.3598 10.9985C19.7606 10.5858 20.2345 10.259 20.7817 10.0194C21.3289 9.7797 21.921 9.66052 22.5593 9.66052C23.1913 9.66052 23.7808 9.7797 24.3267 10.0194C24.8739 10.259 25.3491 10.5858 25.7537 10.9985C26.1583 11.4112 26.4756 11.8956 26.7068 12.4505C26.938 13.0054 27.0523 13.5988 27.0523 14.2293C27.0536 14.8663 26.938 15.4622 26.7068 16.0171Z" fill="white" fill-opacity="0.9"/>
</g>
</g>
</g>
<g id="Group_17">
<g id="Group_18">
<path id="Vector_7" d="M13.8175 0C9.86656 0 6.66574 3.19626 6.66574 7.13712C6.66574 11.0793 9.86656 14.2742 13.8175 14.2742C17.7671 14.2742 20.9692 11.0793 20.9692 7.13712C20.9692 3.19626 17.7671 0 13.8175 0ZM18.0523 8.88006C17.8211 9.43499 17.5038 9.91814 17.0992 10.327C16.6946 10.7371 16.2194 11.0613 15.6722 11.301C15.1251 11.5406 14.5355 11.6611 13.9048 11.6611C13.2665 11.6611 12.6743 11.5419 12.1272 11.301C11.58 11.0613 11.106 10.7371 10.7053 10.327C10.3033 9.91686 9.9873 9.43499 9.75738 8.88006C9.52619 8.32514 9.41187 7.72921 9.41187 7.09226C9.41187 6.46172 9.52747 5.86963 9.75738 5.31343C9.98858 4.7585 10.3046 4.27407 10.7053 3.8614C11.106 3.44873 11.58 3.12193 12.1272 2.88227C12.6743 2.64262 13.2665 2.52343 13.9048 2.52343C14.5368 2.52343 15.1263 2.64262 15.6722 2.88227C16.2194 3.12193 16.6946 3.44873 17.0992 3.8614C17.5038 4.27407 17.8211 4.7585 18.0523 5.31343C18.2835 5.86835 18.3978 6.46172 18.3978 7.09226C18.3978 7.72921 18.2822 8.32514 18.0523 8.88006Z" fill="white"/>
</g>
</g>
</g>
<g id="Group_19">
<path id="Vector_8" d="M0 52.8347C0 52.4662 0.0469724 52.1101 0.140917 51.7663C0.234863 51.4225 0.370835 51.101 0.546364 50.8042C0.721893 50.505 0.932034 50.2329 1.17431 49.9881C1.41906 49.7433 1.68854 49.533 1.98768 49.3599C2.28682 49.1868 2.60574 49.0508 2.94691 48.9543C3.28808 48.8579 3.64655 48.8084 4.01739 48.8084C4.38575 48.8084 4.74175 48.8579 5.08292 48.9543C5.42409 49.0508 5.74548 49.1868 6.04215 49.3599C6.34129 49.533 6.61076 49.7433 6.85799 49.9881C7.10274 50.2329 7.31288 50.505 7.48594 50.8042C7.65899 51.1035 7.79497 51.4225 7.89138 51.7663C7.9878 52.1101 8.03725 52.4687 8.03725 52.8396C8.03725 53.2106 7.9878 53.5667 7.89138 53.908C7.79497 54.2493 7.65899 54.5684 7.48594 54.8651C7.31288 55.1644 7.10274 55.434 6.85799 55.6788C6.61324 55.9236 6.34129 56.1314 6.04215 56.3045C5.74301 56.4776 5.42409 56.6112 5.08292 56.7076C4.74175 56.8016 4.38328 56.8486 4.01244 56.8486C3.64161 56.8486 3.28313 56.8016 2.94196 56.7076C2.60079 56.6136 2.2794 56.4776 1.98273 56.302C1.68359 56.1264 1.41412 55.9162 1.16937 55.6738C0.924618 55.429 0.716948 55.1594 0.543892 54.8627C0.370835 54.5659 0.237335 54.2468 0.140917 53.9056C0.0469724 53.5618 0 53.2057 0 52.8347ZM1.52043 52.8223C1.52043 53.176 1.5847 53.5074 1.71326 53.8165C1.84182 54.1257 2.01735 54.3928 2.23985 54.6228C2.46235 54.8503 2.72441 55.0308 3.02849 55.1644C3.33258 55.2979 3.66138 55.3647 4.01491 55.3647C4.36597 55.3647 4.69231 55.2979 4.99639 55.1644C5.30048 55.0308 5.56254 54.8503 5.78751 54.6228C6.01248 54.3952 6.18801 54.1257 6.31657 53.8165C6.44513 53.5074 6.5094 53.176 6.5094 52.8223C6.5094 52.4711 6.44513 52.1422 6.31657 51.8331C6.18801 51.5239 6.01248 51.2543 5.78751 51.0243C5.56254 50.7943 5.29801 50.6138 4.99639 50.4803C4.69231 50.3467 4.36597 50.2799 4.01491 50.2799C3.66138 50.2799 3.33258 50.3467 3.02849 50.4803C2.72441 50.6138 2.46235 50.7943 2.23985 51.0243C2.01735 51.2543 1.84182 51.5239 1.71326 51.8331C1.5847 52.1422 1.52043 52.4736 1.52043 52.8223Z" fill="white"/>
<path id="Vector_9" d="M9.30057 48.383C9.30057 48.2915 9.32529 48.2173 9.37473 48.1579C9.42418 48.0986 9.49835 48.0689 9.59971 48.0689H10.5194C10.5886 48.0689 10.6554 48.0986 10.7172 48.1579C10.779 48.2173 10.8086 48.294 10.8086 48.383V56.4182C10.8086 56.5246 10.779 56.6012 10.7221 56.6557C10.6652 56.7076 10.5861 56.7348 10.4872 56.7348H9.6096C9.49835 56.7348 9.41676 56.7076 9.36979 56.6557C9.32282 56.6037 9.2981 56.5246 9.2981 56.4182V48.383H9.30057Z" fill="white"/>
<path id="Vector_10" d="M12.2895 48.0417C12.2895 47.8315 12.3933 47.7252 12.601 47.7252H13.4836C13.5825 47.7252 13.6616 47.7524 13.7209 47.8043C13.7803 47.8562 13.8099 47.9354 13.8099 48.0417V48.8282C13.8099 48.9098 13.7827 48.9865 13.7259 49.0582C13.669 49.1299 13.5899 49.167 13.4885 49.167H12.6059C12.3958 49.167 12.2895 49.0532 12.2895 48.8282V48.0417ZM12.2895 50.3714C12.2895 50.2799 12.3167 50.2032 12.3686 50.1414C12.4205 50.0796 12.4972 50.0499 12.601 50.0499H13.4737C13.5132 50.0499 13.5528 50.0573 13.5924 50.0746C13.6319 50.0895 13.669 50.1142 13.7011 50.1439C13.7333 50.1736 13.758 50.2082 13.7802 50.2478C13.8025 50.2873 13.8124 50.3294 13.8124 50.3739V56.4207C13.8124 56.6309 13.7011 56.7373 13.4811 56.7373H12.6084C12.3983 56.7373 12.292 56.6309 12.292 56.4207V50.3714H12.2895Z" fill="white"/>
<path id="Vector_11" d="M15.6641 50.1167C15.7531 50.0721 15.8644 50.0499 15.9979 50.0499H16.5294C16.6308 50.0499 16.7074 50.0845 16.7544 50.1513C16.8038 50.2181 16.836 50.2923 16.8533 50.3739L16.9101 50.8809C16.9917 50.7622 17.0832 50.6459 17.1895 50.5346C17.2958 50.4233 17.4194 50.3269 17.5653 50.2403C17.7111 50.1562 17.8817 50.087 18.0745 50.0375C18.2698 49.9856 18.4973 49.9609 18.7569 49.9609C19.0016 49.9609 19.2241 49.9856 19.4244 50.0326C19.6246 50.0796 19.8051 50.1513 19.9658 50.2428C20.1265 50.3368 20.2724 50.4505 20.4034 50.5866C20.532 50.7226 20.6506 50.8784 20.7569 51.054C20.841 50.8883 20.9547 50.7374 21.0981 50.5989C21.2415 50.4604 21.4071 50.3442 21.595 50.2477C21.7829 50.1513 21.9881 50.0771 22.2131 50.0227C22.438 49.9707 22.6704 49.9435 22.9127 49.9435C23.3256 49.9435 23.6915 50.0202 24.003 50.1711C24.3169 50.3219 24.579 50.5297 24.7891 50.7918C24.9993 51.054 25.1575 51.3631 25.2663 51.7118C25.3726 52.063 25.427 52.4389 25.427 52.8371V56.3465C25.427 56.4726 25.3973 56.5691 25.338 56.6334C25.2786 56.6977 25.1921 56.7298 25.0809 56.7298H24.2823C24.1414 56.7298 24.0475 56.7026 24.0005 56.6507C23.9535 56.5988 23.9288 56.5048 23.9288 56.3712V52.8396C23.9288 52.6541 23.9016 52.4736 23.8497 52.298C23.7978 52.1224 23.7162 51.9666 23.6049 51.833C23.4937 51.697 23.3552 51.5907 23.1896 51.5066C23.024 51.425 22.8237 51.3829 22.5913 51.3829C22.3985 51.3829 22.2205 51.4175 22.0548 51.4843C21.8892 51.5536 21.7483 51.65 21.6296 51.7786C21.511 51.9072 21.417 52.0605 21.3478 52.2411C21.2786 52.4216 21.2464 52.622 21.2464 52.8421V56.349C21.2464 56.6012 21.1327 56.7274 20.9053 56.7274H20.0993C19.9584 56.7274 19.8669 56.7002 19.8199 56.6482C19.7754 56.5963 19.7507 56.5023 19.7507 56.3688V52.8421C19.7507 52.6591 19.726 52.481 19.6741 52.3079C19.6222 52.1347 19.5431 51.9789 19.4367 51.8429C19.3304 51.7069 19.192 51.5956 19.0239 51.5115C18.8558 51.4274 18.6555 51.3854 18.4231 51.3854C18.2624 51.3854 18.0993 51.4151 17.9386 51.4769C17.7779 51.5387 17.632 51.6278 17.4985 51.7415C17.3675 51.8578 17.2587 51.9987 17.1746 52.1669C17.0906 52.3351 17.0461 52.5255 17.0436 52.7407V56.4157C17.0436 56.5073 17.014 56.5815 16.9546 56.6383C16.8953 56.6952 16.8186 56.7249 16.7296 56.7249H15.8619C15.7457 56.7249 15.6616 56.6977 15.6072 56.6433C15.5529 56.5889 15.5257 56.5097 15.5257 56.4083V50.3516C15.5281 50.2403 15.5726 50.1587 15.6641 50.1167Z" fill="white"/>
<path id="Vector_12" d="M26.9969 50.082C27.0414 50.0623 27.0883 50.0474 27.1353 50.0425C27.1823 50.0375 27.2292 50.0351 27.2737 50.0351H27.8053C27.9116 50.0351 27.9857 50.0647 28.0278 50.1241C28.0723 50.1834 28.1019 50.2601 28.1192 50.3491L28.2305 50.9922C28.3541 50.8512 28.4827 50.7176 28.6236 50.5915C28.762 50.4654 28.9153 50.3541 29.0834 50.2552C29.2515 50.1562 29.4369 50.0796 29.6421 50.0202C29.8449 49.9633 30.0723 49.9337 30.327 49.9337C30.6459 49.9337 30.95 49.9757 31.2392 50.0573C31.5285 50.1389 31.7979 50.2552 32.0501 50.4035C32.2998 50.5519 32.5272 50.7325 32.7324 50.9402C32.9352 51.148 33.1107 51.3804 33.2566 51.6376C33.4024 51.8949 33.5137 52.1694 33.5928 52.4637C33.6719 52.758 33.7114 53.0646 33.7114 53.3837C33.7114 53.7027 33.6719 54.0094 33.5928 54.3037C33.5137 54.598 33.4024 54.875 33.2566 55.1297C33.1107 55.3869 32.9376 55.6194 32.7324 55.8296C32.5297 56.0398 32.3023 56.2204 32.0501 56.3688C31.8004 56.5172 31.5285 56.6334 31.2367 56.715C30.945 56.7966 30.6434 56.8387 30.327 56.8387C30.0995 56.8387 29.8894 56.8139 29.699 56.7645C29.5086 56.715 29.3306 56.6482 29.1675 56.5617C29.0043 56.4751 28.8535 56.3762 28.7151 56.2624C28.5766 56.1487 28.4456 56.0275 28.322 55.8964V58.4586C28.322 58.5427 28.2948 58.6144 28.2429 58.6737C28.1909 58.7331 28.1118 58.7628 28.0055 58.7628H27.1328C27.0587 58.7628 26.987 58.7356 26.9153 58.6812C26.8436 58.6267 26.8065 58.5525 26.8065 58.4586V50.3392C26.8065 50.2651 26.8238 50.2082 26.8559 50.1661C26.8905 50.129 26.9375 50.0994 26.9969 50.082ZM32.2083 53.3862C32.2083 53.1092 32.1589 52.8445 32.0575 52.5948C31.9586 52.345 31.8202 52.1249 31.6471 51.9369C31.4741 51.7489 31.2664 51.6005 31.0291 51.4893C30.7917 51.378 30.5322 51.3236 30.2553 51.3236C29.9784 51.3236 29.7188 51.378 29.474 51.4868C29.2293 51.5956 29.0167 51.7415 28.8313 51.927C28.6458 52.11 28.5 52.3252 28.3887 52.5725C28.2775 52.8173 28.2206 53.077 28.2181 53.3515V53.3886C28.2181 53.6706 28.2725 53.9352 28.3788 54.1875C28.4851 54.4397 28.631 54.6598 28.8164 54.8503C28.9994 55.0407 29.2169 55.1915 29.4641 55.3028C29.7114 55.4141 29.9759 55.471 30.2553 55.471C30.5322 55.471 30.7893 55.4141 31.0291 55.3028C31.2664 55.1915 31.4741 55.0407 31.6471 54.8503C31.8202 54.6598 31.9586 54.4397 32.0575 54.1875C32.1589 53.9327 32.2083 53.6681 32.2083 53.3862Z" fill="white"/>
<path id="Vector_13" d="M34.9179 48.0417C34.9179 47.8315 35.0217 47.7252 35.2294 47.7252H36.112C36.2109 47.7252 36.29 47.7524 36.3493 47.8043C36.4086 47.8562 36.4383 47.9354 36.4383 48.0417V48.8282C36.4383 48.9098 36.4111 48.9865 36.3542 49.0582C36.2974 49.1299 36.2183 49.167 36.1169 49.167H35.2343C35.0242 49.167 34.9179 49.0532 34.9179 48.8282V48.0417ZM34.9179 50.3714C34.9179 50.2799 34.9451 50.2032 34.997 50.1414C35.0489 50.0796 35.1255 50.0499 35.2294 50.0499H36.1021C36.1416 50.0499 36.1812 50.0573 36.2207 50.0746C36.2603 50.0895 36.2974 50.1142 36.3295 50.1439C36.3617 50.1736 36.3864 50.2082 36.4086 50.2478C36.4309 50.2873 36.4408 50.3294 36.4408 50.3739V56.4207C36.4408 56.6309 36.3295 56.7373 36.1095 56.7373H35.2368C35.0267 56.7373 34.9204 56.6309 34.9204 56.4207V50.3714H34.9179Z" fill="white"/>
<path id="Vector_14" d="M44.8489 56.4232C44.8489 56.4875 44.8365 56.537 44.8093 56.579C44.7821 56.6186 44.75 56.6508 44.7055 56.673C44.6635 56.6953 44.6165 56.7126 44.5621 56.72C44.5077 56.7299 44.4508 56.7324 44.3915 56.7324H43.7339C43.6226 56.7324 43.5435 56.7027 43.499 56.6433C43.4545 56.584 43.4224 56.5073 43.4026 56.4183L43.3705 55.9706C43.2469 56.0943 43.1109 56.2081 42.9626 56.3144C42.8142 56.4208 42.6535 56.5147 42.4805 56.5939C42.3074 56.673 42.1269 56.7349 41.9341 56.7769C41.7413 56.8214 41.5435 56.8437 41.3408 56.8437C41.0243 56.8437 40.7202 56.8016 40.4285 56.72C40.1368 56.6384 39.8624 56.5222 39.6053 56.3738C39.3481 56.2254 39.1158 56.0448 38.9081 55.8346C38.7004 55.6244 38.5199 55.3919 38.3716 55.1347C38.2233 54.88 38.1071 54.603 38.0255 54.3087C37.9439 54.0144 37.9019 53.7077 37.9019 53.3887C37.9019 53.0697 37.9439 52.763 38.0255 52.4687C38.1071 52.1744 38.2233 51.8999 38.3716 51.6427C38.5199 51.3879 38.7004 51.1554 38.9081 50.9452C39.1158 50.7375 39.3481 50.5569 39.6053 50.4086C39.8599 50.2602 40.1368 50.1439 40.4285 50.0623C40.7202 49.9807 41.0243 49.9387 41.3408 49.9387C41.5657 49.9387 41.7784 49.9634 41.9836 50.0104C42.1863 50.0574 42.3766 50.1241 42.5546 50.2107C42.7326 50.2973 42.8958 50.4011 43.0466 50.5223C43.1974 50.6435 43.3334 50.7746 43.457 50.9205L43.5312 50.3566C43.5485 50.2923 43.5658 50.2429 43.5806 50.2008C43.5955 50.1612 43.6152 50.1291 43.6375 50.1044C43.6597 50.0796 43.6894 50.0623 43.724 50.0549C43.7586 50.045 43.8031 50.0425 43.855 50.0425H44.3816C44.4385 50.0425 44.4929 50.0475 44.5497 50.0574C44.6066 50.0673 44.656 50.0846 44.703 50.1068C44.7475 50.1291 44.7846 50.1612 44.8118 50.2008C44.839 50.2404 44.8513 50.2923 44.8513 50.3517V56.4232H44.8489ZM39.3778 53.3862C39.3778 53.6682 39.4273 53.9328 39.5261 54.1826C39.625 54.4324 39.761 54.6525 39.9365 54.8429C40.1121 55.0333 40.3173 55.1817 40.5546 55.293C40.7919 55.4043 41.049 55.4587 41.3309 55.4587C41.6152 55.4587 41.8797 55.4043 42.1269 55.293C42.3742 55.1817 42.5892 55.0333 42.7722 54.8429C42.9551 54.6525 43.0985 54.4324 43.2024 54.1826C43.3087 53.9328 43.3606 53.6657 43.3606 53.3862C43.3606 53.1092 43.3087 52.8446 43.2024 52.5948C43.0961 52.345 42.9527 52.1249 42.7722 51.9345C42.5892 51.7441 42.3742 51.5932 42.1269 51.4819C41.8797 51.3706 41.6152 51.3137 41.3309 51.3137C41.0515 51.3137 40.7919 51.3706 40.5546 51.4819C40.3173 51.5932 40.1121 51.7441 39.9365 51.9345C39.761 52.1249 39.625 52.345 39.5261 52.5948C39.4273 52.8446 39.3778 53.1092 39.3778 53.3862Z" fill="white"/>
<path id="Vector_15" d="M51.388 55.9706C51.2643 56.0943 51.1284 56.208 50.98 56.3168C50.8317 56.4257 50.671 56.5196 50.5004 56.5988C50.3298 56.6779 50.1494 56.7397 49.959 56.7867C49.7686 56.8312 49.5684 56.856 49.3632 56.856C48.8885 56.856 48.4485 56.7645 48.0405 56.5839C47.6326 56.4034 47.2766 56.1561 46.9725 55.8445C46.6685 55.5328 46.4311 55.1668 46.2605 54.7464C46.0875 54.3284 46.0034 53.8783 46.0034 53.401C46.0034 52.9212 46.0899 52.4711 46.2605 52.0507C46.4311 51.6327 46.6709 51.2667 46.9725 50.9526C47.2766 50.641 47.6326 50.3937 48.0405 50.2131C48.4485 50.0326 48.891 49.9411 49.3632 49.9411C49.7909 49.9411 50.1691 50.0177 50.493 50.1711C50.8193 50.3244 51.1086 50.5322 51.3608 50.7943V48.3781C51.3608 48.2865 51.388 48.2124 51.4448 48.153C51.5017 48.0936 51.5808 48.064 51.6871 48.064H52.5499C52.6315 48.064 52.7057 48.0936 52.7773 48.1505C52.8466 48.2074 52.8837 48.2841 52.8837 48.3805V56.4158C52.8837 56.626 52.7724 56.7323 52.5474 56.7323H51.7588C51.6525 56.7323 51.5808 56.7051 51.5437 56.6532C51.5041 56.6012 51.4695 56.5221 51.4374 56.4158L51.388 55.9706ZM47.4793 53.401C47.4793 53.6829 47.5288 53.9476 47.6277 54.1974C47.7266 54.4471 47.8625 54.6673 48.0381 54.8527C48.2136 55.0382 48.4188 55.1866 48.6561 55.2954C48.8935 55.4042 49.1506 55.4587 49.4324 55.4587C49.7093 55.4587 49.9714 55.4042 50.2161 55.2979C50.4609 55.1916 50.676 55.0456 50.8589 54.8602C51.0418 54.6747 51.1852 54.462 51.294 54.2171C51.4003 53.9723 51.4572 53.7126 51.4646 53.4356V53.3985C51.4646 53.1215 51.4127 52.8569 51.3064 52.6047C51.2001 52.3524 51.0567 52.1298 50.8762 51.9394C50.6933 51.7489 50.4782 51.5956 50.2309 51.4818C49.9837 51.3681 49.7192 51.3112 49.4349 51.3112C49.1555 51.3112 48.8959 51.3681 48.6586 51.4818C48.4213 51.5956 48.2161 51.7489 48.0405 51.9394C47.865 52.1298 47.729 52.3524 47.6302 52.6047C47.5288 52.8594 47.4793 53.124 47.4793 53.401Z" fill="white"/>
<path id="Vector_16" d="M60.9975 56.4232C60.9975 56.4875 60.9852 56.537 60.958 56.579C60.9308 56.6186 60.8986 56.6508 60.8566 56.673C60.8146 56.6953 60.7651 56.7126 60.7107 56.72C60.6564 56.7299 60.5995 56.7324 60.5402 56.7324H59.8825C59.7713 56.7324 59.6922 56.7027 59.6477 56.6433C59.6032 56.584 59.571 56.5073 59.5513 56.4183L59.5191 55.9706C59.3955 56.0943 59.2595 56.2081 59.1112 56.3144C58.9629 56.4208 58.8022 56.5147 58.6291 56.5939C58.4585 56.673 58.2756 56.7349 58.0828 56.7769C57.8899 56.8214 57.6921 56.8437 57.4894 56.8437C57.173 56.8437 56.8689 56.8016 56.5772 56.72C56.2854 56.6384 56.011 56.5222 55.7539 56.3738C55.4968 56.2254 55.2644 56.0448 55.0567 55.8346C54.8491 55.6244 54.6686 55.3919 54.5203 55.1347C54.3719 54.88 54.2557 54.603 54.1741 54.3087C54.0926 54.0144 54.0505 53.7077 54.0505 53.3887C54.0505 53.0697 54.0926 52.763 54.1741 52.4687C54.2557 52.1744 54.3719 51.8999 54.5203 51.6427C54.6686 51.3879 54.8491 51.1554 55.0567 50.9452C55.2644 50.7375 55.4968 50.5569 55.7539 50.4086C56.011 50.2602 56.2854 50.1439 56.5772 50.0623C56.8689 49.9807 57.1754 49.9387 57.4894 49.9387C57.7144 49.9387 57.927 49.9634 58.1322 50.0104C58.3349 50.0574 58.5253 50.1241 58.7033 50.2107C58.8813 50.2973 59.0445 50.4011 59.1953 50.5223C59.3461 50.6435 59.482 50.7746 59.6057 50.9205L59.6798 50.3566C59.6971 50.2923 59.7144 50.2429 59.7293 50.2008C59.7441 50.1612 59.7639 50.1291 59.7861 50.1044C59.8084 50.0796 59.838 50.0623 59.8727 50.0549C59.9073 50.045 59.9518 50.0425 60.0037 50.0425H60.5303C60.5871 50.0425 60.6415 50.0475 60.6984 50.0574C60.7552 50.0673 60.8047 50.0846 60.8517 50.1068C60.8962 50.1291 60.9332 50.1612 60.9604 50.2008C60.9876 50.2404 61 50.2923 61 50.3517V56.4232H60.9975ZM55.5289 53.3862C55.5289 53.6682 55.5784 53.9328 55.6773 54.1826C55.7762 54.4324 55.9121 54.6525 56.0877 54.8429C56.2632 55.0333 56.4684 55.1817 56.7057 55.293C56.9431 55.4043 57.2002 55.4587 57.482 55.4587C57.7663 55.4587 58.0308 55.4043 58.2781 55.293C58.5253 55.1817 58.7404 55.0333 58.9233 54.8429C59.1063 54.6525 59.2496 54.4324 59.3535 54.1826C59.4598 53.9328 59.5117 53.6657 59.5117 53.3862C59.5117 53.1092 59.4598 52.8446 59.3535 52.5948C59.2472 52.345 59.1038 52.1249 58.9233 51.9345C58.7404 51.7441 58.5253 51.5932 58.2781 51.4819C58.0308 51.3706 57.7663 51.3137 57.482 51.3137C57.2002 51.3137 56.9431 51.3706 56.7057 51.4819C56.4684 51.5932 56.2632 51.7441 56.0877 51.9345C55.9121 52.1249 55.7762 52.345 55.6773 52.5948C55.5759 52.8446 55.5289 53.1092 55.5289 53.3862Z" fill="white"/>
</g>
<g id="Group_20">
<path id="Vector_17" d="M0.912231 61.7948C0.912231 61.6266 0.98887 61.5425 1.14462 61.5425H6.21518C6.30665 61.5425 6.37093 61.5673 6.41049 61.6192C6.45004 61.6711 6.46735 61.7354 6.46735 61.8121V62.742C6.46735 62.8063 6.4451 62.8607 6.4006 62.9102C6.3561 62.9597 6.29182 62.9844 6.20282 62.9844H2.4648V64.5796H5.34743C5.41665 64.5721 5.47351 64.587 5.51554 64.6241C5.55757 64.6612 5.57982 64.723 5.57982 64.812V65.7642C5.57982 65.8285 5.56251 65.8829 5.5279 65.9324C5.49329 65.9818 5.43643 66.0066 5.35979 66.0066H2.46727V67.9158H6.34374C6.44263 67.9158 6.50691 67.9381 6.53904 67.9801C6.57118 68.0222 6.58602 68.0865 6.58602 68.1755V69.1376C6.58602 69.2859 6.50938 69.3601 6.35363 69.3601H1.14462C1.08034 69.3601 1.02595 69.3428 0.981454 69.3082C0.936954 69.2736 0.912231 69.2167 0.912231 69.14V61.7948Z" fill="white"/>
<path id="Vector_18" d="M8.43526 67.4732C8.50943 67.5894 8.6009 67.6883 8.71462 67.7724C8.82588 67.8565 8.94207 67.9257 9.05827 67.9802C9.17693 68.0346 9.28818 68.0741 9.39449 68.0989C9.5008 68.1236 9.58732 68.136 9.64913 68.136C9.74802 68.136 9.86174 68.1261 9.99524 68.1038C10.1287 68.0816 10.2548 68.0445 10.371 67.99C10.4897 67.9356 10.5886 67.8614 10.6702 67.7699C10.7517 67.676 10.7938 67.5597 10.7938 67.4138C10.7938 67.2728 10.7616 67.1591 10.6974 67.0725C10.6331 66.9859 10.5441 66.9118 10.4353 66.8549C10.3241 66.798 10.198 66.7485 10.0571 66.709C9.91613 66.6694 9.76533 66.6273 9.6071 66.5828C9.23874 66.4839 8.92477 66.3652 8.66518 66.2267C8.4056 66.0882 8.19298 65.9299 8.02487 65.7494C7.85923 65.5713 7.73562 65.3735 7.65898 65.1608C7.58234 64.9456 7.54278 64.7131 7.54278 64.4609C7.54278 64.1765 7.59965 63.9168 7.7109 63.6818C7.82215 63.4469 7.98037 63.2441 8.18557 63.0759C8.38829 62.9077 8.63304 62.7767 8.91982 62.6827C9.2066 62.5887 9.52305 62.5442 9.86916 62.5442C10.1139 62.5442 10.3339 62.5664 10.5268 62.611C10.7196 62.6555 10.8976 62.7198 11.0633 62.8088C11.2289 62.8954 11.3822 63.0067 11.528 63.1402C11.6739 63.2738 11.8222 63.4296 11.973 63.6076C12.025 63.6719 12.0521 63.7313 12.0521 63.7931C12.0521 63.8574 12.0175 63.9168 11.9458 63.9712C11.8939 64.0132 11.8296 64.0652 11.7579 64.1295C11.6863 64.1938 11.6146 64.2531 11.5453 64.315C11.4761 64.3743 11.4094 64.4262 11.3451 64.4683C11.2808 64.5103 11.2289 64.5326 11.1869 64.5326C11.1102 64.5326 11.0336 64.4881 10.9619 64.3966C10.8853 64.3051 10.8086 64.2259 10.7295 64.1567C10.6529 64.0874 10.5713 64.033 10.4872 63.9885C10.4032 63.944 10.3117 63.9118 10.2128 63.8896C10.1139 63.8673 10.0076 63.855 9.89141 63.855C9.79747 63.855 9.69858 63.8698 9.59474 63.897C9.49091 63.9242 9.39696 63.9662 9.31044 64.0231C9.22391 64.08 9.15221 64.1468 9.09535 64.2259C9.03849 64.3051 9.00882 64.3941 9.00882 64.4905C9.00882 64.6018 9.04343 64.6983 9.1176 64.7774C9.18929 64.8566 9.28077 64.9258 9.38955 64.9827C9.5008 65.0396 9.61946 65.0891 9.75049 65.1286C9.87905 65.1682 10.0002 65.2028 10.1139 65.235C10.4353 65.3265 10.732 65.4303 11.0014 65.5515C11.2709 65.6702 11.5033 65.8162 11.6961 65.9868C11.8914 66.1575 12.0423 66.3578 12.151 66.5878C12.2598 66.8178 12.3142 67.0873 12.3142 67.3965C12.3142 67.7229 12.2499 68.0148 12.1214 68.272C11.9928 68.5292 11.8123 68.7493 11.5849 68.9274C11.355 69.1054 11.0855 69.2439 10.7715 69.3379C10.4576 69.4319 10.1164 69.4789 9.74802 69.4789C9.52799 69.4789 9.30302 69.4541 9.07557 69.4072C8.84813 69.3602 8.6281 69.286 8.42043 69.187C8.21276 69.0881 8.01993 68.9595 7.84193 68.8037C7.66392 68.6479 7.51559 68.4624 7.39692 68.2472C7.345 68.1607 7.31781 68.0816 7.31781 68.0098C7.31781 67.9653 7.33017 67.9257 7.35242 67.8911C7.37467 67.8565 7.40681 67.8243 7.44389 67.7947L8.03229 67.3421C8.0842 67.3099 8.13118 67.2951 8.1732 67.2951C8.22265 67.2951 8.26715 67.3124 8.30423 67.3446C8.34873 67.3718 8.39076 67.4163 8.43526 67.4732Z" fill="white"/>
<path id="Vector_19" d="M15.899 69.3577C15.6221 69.3553 15.3625 69.3132 15.1177 69.2316C14.873 69.15 14.6628 69.0338 14.4824 68.8804C14.3019 68.7271 14.1585 68.5391 14.0547 68.3165C13.9484 68.094 13.8964 67.8392 13.8964 67.5548V66.6867V64.0009H13.2908C13.1894 64.0009 13.1127 63.9787 13.0608 63.9317C13.0089 63.8872 12.9842 63.8105 12.9842 63.7066V62.9523C12.9842 62.8509 13.0089 62.7792 13.0608 62.7371C13.1127 62.6951 13.1869 62.6753 13.2908 62.6753H13.8964C13.8964 62.4898 13.8964 62.3043 13.8989 62.1213C13.9014 61.9383 13.9014 61.7528 13.9014 61.5673C13.9014 61.4981 13.9236 61.4412 13.9681 61.4016C14.0126 61.3621 14.0794 61.325 14.1709 61.2928C14.2302 61.2706 14.3019 61.2458 14.386 61.2162C14.47 61.1865 14.5565 61.1568 14.6455 61.1296C14.7345 61.1024 14.8211 61.0777 14.9051 61.0579C14.9892 61.0381 15.0584 61.0282 15.1153 61.0282C15.224 61.0282 15.2957 61.0579 15.3279 61.1172C15.36 61.1766 15.3773 61.2557 15.3773 61.3547C15.3773 61.5748 15.3773 61.7949 15.3748 62.015C15.3724 62.2351 15.3724 62.4552 15.3724 62.6753H16.1289C16.2204 62.6753 16.2896 62.7 16.339 62.747C16.3885 62.794 16.4132 62.8682 16.4132 62.9696V63.6868C16.4132 63.7981 16.3885 63.8797 16.339 63.9292C16.2896 63.9787 16.2204 64.0034 16.1289 64.0034H15.3724C15.3724 64.2309 15.3724 64.4238 15.3724 64.5821C15.3724 64.7404 15.3724 64.8789 15.3724 65.0001C15.3724 65.1212 15.3724 65.235 15.3748 65.3389C15.3773 65.4452 15.3773 65.559 15.3773 65.6802C15.3773 65.8038 15.3773 65.9423 15.3773 66.1006C15.3773 66.2589 15.3773 66.4518 15.3773 66.6793C15.3773 66.6867 15.3773 66.6942 15.3748 66.7016C15.3724 66.709 15.3724 66.7164 15.3724 66.7238V67.4138C15.3724 67.6463 15.4169 67.812 15.5083 67.9134C15.5998 68.0148 15.7457 68.0668 15.9509 68.0668C16.025 68.0668 16.0819 68.094 16.1239 68.1459C16.166 68.1978 16.1882 68.2621 16.1882 68.3363V69.0684C16.1882 69.1599 16.1635 69.2316 16.1116 69.2811C16.0621 69.3305 15.9904 69.3577 15.899 69.3577Z" fill="white"/>
<path id="Vector_20" d="M23.2736 69.1524C23.2736 69.192 23.2613 69.2217 23.2341 69.2414C23.2069 69.2612 23.1747 69.2785 23.1377 69.286C23.0981 69.2959 23.0561 69.3008 23.0116 69.3008C22.9671 69.3033 22.925 69.3033 22.8904 69.3033H22.3589C22.2575 69.3033 22.1809 69.2711 22.1315 69.2068C22.082 69.1425 22.0499 69.0683 22.0326 68.9842L21.9757 68.5045C21.8991 68.6207 21.8026 68.732 21.6864 68.8383C21.5703 68.9447 21.4343 69.0411 21.2761 69.1227C21.1178 69.2043 20.9374 69.2711 20.7322 69.3206C20.527 69.37 20.2946 69.3948 20.035 69.3948C19.6172 69.3948 19.2488 69.3206 18.9299 69.1722C18.611 69.0238 18.344 68.8185 18.1264 68.5613C17.9113 68.3041 17.7457 67.9999 17.6344 67.6487C17.5232 67.2976 17.4663 66.9216 17.4663 66.5185V63.0042C17.4663 62.8781 17.496 62.7816 17.5553 62.7173C17.6147 62.653 17.7012 62.6208 17.8125 62.6208H18.611C18.7519 62.6208 18.8458 62.6481 18.8928 62.7C18.9398 62.7519 18.9645 62.8459 18.9645 62.9795V66.4888C18.9645 66.6743 18.9942 66.8573 19.051 67.0329C19.1079 67.211 19.1944 67.3693 19.3106 67.5103C19.4268 67.6512 19.5702 67.7625 19.7457 67.8466C19.9188 67.9307 20.1215 67.9727 20.3539 67.9727C20.5146 67.9727 20.6827 67.9455 20.8583 67.8886C21.0338 67.8318 21.192 67.7477 21.3379 67.6314C21.4813 67.5152 21.5999 67.3718 21.6963 67.1962C21.7903 67.023 21.8373 66.8202 21.8373 66.5878V63.1724C21.8373 63.1081 21.8397 63.0462 21.8471 62.9795C21.8546 62.9152 21.8694 62.8558 21.8916 62.8014C21.9139 62.747 21.946 62.7025 21.9856 62.6703C22.0251 62.6382 22.082 62.6208 22.1512 62.6208H23.019C23.1352 62.6208 23.2192 62.6481 23.2736 62.7049C23.328 62.7618 23.3552 62.841 23.3552 62.9424V68.9941C23.3577 69.0634 23.3305 69.1153 23.2736 69.1524Z" fill="white"/>
<path id="Vector_21" d="M29.9981 68.5935C29.8745 68.7171 29.7385 68.8309 29.5902 68.9397C29.4419 69.0485 29.2812 69.1425 29.1106 69.2217C28.94 69.3008 28.7595 69.3626 28.5692 69.4096C28.3788 69.4541 28.1786 69.4789 27.9734 69.4789C27.4987 69.4789 27.0586 69.3874 26.6507 69.2068C26.2428 69.0263 25.8868 68.779 25.5827 68.4674C25.2786 68.1557 25.0413 67.7897 24.8707 67.3693C24.6976 66.9513 24.6136 66.5012 24.6136 66.0239C24.6136 65.5441 24.7001 65.094 24.8707 64.6736C25.0413 64.2531 25.2811 63.8896 25.5827 63.5755C25.8868 63.2639 26.2428 63.0166 26.6507 62.836C27.0586 62.6555 27.5012 62.564 27.9734 62.564C28.4011 62.564 28.7793 62.6406 29.1032 62.794C29.4295 62.9473 29.7188 63.1551 29.9709 63.4172V61.0009C29.9709 60.9094 29.9981 60.8352 30.055 60.7734C30.1118 60.7141 30.191 60.6844 30.2973 60.6844H31.1601C31.2417 60.6844 31.3158 60.7141 31.3875 60.7709C31.4567 60.8278 31.4938 60.9045 31.4938 61.0009V69.0362C31.4938 69.2464 31.3826 69.3527 31.1576 69.3527H30.369C30.2627 69.3527 30.191 69.3255 30.1539 69.2736C30.1143 69.2217 30.0797 69.1425 30.0476 69.0362L29.9981 68.5935ZM26.0895 66.0264C26.0895 66.3058 26.139 66.5729 26.2378 66.8227C26.3367 67.0725 26.4727 67.2926 26.6482 67.4781C26.8238 67.6636 27.029 67.812 27.2663 67.9208C27.5036 68.0296 27.7607 68.084 28.0426 68.084C28.3195 68.084 28.5815 68.0296 28.8263 67.9233C29.071 67.8169 29.2861 67.671 29.4691 67.4855C29.652 67.3025 29.7954 67.0873 29.9042 66.8425C30.0105 66.5977 30.0673 66.338 30.0748 66.061V66.0239C30.0748 65.7469 30.0228 65.4823 29.9165 65.23C29.8102 64.9778 29.6668 64.7552 29.4864 64.5647C29.3034 64.3743 29.0883 64.221 28.8411 64.1072C28.5939 63.9934 28.3294 63.9366 28.0451 63.9366C27.7657 63.9366 27.5061 63.9934 27.2688 64.1072C27.0314 64.221 26.8262 64.3743 26.6507 64.5647C26.4752 64.7552 26.3392 64.9778 26.2403 65.23C26.139 65.4848 26.0895 65.7494 26.0895 66.0264Z" fill="white"/>
<path id="Vector_22" d="M32.9105 60.6646C32.9105 60.4544 33.0143 60.348 33.222 60.348H34.1046C34.2035 60.348 34.2826 60.3752 34.3419 60.4272C34.4012 60.4791 34.4309 60.5582 34.4309 60.6646V61.451C34.4309 61.5327 34.4037 61.6093 34.3469 61.681C34.29 61.7528 34.2109 61.7899 34.1095 61.7899H33.2269C33.0168 61.7899 32.9105 61.6761 32.9105 61.451V60.6646ZM32.9105 62.9943C32.9105 62.9028 32.9377 62.8261 32.9896 62.7643C33.0415 62.7025 33.1182 62.6728 33.222 62.6728H34.0947C34.1342 62.6728 34.1738 62.6802 34.2134 62.6975C34.2529 62.7123 34.29 62.7371 34.3221 62.7668C34.3543 62.7964 34.379 62.8311 34.4013 62.8682C34.4235 62.9077 34.4334 62.9498 34.4334 62.9943V69.0411C34.4334 69.2513 34.3221 69.3577 34.1021 69.3577H33.2294C33.0193 69.3577 32.913 69.2513 32.913 69.0411V62.9943H32.9105Z" fill="white"/>
<path id="Vector_23" d="M42.8439 69.0461C42.8439 69.1104 42.8315 69.1598 42.8043 69.2019C42.7771 69.2414 42.745 69.2736 42.7005 69.2959C42.6585 69.3181 42.6115 69.3354 42.5571 69.3428C42.5027 69.3527 42.4458 69.3552 42.3865 69.3552H41.7289C41.6176 69.3552 41.5385 69.3255 41.494 69.2662C41.4495 69.2068 41.4174 69.1302 41.3976 69.0387L41.3655 68.591C41.2419 68.7147 41.1059 68.8284 40.9576 68.9348C40.8092 69.0411 40.6485 69.1351 40.4755 69.2142C40.3024 69.2934 40.1219 69.3552 39.9291 69.3973C39.7363 69.4418 39.5385 69.464 39.3358 69.464C39.0193 69.464 38.7152 69.422 38.4235 69.3404C38.1318 69.2588 37.8574 69.1425 37.6003 68.9941C37.3431 68.8457 37.1107 68.6652 36.9031 68.455C36.6954 68.2448 36.5149 68.0123 36.3666 67.7551C36.2183 67.4979 36.1021 67.2234 36.0205 66.9291C35.9389 66.6348 35.8969 66.3281 35.8969 66.0091C35.8969 65.69 35.9389 65.3833 36.0205 65.089C36.1021 64.7947 36.2183 64.5202 36.3666 64.263C36.5149 64.0058 36.6954 63.7733 36.9031 63.5656C37.1107 63.3578 37.3431 63.1773 37.6003 63.0289C37.8549 62.8805 38.1293 62.7643 38.4235 62.6827C38.7152 62.6011 39.0218 62.559 39.3358 62.559C39.5607 62.559 39.7733 62.5838 39.9785 62.6307C40.1813 62.6777 40.3716 62.7445 40.5496 62.8311C40.7276 62.9176 40.8908 63.0215 41.0416 63.1427C41.1924 63.2639 41.3284 63.3974 41.452 63.5409L41.5262 62.977C41.5435 62.9127 41.5608 62.8632 41.5756 62.8212C41.5904 62.7816 41.6102 62.7495 41.6325 62.7247C41.6547 62.7 41.6844 62.6827 41.719 62.6753C41.7536 62.6654 41.7981 62.6629 41.85 62.6629H42.3766C42.4335 62.6629 42.4879 62.6678 42.5447 62.6777C42.6016 62.6876 42.651 62.7049 42.698 62.7272C42.7425 62.7495 42.7796 62.7816 42.8068 62.8212C42.834 62.8607 42.8463 62.9102 42.8463 62.972V69.0461H42.8439ZM37.3728 66.0091C37.3728 66.2885 37.4223 66.5556 37.5211 66.8054C37.62 67.0552 37.756 67.2753 37.9315 67.4657C38.1071 67.6562 38.3123 67.8046 38.5496 67.9158C38.7869 68.0271 39.044 68.0815 39.3259 68.0815C39.6102 68.0815 39.8747 68.0271 40.1219 67.9158C40.3692 67.8046 40.5842 67.6562 40.7672 67.4657C40.9501 67.2753 41.0935 67.0552 41.1974 66.8054C41.3037 66.5556 41.3556 66.2885 41.3556 66.0091C41.3556 65.7321 41.3037 65.4674 41.1974 65.2176C41.0911 64.9679 40.9477 64.7478 40.7672 64.5573C40.5842 64.3669 40.3692 64.216 40.1219 64.1047C39.8747 63.9934 39.6102 63.9366 39.3259 63.9366C39.0465 63.9366 38.7869 63.9934 38.5496 64.1047C38.3123 64.216 38.1071 64.3669 37.9315 64.5573C37.756 64.7478 37.62 64.9679 37.5211 65.2176C37.4223 65.4699 37.3728 65.7321 37.3728 66.0091Z" fill="white"/>
<path id="Vector_24" d="M44.2852 62.8261C44.3272 62.7693 44.3668 62.7346 44.4063 62.7198C44.4335 62.6926 44.4756 62.6778 44.5324 62.6753C44.5893 62.6728 44.6412 62.6728 44.6906 62.6728H45.2222C45.3235 62.6728 45.4002 62.7074 45.4496 62.7717C45.4991 62.8385 45.5312 62.9127 45.5485 62.9918L45.6054 63.5508C45.687 63.4321 45.7858 63.3134 45.902 63.1971C46.0207 63.0809 46.1591 62.977 46.3198 62.8855C46.4805 62.794 46.666 62.7198 46.8712 62.6654C47.0788 62.6085 47.3112 62.5813 47.5708 62.5813C47.9837 62.5813 48.352 62.6555 48.6759 62.8039C48.9973 62.9523 49.2692 63.1575 49.4917 63.4172C49.7118 63.6769 49.8799 63.9811 49.9936 64.3323C50.1073 64.6835 50.1642 65.0594 50.1642 65.4625V68.9719C50.1642 69.098 50.1345 69.192 50.0752 69.2563C50.0158 69.3206 49.9293 69.3503 49.8181 69.3503H49.0195C48.8786 69.3503 48.7847 69.3231 48.7377 69.2711C48.6907 69.2192 48.666 69.1252 48.666 68.9917V65.4872C48.666 65.3018 48.6339 65.1187 48.5721 64.9432C48.5078 64.7651 48.4163 64.6068 48.2952 64.4658C48.174 64.3249 48.0232 64.2136 47.8452 64.1295C47.6672 64.0454 47.4595 64.0034 47.2247 64.0034C47.064 64.0034 46.8959 64.0355 46.7228 64.0998C46.5498 64.1641 46.3915 64.2581 46.2457 64.3768C46.1023 64.4955 45.9836 64.6414 45.8872 64.8121C45.7933 64.9827 45.7438 65.1732 45.7389 65.3883V68.7988C45.7389 68.8656 45.7364 68.9323 45.729 68.9991C45.7216 69.0659 45.7067 69.1252 45.6845 69.1772C45.6622 69.2291 45.6301 69.2711 45.5881 69.3033C45.546 69.3355 45.4916 69.3503 45.4249 69.3503H44.5571C44.4409 69.3503 44.3569 69.3231 44.3025 69.2687C44.2481 69.2143 44.2209 69.1376 44.2209 69.0337V62.977C44.2209 62.935 44.2432 62.883 44.2852 62.8261Z" fill="white"/>
<path id="Vector_25" d="M53.7737 69.3577C53.4968 69.3553 53.2372 69.3132 52.9924 69.2316C52.7477 69.15 52.5375 69.0338 52.3571 68.8804C52.1766 68.7271 52.0332 68.5391 51.9294 68.3165C51.8231 68.094 51.7711 67.8392 51.7711 67.5548V66.6867V64.0009H51.1654C51.0641 64.0009 50.9874 63.9787 50.9355 63.9317C50.8836 63.8872 50.8589 63.8105 50.8589 63.7066V62.9523C50.8589 62.8509 50.8836 62.7792 50.9355 62.7371C50.9874 62.6951 51.0616 62.6753 51.1654 62.6753H51.7711C51.7711 62.4898 51.7711 62.3043 51.7736 62.1213C51.7761 61.9383 51.7761 61.7528 51.7761 61.5673C51.7761 61.4981 51.7983 61.4412 51.8428 61.4016C51.8873 61.3621 51.9541 61.325 52.0456 61.2928C52.1049 61.2706 52.1766 61.2458 52.2606 61.2162C52.3447 61.1865 52.4312 61.1568 52.5202 61.1296C52.6092 61.1024 52.6958 61.0777 52.7798 61.0579C52.8639 61.0381 52.9331 61.0282 52.99 61.0282C53.0987 61.0282 53.1704 61.0579 53.2026 61.1172C53.2347 61.1766 53.252 61.2557 53.252 61.3547C53.252 61.5748 53.252 61.7949 53.2495 62.015C53.2471 62.2351 53.2471 62.4552 53.2471 62.6753H54.0036C54.095 62.6753 54.1643 62.7 54.2137 62.747C54.2632 62.794 54.2879 62.8682 54.2879 62.9696V63.6868C54.2879 63.7981 54.2632 63.8797 54.2137 63.9292C54.1643 63.9787 54.095 64.0034 54.0036 64.0034H53.2471C53.2471 64.2309 53.2471 64.4238 53.2471 64.5821C53.2471 64.7404 53.2471 64.8789 53.2471 65.0001C53.2471 65.1212 53.2471 65.235 53.2495 65.3389C53.252 65.4452 53.252 65.559 53.252 65.6802C53.252 65.8038 53.252 65.9423 53.252 66.1006C53.252 66.2589 53.252 66.4518 53.252 66.6793C53.252 66.6867 53.252 66.6942 53.2495 66.7016C53.2471 66.709 53.2471 66.7164 53.2471 66.7238V67.4138C53.2471 67.6463 53.2916 67.812 53.383 67.9134C53.4745 68.0148 53.6204 68.0668 53.8256 68.0668C53.8997 68.0668 53.9566 68.094 53.9986 68.1459C54.0407 68.1978 54.0629 68.2621 54.0629 68.3363V69.0684C54.0629 69.1599 54.0382 69.2316 53.9863 69.2811C53.9368 69.3305 53.8651 69.3577 53.7737 69.3577Z" fill="white"/>
<path id="Vector_26" d="M55.341 60.6646C55.341 60.4544 55.4449 60.348 55.6525 60.348H56.5351C56.634 60.348 56.7131 60.3752 56.7725 60.4272C56.8318 60.4791 56.8615 60.5582 56.8615 60.6646V61.451C56.8615 61.5327 56.8343 61.6093 56.7774 61.681C56.7205 61.7528 56.6414 61.7899 56.5401 61.7899H55.6575C55.4473 61.7899 55.341 61.6761 55.341 61.451V60.6646ZM55.341 62.9943C55.341 62.9028 55.3682 62.8261 55.4201 62.7643C55.4721 62.7025 55.5487 62.6728 55.6525 62.6728H56.5252C56.5648 62.6728 56.6043 62.6802 56.6439 62.6975C56.6835 62.7123 56.7205 62.7371 56.7527 62.7668C56.7848 62.7964 56.8095 62.8311 56.8318 62.8682C56.854 62.9077 56.8639 62.9498 56.8639 62.9943V69.0411C56.8639 69.2513 56.7527 69.3577 56.5326 69.3577H55.6599C55.4498 69.3577 55.3435 69.2513 55.3435 69.0411V62.9943H55.341Z" fill="white"/>
<path id="Vector_27" d="M58.5772 61.0059C58.5772 60.9144 58.6019 60.8402 58.6513 60.7784C58.7008 60.719 58.775 60.6893 58.8763 60.6893H59.796C59.8652 60.6893 59.932 60.719 59.9938 60.7784C60.0556 60.8377 60.0852 60.9144 60.0852 61.0059V69.0411C60.0852 69.1475 60.0556 69.2266 59.9987 69.2786C59.9419 69.3305 59.8627 69.3577 59.7639 69.3577H58.8862C58.775 69.3577 58.6934 69.3305 58.6464 69.2786C58.5994 69.2266 58.5747 69.1475 58.5747 69.0411V61.0059H58.5772Z" fill="white"/>
</g>
</g>
</svg>
