<svg width="77" height="80" viewBox="0 0 77 80" fill="none" xmlns="http://www.w3.org/2000/svg">
<g id="LOGO-olimpiada2 1">
<g id="Group">
<g id="Group_2">
<g id="Group_3">
<g id="Group_4">
<path id="Vector" d="M61.6495 8.28003C55.5849 8.28003 50.6717 13.1862 50.6717 19.2353C50.6717 25.2864 55.5849 30.1907 61.6495 30.1907C67.7121 30.1907 72.6273 25.2864 72.6273 19.2353C72.6273 13.1862 67.7121 8.28003 61.6495 8.28003ZM68.1498 21.9107C67.7949 22.7625 67.3079 23.5042 66.6869 24.1317C66.0658 24.7612 65.3363 25.2589 64.4964 25.6268C63.6566 25.9946 62.7516 26.1796 61.7835 26.1796C60.8037 26.1796 59.8948 25.9966 59.0549 25.6268C58.215 25.2589 57.4875 24.7612 56.8723 24.1317C56.2552 23.5022 55.7702 22.7625 55.4173 21.9107C55.0624 21.0589 54.8869 20.1442 54.8869 19.1665C54.8869 18.1986 55.0644 17.2898 55.4173 16.436C55.7722 15.5842 56.2572 14.8406 56.8723 14.2072C57.4875 13.5738 58.215 13.0721 59.0549 12.7043C59.8948 12.3364 60.8037 12.1534 61.7835 12.1534C62.7536 12.1534 63.6585 12.3364 64.4964 12.7043C65.3363 13.0721 66.0658 13.5738 66.6869 14.2072C67.3079 14.8406 67.7949 15.5842 68.1498 16.436C68.5047 17.2878 68.6801 18.1986 68.6801 19.1665C68.6801 20.1442 68.5027 21.0589 68.1498 21.9107Z" fill="white" fill-opacity="0.6"/>
</g>
</g>
</g>
<g id="Group_5">
<g id="Group_6">
<path id="Vector_2" d="M39.2464 43.479H17.2888V71.7181H39.2464V43.479Z" fill="white"/>
</g>
</g>
<g id="Group_7">
<g id="Group_8">
<path id="Vector_3" d="M63.7236 43.479H41.7661V71.7181H63.7236V43.479Z" fill="white"/>
</g>
</g>
<g id="Group_9">
<g id="Group_10">
<g id="Group_11">
<path id="Vector_4" d="M52.7202 19.2354C46.6556 19.2354 41.7424 24.1415 41.7424 30.1907C41.7424 36.2418 46.6556 41.146 52.7202 41.146C58.7828 41.146 63.6979 36.2418 63.6979 30.1907C63.6979 24.1415 58.7808 19.2354 52.7202 19.2354ZM59.2185 32.8661C58.8636 33.7179 58.3766 34.4595 57.7556 35.087C57.1345 35.7165 56.405 36.2142 55.5652 36.5821C54.7253 36.95 53.8203 37.1349 52.8523 37.1349C51.8724 37.1349 50.9635 36.9519 50.1236 36.5821C49.2837 36.2142 48.5562 35.7165 47.941 35.087C47.3239 34.4575 46.8389 33.7179 46.486 32.8661C46.1311 32.0143 45.9556 31.0995 45.9556 30.1218C45.9556 29.154 46.1331 28.2451 46.486 27.3914C46.8389 26.5396 47.3259 25.796 47.941 25.1625C48.5562 24.5291 49.2837 24.0274 50.1236 23.6596C50.9635 23.2917 51.8724 23.1088 52.8523 23.1088C53.8223 23.1088 54.7272 23.2917 55.5652 23.6596C56.405 24.0274 57.1345 24.5291 57.7556 25.1625C58.3766 25.796 58.8636 26.5396 59.2185 27.3914C59.5734 28.2431 59.7489 29.154 59.7489 30.1218C59.7508 31.0995 59.5734 32.0143 59.2185 32.8661Z" fill="white" fill-opacity="0.7"/>
</g>
</g>
</g>
<g id="Group_12">
<g id="Group_13">
<path id="Vector_5" d="M38.3158 8.28003C32.2512 8.28003 27.338 13.1862 27.338 19.2353C27.338 25.2864 32.2512 30.1907 38.3158 30.1907C44.3784 30.1907 49.2936 25.2864 49.2936 19.2353C49.2936 13.1862 44.3784 8.28003 38.3158 8.28003ZM44.8161 21.9107C44.4612 22.7625 43.9742 23.5042 43.3532 24.1317C42.7321 24.7612 42.0026 25.2589 41.1627 25.6268C40.3228 25.9946 39.4179 26.1796 38.4498 26.1796C37.47 26.1796 36.5611 25.9966 35.7212 25.6268C34.8813 25.2589 34.1538 24.7612 33.5386 24.1317C32.9215 23.5022 32.4365 22.7625 32.0836 21.9107C31.7287 21.0589 31.5532 20.1442 31.5532 19.1665C31.5532 18.1986 31.7307 17.2898 32.0836 16.436C32.4385 15.5842 32.9235 14.8406 33.5386 14.2072C34.1538 13.5738 34.8813 13.0721 35.7212 12.7043C36.5611 12.3364 37.47 12.1534 38.4498 12.1534C39.4199 12.1534 40.3248 12.3364 41.1627 12.7043C42.0026 13.0721 42.7321 13.5738 43.3532 14.2072C43.9742 14.8406 44.4612 15.5842 44.8161 16.436C45.171 17.2878 45.3464 18.1986 45.3464 19.1665C45.3464 20.1442 45.169 21.0589 44.8161 21.9107Z" fill="white" fill-opacity="0.8"/>
</g>
</g>
<g id="Group_14">
<g id="Group_15">
<g id="Group_16">
<path id="Vector_6" d="M28.2686 19.2354C22.204 19.2354 17.2908 24.1415 17.2908 30.1907C17.2908 36.2418 22.204 41.146 28.2686 41.146C34.3312 41.146 39.2463 36.2418 39.2463 30.1907C39.2463 24.1415 34.3292 19.2354 28.2686 19.2354ZM34.7669 32.8661C34.412 33.7179 33.925 34.4595 33.304 35.087C32.6829 35.7165 31.9535 36.2142 31.1136 36.5821C30.2737 36.95 29.3687 37.1349 28.4007 37.1349C27.4208 37.1349 26.5119 36.9519 25.672 36.5821C24.8321 36.2142 24.1046 35.7165 23.4894 35.087C22.8723 34.4575 22.3873 33.7179 22.0344 32.8661C21.6795 32.0143 21.5041 31.0995 21.5041 30.1218C21.5041 29.154 21.6815 28.2451 22.0344 27.3914C22.3893 26.5396 22.8743 25.796 23.4894 25.1625C24.1046 24.5291 24.8321 24.0274 25.672 23.6596C26.5119 23.2917 27.4208 23.1088 28.4007 23.1088C29.3707 23.1088 30.2756 23.2917 31.1136 23.6596C31.9535 24.0274 32.6829 24.5291 33.304 25.1625C33.925 25.796 34.412 26.5396 34.7669 27.3914C35.1218 28.2431 35.2973 29.154 35.2973 30.1218C35.2992 31.0995 35.1218 32.0143 34.7669 32.8661Z" fill="white" fill-opacity="0.9"/>
</g>
</g>
</g>
<g id="Group_17">
<g id="Group_18">
<path id="Vector_7" d="M14.9821 8.28003C8.91746 8.28003 4.00427 13.1862 4.00427 19.2353C4.00427 25.2864 8.91746 30.1907 14.9821 30.1907C21.0447 30.1907 25.9598 25.2864 25.9598 19.2353C25.9598 13.1862 21.0447 8.28003 14.9821 8.28003ZM21.4824 21.9107C21.1275 22.7625 20.6405 23.5042 20.0195 24.1317C19.3984 24.7612 18.6689 25.2589 17.829 25.6268C16.9891 25.9946 16.0842 26.1796 15.1161 26.1796C14.1363 26.1796 13.2274 25.9966 12.3875 25.6268C11.5476 25.2589 10.82 24.7612 10.2049 24.1317C9.5878 23.5022 9.10279 22.7625 8.74988 21.9107C8.39499 21.0589 8.21952 20.1442 8.21952 19.1665C8.21952 18.1986 8.39697 17.2898 8.74988 16.436C9.10476 15.5842 9.58977 14.8406 10.2049 14.2072C10.82 13.5738 11.5476 13.0721 12.3875 12.7043C13.2274 12.3364 14.1363 12.1534 15.1161 12.1534C16.0861 12.1534 16.9911 12.3364 17.829 12.7043C18.6689 13.0721 19.3984 13.5738 20.0195 14.2072C20.6405 14.8406 21.1275 15.5842 21.4824 16.436C21.8373 17.2878 22.0127 18.1986 22.0127 19.1665C22.0127 20.1442 21.8353 21.0589 21.4824 21.9107Z" fill="white"/>
</g>
</g>
</g>
</g>
</svg>
