<?xml version="1.0" encoding="utf-8"?>
<!-- Generator: Adobe Illustrator 27.2.0, SVG Export Plug-In . SVG Version: 6.00 Build 0)  -->
<svg version="1.1" id="Layer_1" xmlns="http://www.w3.org/2000/svg" xmlns:xlink="http://www.w3.org/1999/xlink" x="0px" y="0px"
	 viewBox="0 0 500 574.1" style="enable-background:new 0 0 500 574.1;" xml:space="preserve">
<style type="text/css">
	.st0{fill-rule:evenodd;clip-rule:evenodd;fill:#FFFFFF;}
	.st1{fill:#FFFFFF;}
</style>
<path class="st0" d="M103.2,375.4c0,0,0.9-4.4-0.7-5.5c-1.6-1.1-3.8-1.5-5.7-2.5c-2-1-1.5-1.9-3.1-1.8c-1.6,0.1-5.9,0.7-7.8-0.7
	c-1.9-1.4-2-2.6-3.2-2.6c-1.2,0-12.6,0.9-13.3,0.3c-0.7-0.6-0.9-1.1-1.4-1c-0.4,0.1-3.1,0.6-3.5,2.6S64,368,64,368s-4.1-2.6-4.1-4.1
	c0-1.5,1.4-4.8,4.2-4.8s3.5-0.2,4.1-1.2c0.6-1,3.7-1.2,5.1-1.2s2-0.2,0.6-1.6c-1.4-1.4-2.2-2.7-4.5-2.2c-2.2,0.5-5,1.6-5,1.6
	s-1.2-2.3-0.4-3.9c0.8-1.6,6.3-1.5,8.4-1.1c2.1,0.3,8.1,1.1,8.6,1.8s1.4,0.3,2,0.1c0.6-0.2,3.1-0.2,5.5,0.6s3.5,1.1,6.4,1.1
	c2.8-0.1,2.8,0.1,2.8,0.1l1.7,6.2c0,0,4.4,2.8,6,4.6c1.6,1.9,3.2,4.6,2,7.5C106.3,374.4,103.2,375.4,103.2,375.4L103.2,375.4z"/>
<path class="st0" d="M116.4,321.8c0.9,2.1,2.3,3,2.6,4.1c0.2,1.1,0.1,2.3-1.2,2.6c-1.2,0.2-1.9-0.8-2.1-1.9
	C115.5,325.5,116.5,324.1,116.4,321.8L116.4,321.8z"/>
<path class="st0" d="M113.4,327.1c0.9,2.1,2.3,3,2.6,4.1c0.2,1.1,0.1,2.3-1.2,2.6c-1.2,0.2-1.9-0.8-2.1-1.9
	C112.4,330.8,113.4,329.4,113.4,327.1L113.4,327.1z"/>
<path class="st0" d="M110.2,332.1c0.9,2.1,2.3,3,2.6,4.1c0.2,1.1,0.1,2.3-1.2,2.6c-1.2,0.2-1.9-0.8-2.1-1.9
	C109.3,335.8,110.3,334.4,110.2,332.1L110.2,332.1z"/>
<path class="st0" d="M106.5,337.5c0.9,2.1,2.3,3,2.6,4.1c0.2,1.1,0.1,2.3-1.2,2.6c-1.2,0.2-1.9-0.8-2.1-1.9
	C105.5,341.1,106.5,339.8,106.5,337.5L106.5,337.5z"/>
<path class="st0" d="M103.5,342.2c0.9,2.1,2.3,3,2.6,4.1c0.2,1.1,0.1,2.3-1.2,2.6c-1.2,0.2-1.9-0.8-2.1-1.9
	C102.6,345.9,103.6,344.6,103.5,342.2L103.5,342.2z"/>
<path class="st0" d="M100.8,347.1c0.9,2.1,2.3,3,2.6,4.1c0.2,1.1,0.1,2.3-1.2,2.6c-1.2,0.2-1.9-0.8-2.1-1.9
	C99.9,350.8,100.9,349.4,100.8,347.1L100.8,347.1z"/>
<path class="st0" d="M100.5,346.9c-2.1,1-2.8,2.5-3.9,2.9c-1.1,0.3-2.3,0.2-2.7-1c-0.3-1.2,0.6-1.9,1.7-2.2
	C96.8,346.2,98.2,347.1,100.5,346.9L100.5,346.9z"/>
<path class="st0" d="M103.3,342.2c-2.1,1-2.8,2.5-3.9,2.9c-1.1,0.3-2.3,0.2-2.7-1c-0.3-1.2,0.6-1.9,1.7-2.2
	C99.5,341.5,101,342.4,103.3,342.2L103.3,342.2z"/>
<path class="st0" d="M106.2,337.2c-2.1,1-2.8,2.5-3.9,2.9c-1.1,0.3-2.3,0.2-2.7-1c-0.3-1.2,0.6-1.9,1.7-2.2
	C102.5,336.5,103.9,337.4,106.2,337.2L106.2,337.2z"/>
<path class="st0" d="M110,331.7c-2.1,1-2.8,2.5-3.9,2.9c-1.1,0.3-2.3,0.2-2.7-1c-0.3-1.2,0.6-1.9,1.7-2.2
	C106.2,331,107.7,331.9,110,331.7L110,331.7z"/>
<path class="st0" d="M113.1,326.8c-2.1,1-2.8,2.5-3.9,2.9c-1.1,0.3-2.3,0.2-2.7-1c-0.3-1.2,0.6-1.9,1.7-2.2
	C109.3,326.1,110.8,327,113.1,326.8L113.1,326.8z"/>
<path class="st0" d="M116.2,321.5c-2.1,1-2.8,2.5-3.9,2.9c-1.1,0.3-2.3,0.2-2.7-1c-0.3-1.2,0.6-1.9,1.7-2.2
	C112.5,320.8,113.9,321.7,116.2,321.5L116.2,321.5z"/>
<path class="st0" d="M399,375.4c0,0-1-4.4,0.7-5.5s3.8-1.5,5.7-2.5c2-1,1.5-1.9,3.1-1.8s5.9,0.7,7.8-0.7c1.9-1.4,2-2.6,3.2-2.6
	c1.2,0,12.6,0.9,13.3,0.3c0.7-0.6,1-1.1,1.4-1c0.5,0.1,3.1,0.6,3.5,2.6c0.5,2,0.5,3.8,0.5,3.8s4.1-2.6,4.1-4.1
	c0-1.5-1.4-4.8-4.2-4.8s-3.5-0.2-4.1-1.2c-0.6-1-3.7-1.2-5.1-1.2s-2-0.2-0.6-1.6s2.2-2.7,4.5-2.2c2.2,0.5,5,1.6,5,1.6
	s1.2-2.3,0.4-3.9s-6.3-1.5-8.4-1.1c-2.1,0.3-8,1.1-8.5,1.8s-1.4,0.3-2,0.1c-0.6-0.2-3.1-0.2-5.5,0.6c-2.5,0.7-3.5,1.1-6.4,1.1
	s-2.8,0.1-2.8,0.1l-1.7,6.2c0,0-4.4,2.8-6,4.6c-1.6,1.9-3.2,4.6-2,7.5C395.9,374.4,399,375.4,399,375.4L399,375.4z"/>
<path class="st0" d="M385.7,321.8c-0.9,2.1-2.3,3-2.6,4.1s0,2.3,1.2,2.6s1.9-0.8,2.1-1.9C386.7,325.5,385.7,324.1,385.7,321.8
	L385.7,321.8z"/>
<path class="st0" d="M388.8,327.1c-0.9,2.1-2.3,3-2.6,4.1s0,2.3,1.2,2.6s1.9-0.8,2.1-1.9C389.8,330.8,388.8,329.4,388.8,327.1
	L388.8,327.1z"/>
<path class="st0" d="M392,332.1c-0.9,2.1-2.3,3-2.6,4.1s0,2.3,1.2,2.6s1.9-0.8,2.1-1.9C392.9,335.8,391.9,334.4,392,332.1L392,332.1
	z"/>
<path class="st0" d="M395.7,337.5c-0.9,2.1-2.3,3-2.6,4.1s0,2.3,1.2,2.6s1.9-0.8,2.1-1.9C396.6,341.1,395.6,339.8,395.7,337.5
	L395.7,337.5z"/>
<path class="st0" d="M398.6,342.2c-0.9,2.1-2.3,3-2.6,4.1s0,2.3,1.2,2.6s1.9-0.8,2.1-1.9C399.6,345.9,398.6,344.6,398.6,342.2
	L398.6,342.2z"/>
<path class="st0" d="M401.4,347.1c-0.9,2.1-2.3,3-2.6,4.1s0,2.3,1.2,2.6s1.9-0.8,2.1-1.9C402.3,350.8,401.3,349.4,401.4,347.1
	L401.4,347.1z"/>
<path class="st0" d="M401.7,346.9c2.1,1,2.8,2.5,3.9,2.9c1.1,0.3,2.3,0.2,2.6-1s-0.6-1.9-1.7-2.2C405.4,346.2,404,347.1,401.7,346.9
	L401.7,346.9z"/>
<path class="st0" d="M398.9,342.2c2.1,1,2.8,2.5,3.9,2.9c1.1,0.3,2.3,0.2,2.6-1s-0.6-1.9-1.7-2.2
	C402.6,341.5,401.2,342.4,398.9,342.2L398.9,342.2z"/>
<path class="st0" d="M396,337.2c2.1,1,2.8,2.5,3.9,2.9c1.1,0.3,2.3,0.2,2.6-1s-0.6-1.9-1.7-2.2C399.7,336.5,398.2,337.4,396,337.2
	L396,337.2z"/>
<path class="st0" d="M392.2,331.7c2.1,1,2.8,2.5,3.9,2.9c1.1,0.3,2.3,0.2,2.6-1s-0.6-1.9-1.7-2.2C395.9,331,394.5,331.9,392.2,331.7
	L392.2,331.7z"/>
<path class="st0" d="M389.1,326.8c2.1,1,2.8,2.5,3.9,2.9c1.1,0.3,2.3,0.2,2.6-1s-0.6-1.9-1.7-2.2C392.9,326.1,391.4,327,389.1,326.8
	L389.1,326.8z"/>
<path class="st0" d="M385.9,321.5c2.1,1,2.8,2.5,3.9,2.9c1.1,0.3,2.3,0.2,2.6-1s-0.6-1.9-1.7-2.2
	C389.7,320.8,388.2,321.7,385.9,321.5L385.9,321.5z"/>
<path class="st0" d="M43,407.8c0,0,5.4-13.5,1.7-40.1s-3.8-32-4.2-34.7c-0.5-2.7-0.7-9,0.9-11.7s1.6-2.7,1.6-2.7l-0.2-18.2
	c0,0-4.2-1.1-3.6-3.8s3.3-5.7,3.6-5.8c0.2-0.1,0.2-0.1,0.2-0.1l-1-12.2c0,0-4.8-2.2-3.4-5.5s3.6-6.4,3.6-6.4l-0.3-17.9
	c0,0-4,0-6.3,1.4c-2.2,1.4-2.7,1.8-2.7,1.8s-4-3.1-6-3.4c-2-0.2-4.6,4.5-4.6,4.5s-0.8,51.7,5.7,84.9s9.9,37.5,11,48.3
	c1.1,10.8,1.3,19.1,2.2,20.2C42.1,407.5,43,407.8,43,407.8L43,407.8z"/>
<path class="st0" d="M52.1,367.1c0,0,4.8-7.1,5.4-17.8c0.6-10.7,1.1-37.7,1.1-37.7l2.7-2.7l-0.1-22.3c0,0-3-1.4-2.6-3.2
	s1.7-2.8,1.7-2.8l0-15.3c0,0-2.5-1.9-2.5-2.8c0-0.8-0.1-1.3,0.2-1.7c0.3-0.4,2.5-2.3,2.5-2.3s0-17.4-0.9-18.1c-0.8-0.6-3.5-1-5,0.3
	s-1.9,3-1.9,3s-2.3-0.8-4.2,0s-3.8,2.9-3.8,6c0,3.1,0.1,28.9,2.2,47.3c2.1,18.3,5.4,33.5,5.4,45.6c0,12.1-0.9,23-0.9,23
	s0,1.4,0.5,1.5C52.1,367.1,52.1,367.1,52.1,367.1L52.1,367.1z"/>
<path class="st0" d="M74.8,342.8c0,0-4-19.6-2.8-31.7c1.2-12.1,3.5-16.1,3.5-19s-0.2-13.5-0.2-13.5s-1.9-0.9-1.9-2.5
	s0.3-1.5,0.8-1.9c0.4-0.4,1.2-0.7,1.2-0.7l-0.1-21.4c0,0-2.7-1.6-2.6-2.7s0.8-1.6,1.6-2.3s2.8-3.1,2.8-3.1l-0.1-11.1
	c0,0-1.2-2.4-2.7-1.8s-3.9,2.6-3.9,3.2c-0.1,0.6-0.1,0.5-0.1,0.5s-0.7-1.2-2-0.9c-1.3,0.3-5,2.8-5.1,5.6s-0.1,36.5,0.6,51.2
	s1,27.5,4.1,37.5c3.1,10.1,4.8,12.6,5.1,13.1C73.4,342.1,74.8,342.8,74.8,342.8L74.8,342.8z"/>
<path class="st0" d="M82.2,321.7c0,0,5.3-13.1,4.9-21.7c-0.4-8.6-1.5-19.9-1.5-19.9s4.2-1.3,4.4-3.7c0.1-2.4-0.8-7.9-1.6-8.9
	c-0.8-0.9-0.9-2.2-0.8-3.1c0.2-0.9,2.9-3.2,3.2-3.9c0.3-0.7,0.3-16.1,0.3-16.1s-1.3-0.9-0.8-2.2c0.4-1.3,2.8-5.9,2.9-7.4
	s-0.3-10-0.3-10s-1.5-1.1-5.2,0.8c-3.6,2-8,3.3-8,5.4s-2,26.8-1.6,40.7c0.4,13.9,2.9,25.4,3.2,33.6S82.2,321.7,82.2,321.7
	L82.2,321.7z"/>
<path class="st0" d="M100.4,290.1c0,0,0.7-12.2,0.4-12.5s-1.2-1-1-1.8c0.2-0.7,1.7-2.8,1.7-2.8s1.6-18.4,2.8-27.5s4.1-25.8,4.1-25.8
	s-3.5-1-4.6,0s-0.9,1.8-1.6,2c-0.7,0.2-1.9-0.4-2.7-0.9c-0.8-0.5-2.8,0-3.1,2.2c-0.3,2.1-2.4,30.8-1.5,41c0.8,10.2,1.5,19,2.5,22.8
	c1,3.8,1.2,3.7,1.8,3.6C99.8,290.5,100.4,290.1,100.4,290.1L100.4,290.1z"/>
<path class="st0" d="M114.6,273.4c0,0,1.4-21.8,3.6-33.9c2.2-12.1,4.3-24.4,4.3-24.4s-3.6-1-4.8,0.5c-1.3,1.5-1.9,2.1-1.9,2.1
	s-0.9-1.7-2.5-1.4c-1.6,0.3-4.5,6.8-4.5,20.1s2.1,33.5,3.3,35.4C113.3,273.6,114.6,273.4,114.6,273.4L114.6,273.4z"/>
<path class="st0" d="M125.9,263.9c0,0,3.8-22.3,6.3-30.9c2.5-8.6,6.2-18.1,6.9-20.3s-0.2-3.6-2.4-3.2c-2.2,0.3-5.5,3-5.5,3
	s-1.7-1.6-3.4-1c-1.7,0.6-3.8,8.1-4.2,23c-0.5,14.9-0.1,25.6,0.2,27.5C124.1,263.8,125.9,263.9,125.9,263.9L125.9,263.9z"/>
<path class="st0" d="M47.6,188.2c0,0-8.4,39.9-9.1,44.9s-6.2,10.3-8.4,10c-2.2-0.3-6.2-2.7-6.2-5.9c-0.1-3.2,1.2-33.7,3.5-39
	c2.3-5.3,3.6-10.2,5.8-10.3s6.3,0.8,4.2,3.1c-2.1,2.3-6.6,8.4-8.4,20.6c-1.8,12.2-3.2,22.3-0.4,23c2.8,0.8,5.7,0,6.4-5.9
	c0.8-5.9,5.7-27.7,7.3-33.5c1.7-5.8,1.9-7.5,3.2-7.3C46.9,188.1,47.6,188.2,47.6,188.2L47.6,188.2z"/>
<path class="st0" d="M32.1,232.9c0,0,2.6-21.5,6.4-31.5c3.9-10,4.4-10.9,4.4-10.9s-1.4-1.7-3.1-0.3c-1.7,1.4-7.2,13-8.2,18.9
	s-2.2,21.6-1.7,22.8C30.5,233,32.1,232.9,32.1,232.9L32.1,232.9z"/>
<path class="st0" d="M64.4,188.2c0,0-7.3,28.3-7.6,31.9c-0.3,3.6-2.6,12.6-5.4,13.4c-2.8,0.8-5.4,0.5-6.6-5.3
	c-1.2-5.8-0.3-19.7,0.9-25.5s4.6-14.7,4.6-14.7s4.4-0.9,3.9,0.5c-0.5,1.4-4.2,12.1-5.3,20.2s-1.2,15.1-0.6,16.7
	c0.5,1.7,2.3,3.6,3.6,0.3c1.3-3.4,3.7-16.7,4.9-22.8s3.2-15.3,4.2-15.4C62.1,187.4,64.4,188.2,64.4,188.2L64.4,188.2z"/>
<path class="st0" d="M51.6,222c0,0,1.3-11.4,3.1-17.5s4-16.1,4-16.1s-1.8-1.4-2.6-0.3s-4,10.8-5.2,17.2s-2.3,15.4-1.4,16.1
	C50.4,222.2,51.6,222,51.6,222L51.6,222z"/>
<path class="st0" d="M79.6,187.3c0,0-6.6,25.4-6.8,28.6c-0.2,3.2-2.3,11.3-4.8,12c-2.5,0.7-4.8,0.5-5.9-4.7
	c-1-5.2-0.2-17.7,0.8-22.9s4.2-13.2,4.2-13.2s3.9-0.8,3.5,0.5s-3.8,10.9-4.7,18.1c-0.9,7.3-1,13.5-0.6,15s2.1,3.2,3.2,0.2
	s3.3-15,4.4-20.4s2.9-13.8,3.8-13.9C77.5,186.6,79.6,187.3,79.6,187.3L79.6,187.3z"/>
<path class="st0" d="M93.9,187.1c0,0-6.1,20.2-6.3,22.8c-0.2,2.6-2.1,9-4.5,9.6c-2.4,0.6-4.5,0.4-5.5-3.8c-1-4.1-0.2-14.1,0.8-18.2
	s3.9-10.5,3.9-10.5s3.7-0.6,3.2,0.4s-3.5,8.6-4.4,14.4s-1,10.8-0.5,12c0.4,1.2,1.9,2.6,3,0.2c1.1-2.4,3.1-12,4.1-16.3
	c1-4.3,2.7-10.9,3.5-11C92,186.5,93.9,187.1,93.9,187.1L93.9,187.1z"/>
<path class="st0" d="M110.6,187c0,0-6.8,17.9-7,20.2c-0.2,2.3-2.4,8-5,8.4c-2.6,0.5-5,0.3-6.1-3.3s-0.2-12.4,0.8-16.1
	s4.3-9.3,4.3-9.3s4-0.6,3.6,0.3c-0.5,0.9-3.9,7.6-4.9,12.8c-0.9,5.1-1.1,9.5-0.6,10.6c0.5,1.1,2.1,2.3,3.3,0.2
	c1.2-2.1,3.4-10.6,4.5-14.4c1.1-3.8,3-9.7,3.9-9.8C108.5,186.6,110.6,187,110.6,187L110.6,187z"/>
<path class="st0" d="M124.8,186.1c0,0-4.8,13.8-4.8,15.5c0,1.8-1.5,6.1-3.9,6.5s-4.5,0.2-5.8-2.6s-1.2-9.6-0.5-12.4s3.2-7.1,3.2-7.1
	s3.6-0.4,3.3,0.2s-3,5.9-3.4,9.8c-0.5,3.9-0.2,7.3,0.3,8.1c0.5,0.8,2.1,1.8,3,0.1c0.9-1.6,2.3-8.1,3-11.1c0.7-2.9,1.9-7.5,2.8-7.5
	C122.8,185.7,124.8,186.1,124.8,186.1L124.8,186.1z"/>
<path class="st0" d="M134.8,201c-0.5,2-1.8,4.7-3.6,5c-2.3,0.4-4.5,0.2-5.8-2.6s-1.2-9.6-0.5-12.4c0.4-1.7,1.5-4,2.3-5.5l1.9,3.8
	c-0.5,1.5-1,3.2-1.2,4.6c-0.5,3.9-0.2,7.3,0.3,8.1c0.5,0.8,2.1,1.8,3,0.1c0.5-0.8,1.1-3,1.6-5.3L134.8,201L134.8,201z"/>
<path class="st0" d="M68.1,216.8c0,0,1.1-9.7,2.6-14.9c1.5-5.1,3.4-13.7,3.4-13.7s-1.5-1.2-2.2-0.2c-0.7,1-3.4,9.2-4.4,14.7
	s-2,13.1-1.2,13.7C67.1,216.9,68.1,216.8,68.1,216.8L68.1,216.8z"/>
<path class="st0" d="M84.1,209.5c0,0,0.8-7.4,2-11.3c1.2-3.9,2.6-10.4,2.6-10.4s-1.2-0.9-1.7-0.2s-2.6,7-3.3,11.1
	c-0.8,4.2-1.5,10-0.9,10.4C83.3,209.6,84.1,209.5,84.1,209.5L84.1,209.5z"/>
<path class="st0" d="M99.7,206.6c0,0,0.9-6.5,2-9.9s2.5-9.1,2.5-9.1s-1-0.8-1.4-0.1c-0.4,0.7-2.4,6.1-3.1,9.8s-1.5,8.8-1,9.1
	C99,206.7,99.7,206.6,99.7,206.6L99.7,206.6z"/>
<path class="st0" d="M116,202.6c0,0,0.6-5.6,1.5-8.6c0.9-3,1.9-7.9,1.9-7.9s-0.9-0.7-1.3-0.1c-0.4,0.6-1.9,5.3-2.5,8.4
	c-0.6,3.1-1.1,7.6-0.7,7.9C115.4,202.7,116,202.6,116,202.6L116,202.6z"/>
<path class="st0" d="M35.8,176.9c0,0-0.7-3.9,1-6.5s9.4-10.3,14.1-10c4.7,0.3,8.1,1.3,7.9,4.9s-3.1,9-3.8,9.6
	c-0.8,0.6-3.5,0.8-3.8,0.2c-0.3-0.6,0.4-1.6-0.5-1.6c-0.9,0-2.5,0.7-3.1,1.4c-0.6,0.7-3.9,0.2-4.4,0.2c-0.5,0,0.3-0.7-0.3-1.2
	s-2.6,0.8-3.7,2.2s-1.5,1-2.2,1C36.3,177.1,35.8,176.9,35.8,176.9L35.8,176.9z"/>
<path class="st0" d="M59,177c0,0-0.5-3.1,0.8-5.1s7.3-8.1,11-7.9s6.3,1,6.1,3.9s-2.4,7.1-3,7.6c-0.6,0.5-2.7,0.6-3,0.2
	c-0.2-0.4,0.3-1.3-0.4-1.3c-0.7,0-1.9,0.5-2.4,1.1c-0.5,0.6-3,0.1-3.4,0.2s0.2-0.5-0.3-1c-0.5-0.4-2,0.7-2.9,1.8
	c-0.8,1.1-1.2,0.8-1.7,0.8C59.3,177.2,59,177,59,177L59,177z"/>
<path class="st0" d="M75.6,178.7c0,0-0.5-2.5,0.8-4.1c1.3-1.7,6.8-6.6,10.2-6.4c3.4,0.2,5.8,0.8,5.7,3.1s-2.2,5.8-2.8,6.1
	c-0.5,0.4-2.5,0.5-2.8,0.1c-0.2-0.4,0.3-1-0.4-1.1c-0.7,0-1.8,0.4-2.2,0.9c-0.4,0.5-2.8,0.1-3.2,0.1s0.2-0.4-0.2-0.8
	s-1.9,0.5-2.7,1.4s-1.1,0.6-1.6,0.6C75.9,178.9,75.6,178.7,75.6,178.7L75.6,178.7z"/>
<path class="st0" d="M91.2,180.1c0,0-0.4-2.3,0.7-3.8c1.1-1.5,5.9-6,8.8-5.8c2.9,0.2,5.1,0.8,4.9,2.9s-1.9,5.3-2.4,5.6
	c-0.5,0.3-2.2,0.4-2.4,0.1c-0.2-0.3,0.2-0.9-0.3-1c-0.6,0-1.5,0.4-1.9,0.8c-0.4,0.4-2.4,0.1-2.8,0.1c-0.3,0,0.2-0.4-0.2-0.7
	s-1.7,0.5-2.3,1.3c-0.7,0.8-1,0.6-1.4,0.6C91.5,180.2,91.2,180.1,91.2,180.1L91.2,180.1z"/>
<path class="st0" d="M106.7,180.2c0,0-0.4-1.8,0.5-2.9c0.9-1.2,4.9-4.7,7.3-4.5c2.4,0.1,4.2,0.6,4.1,2.2s-1.6,4.1-2,4.4
	c-0.4,0.3-1.8,0.3-2,0.1s0.2-0.7-0.3-0.7s-1.3,0.3-1.6,0.6c-0.3,0.3-2,0.1-2.3,0.1s0.2-0.3-0.2-0.6s-1.4,0.4-1.9,1
	c-0.5,0.6-0.8,0.5-1.1,0.5C106.9,180.3,106.7,180.2,106.7,180.2L106.7,180.2z"/>
<path class="st0" d="M119.5,169.7c-3.5,0.7-8.9,1.1-16-0.6c-13.2-3.1-26.1-10.9-33.8-12.7s-29.2-2.1-29.2-2.1s11.3-16,22.5-21.9
	s34.7-12.6,41.4-7.6s6.7,9.9,4.8,13c-1.9,3.1-6.6,5.2-6.6,5.2s1.1,8.9,8.9,14.9c7.8,6,7.4,5.6,10.2,7.2c2.7,1.6,3.7,2,3.7,2
	l-1.1,0.8h-5.7L119.5,169.7L119.5,169.7z M98.2,158.2c0,0-9.7-6.2-12.9-10.2c-3.2-4-5.6-9.9-3.6-11.4c2-1.5,6.8-2.1,7.1,0.6
	s-0.1,3.7-1.1,5c-1,1.2-0.4,2.5-0.4,2.5s0.9,2.6,4.7,6.6C95.8,155.2,98.2,158.2,98.2,158.2L98.2,158.2z"/>
<path class="st0" d="M208.6,115.4c0,0,2.4-3.2,1.3-5.8s-6.8-9-6.8-9s-1.3-3.8-2-4.6s-3.2-1.4-4.1-0.3c-0.9,1.1-2,2.2-2,2.2
	s-6.9,0.2-10.4,1.6s-8.8,5.1-9.7,6.3c-0.9,1.2-2.7,3.1-2.7,3.1s-7.6,2.1-10,2.9s-3.9,1.4-2.5,4.2c1.4,2.7,3.4,5.3,3.1,6
	c-0.3,0.7-1.1,1-0.9,1.8s10.9,2.1,14.1,2.1s4.1-0.1,4.1-0.1s4.1,3.5,5,7.8c0.9,4.4,0,13.6-1.8,16.5s-2.1,3.1-2.1,3.1
	s5.1,3.5,7.9,1.5c2.7-1.9,4.4-12.9,3.5-17.9c-0.9-5-2.2-11.7-2.2-11.7s7.1-1,11.2-4C205.8,118.2,208.6,115.4,208.6,115.4
	L208.6,115.4z M182.1,104.9c2.2,0,4,1.8,4,4s-1.8,4-4,4c-2.2,0-4-1.8-4-4C178.1,106.7,179.9,104.9,182.1,104.9L182.1,104.9z"/>
<path class="st0" d="M149.8,124c0,0,2.6-3,5-4.2c2.4-1.2,4.7-0.8,4.7-0.8s-1.5-5-2.2-5.4s-4.4,0.4-6.4,3.2c-2,2.8-2,3.4-2,4.7
	C148.8,122.8,149.8,124,149.8,124L149.8,124z"/>
<path class="st0" d="M151.3,234.7c-0.9-0.4-3.5-1.1-5.1,2c-1.9,3.8-4.9,15.4-4,22.9c1,7.5,2.8,20.3,3.5,26.5
	c0.7,6.2,0.9,14.3-1.4,18.4c-2.3,4.1-6,11.4-12.8,11.5c-6.8,0.1-10.5-0.4-12.9-2c-2.4-1.6-2.2-2-2.2-2s2.1,0,3.5-1.8
	c1.3-1.8,2.5-6.5-0.4-9.1s-8.8-2.5-10.7-0.8c-1.9,1.7-3.7,8.8-0.1,12.7s12.4,8.7,20.6,7.2s15.6-3.9,19.2-13.8s4.1-20,4.2-23.4
	c0.2-3.4,0.3-24.5,1-31.9c0.4-4.6,0.6-8.4,0.4-10.9L151.3,234.7L151.3,234.7z"/>
<path class="st0" d="M348.8,234.6c1-0.4,3.4-0.9,4.9,2.1c1.9,3.8,4.9,15.4,4,22.9c-1,7.5-2.8,20.3-3.5,26.5
	c-0.7,6.2-0.9,14.3,1.5,18.4s6,11.4,12.8,11.5c6.9,0.1,10.5-0.4,12.9-2c2.4-1.6,2.2-2,2.2-2s-2.1,0-3.5-1.8
	c-1.4-1.8-2.5-6.5,0.4-9.1c2.9-2.6,8.8-2.5,10.7-0.8c1.9,1.7,3.7,8.8,0.1,12.7s-12.4,8.7-20.6,7.2s-15.6-3.9-19.2-13.8
	c-3.6-9.9-4-20-4.2-23.4c-0.2-3.4-0.3-24.5-1-31.9c-0.4-4.4-0.6-8.1-0.5-10.6L348.8,234.6L348.8,234.6z"/>
<path class="st0" d="M454.5,384.8c0,0,0-22.4,3.8-44.3c3.8-21.8,17.4-56.3,18.9-71.4c1.6-15.2,1-33.6,1-33.6l-7.6,7.9l-7-4.7
	c0,0-0.6,18.3-4.4,33.8c-3.8,15.5-10.1,30.7-10.1,32.9s0.6,7.3-0.6,16.4s-3.8,15.5-1.9,32.9c1.9,17.4,3.8,28.7,5.2,29.6
	C453.2,385.2,454.5,384.8,454.5,384.8L454.5,384.8z"/>
<path class="st0" d="M426.6,344.6c0,0,11.9-20.7,15.7-32.9c3.7-12.1,9.2-29.4,12.3-42.3c3.1-12.9,6.9-30.7,6.9-30.7s-0.6-2.4-3.3-2
	s-5.3,2-5.3,2s-3.1-2.9-4.5-3.5c-1.4-0.6-2.9,1-3.7,6.6c-0.8,5.7-6.1,29.3-8.4,36.6c-2.4,7.2-5.5,16-5.5,16s2.7,4.5,2.4,9.8
	c-0.4,5.3-9,36.6-9,38.5C424.1,344.8,426.6,344.6,426.6,344.6L426.6,344.6z"/>
<path class="st0" d="M408,325.4c0,0,10.6-12.3,12.9-18.2c2.4-5.9,10.8-36,13.3-43.2c2.5-7.2,8.2-28.4,8.2-28.4s-0.8-2.5-3.5-2.4
	c-2.7,0.2-5.9,2.5-5.9,2.5l-4.9-3.7c0,0-2.1,1.4-2.7,3.3s-3.9,20-5.1,24.5c-1.2,4.5-4.7,12.5-4.7,12.5s0.2,19.6-1.4,26.6
	C412.7,306.1,408,325.4,408,325.4L408,325.4z"/>
<path class="st0" d="M393.9,296.1c0,0,9.3-9.6,11.8-14.1s9.1-22,10.6-31.1c1.5-9.1,3.7-20.3,3.7-20.3s-6.6,1.2-7.3,2.3
	c-0.8,1.2-1,1.2-1,1.2l-5.6-4.8c0,0-2.3-0.4-2.5,5.4c-0.2,5.8-1.9,14.1-2.9,18.1c-1,4.1-1.7,6.8-1.7,6.8s1.7,5.8,1.2,11
	s-1.7,14.3-4,18c-2.3,3.7-3.5,6.6-3.5,6.6L393.9,296.1L393.9,296.1z"/>
<path class="st0" d="M370.9,290.5c0,0,21.6-29.7,25.1-43.4c3.5-13.7,3.9-18.7,3.9-18.7s-2.9,0.4-4.8,1.5c-1.9,1.2-3.5,1.9-3.5,1.9
	s-3.3-1.4-4-2.3s-3.1-1.2-3.5,5c-0.4,6.2-3.1,23.4-5.4,30.3s-7.5,21-7.9,22.8C370.4,289.4,370.9,290.5,370.9,290.5L370.9,290.5z"/>
<path class="st0" d="M359,275.8c0,0,14.3-12,18.1-29.1s3.9-18.5,3.9-18.5l-4.2,0.4c0,0-1.9-1.2-3.5-1.4c-1.5-0.2-2.1-0.4-2.9,4.4
	c-0.8,4.8-1.5,13.7-2.9,17.9c-1.4,4.2-7.1,22.6-8.1,23.9C358.4,274.9,359,275.8,359,275.8L359,275.8z"/>
<path class="st0" d="M472.3,200.4c0,0,2.2-0.5,2.5,2.6s1.6,12.1,1.2,15.7c-0.4,3.7-1.8,13.5-4.9,15c-3.1,1.4-3.3,1.6-4.8,0.2
	c-1.5-1.4-4.6-14.5-5-18.5c-0.4-4.1-1.2-11.5,0.2-12.6c1.4-1.2,2.9-1.4,3.5-0.3c0.6,1.2,0.5,6.5,1.1,10.3s1.4,8.2,2.2,7.9
	c0.9-0.3,1.9-0.5,1.8-4.9s-1.4-13-0.1-14.1C471.2,200.6,472.4,200.2,472.3,200.4L472.3,200.4z"/>
<path class="st0" d="M450.1,231.8c0,0,5.2-5.7,6.5-11.2c1.2-5.5,3.8-17.5,3.2-18.1c-0.6-0.6-1.5-0.8-2.5,0.7s-2.9,9.1-3.9,10.2
	c-1,1.2-2.9,2.7-3.9,1.1c-1-1.6-0.7-9.6-0.8-10.9c-0.1-1.2-1.9-2.6-3.1-1.7s-0.9,6-1.1,9.3c-0.2,3.3-0.3,9.1,1.7,14.5
	C448.4,231,450.1,231.8,450.1,231.8L450.1,231.8z"/>
<path class="st0" d="M410.8,224.2c0,0,5.5-4.5,6.9-8.8c1.3-4.3,4-13.7,3.4-14.1c-0.6-0.4-1.6-0.6-2.7,0.5s-3.1,7.1-4.1,8
	c-1,0.9-3.1,2.1-4.1,0.8s-0.7-7.6-0.8-8.5c-0.1-1-2-2-3.3-1.4c-1.2,0.7-0.9,4.7-1.1,7.2s-0.3,7.1,1.9,11.3
	C408.9,223.6,410.8,224.2,410.8,224.2L410.8,224.2z"/>
<path class="st0" d="M430.2,228.3c0,0,5.5-5,6.9-9.9c1.3-4.9,4-15.4,3.4-15.9c-0.6-0.5-1.6-0.7-2.7,0.6s-3.1,8-4.1,9
	s-3.1,2.4-4.1,0.9c-1-1.4-0.7-8.5-0.8-9.6s-2-2.3-3.3-1.5c-1.2,0.8-0.9,5.3-1.1,8.2s-0.3,8,1.9,12.8
	C428.3,227.7,430.2,228.3,430.2,228.3L430.2,228.3z"/>
<path class="st0" d="M391.9,222.3c0,0,5.5-4.2,6.9-8.2c1.3-4,4-12.8,3.4-13.2c-0.6-0.4-1.6-0.6-2.7,0.5c-1,1.1-3.1,6.6-4.1,7.5
	c-1,0.9-3.1,2-4.1,0.8s-0.7-7.1-0.8-8s-2-1.9-3.3-1.3c-1.2,0.6-0.9,4.4-1.1,6.8s-0.3,6.6,1.9,10.6
	C390,221.7,391.9,222.3,391.9,222.3L391.9,222.3z"/>
<path class="st0" d="M374.9,220.5c0,0,5.5-3.8,6.9-7.5c1.3-3.7,4-11.7,3.4-12.1c-0.6-0.4-1.6-0.5-2.7,0.4s-3.1,6.1-4.1,6.8
	s-3.1,1.8-4.1,0.7s-0.7-6.4-0.8-7.3s-2-1.7-3.3-1.2c-1.2,0.6-0.9,4-1.1,6.2c-0.2,2.2-0.3,6.1,1.9,9.7
	C373,220,374.9,220.5,374.9,220.5L374.9,220.5z"/>
<path class="st0" d="M357.3,219.1c0,0,5.5-3.6,6.9-7.1c1.3-3.5,4-11.2,3.4-11.5c-0.5-0.3-1.2-0.4-2,0l-9,18.4
	C357,219,357.3,219.1,357.3,219.1L357.3,219.1z"/>
<path class="st0" d="M458.5,195.7c0,0,5-0.6,6-3.4c1-2.8,0.9-10.3,0.4-13.4c-0.5-3-2.9-11.6-3.4-11.9s-2.2-0.3-2.1,1.1
	c0.1,1.4,1.8,7.8,1.9,11s0.1,7.1-0.8,7.8c-0.9,0.6-3.4,1.2-4.1,0.5c-0.7-0.8-2.7-5.3-2.9-8.2s-0.1-10.2-0.1-10.2s-2.4-0.9-3.1,0.5
	c-0.7,1.4-0.7,9.1-0.5,11.8s0.8,8.5,1.7,10.4c0.8,2,2.7,4.1,4.1,4.1C456.9,195.9,458.5,195.7,458.5,195.7L458.5,195.7z"/>
<path class="st0" d="M439.4,195c0,0,3.8-0.4,5.2-2.4c1.4-2,3-6.8,3.2-10.1c0.2-3.3,0.5-12.3,0.5-12.3s-1.6-1.6-3.1-0.6
	c-1.5,0.9-0.9,2.6-1.1,4.4s-0.8,7.1-1.4,9.7c-0.6,2.6-0.9,3.9-2.1,4.1c-1.2,0.2-2.2,1-3.1-2.7c-1-3.7-1.1-8-1.1-9.4
	c0-1.4-0.5-2.2-1.4-2.1c-0.9,0.1-1.6,0.4-1.5,2.6c0.1,2.2,0.1,13.2,0.7,15.4s1.7,3.1,2.5,3.3C437.5,195.1,439.4,195,439.4,195
	L439.4,195z"/>
<path class="st0" d="M424.6,194.1c0,0,4.3-1.2,5-3.9c0.6-2.7,2.2-12.7,2-13.7c-0.3-1-1.9-1.6-2.6-0.6c-0.6,0.9-1.7,7-2.1,8.5
	c-0.4,1.5-1,3.7-2.3,3.8s-2-0.1-2.6-0.7c-0.6-0.6-0.5-7.8-0.5-7.8s-2.5-0.9-2.7,0.1s0,11.4,0.3,12.1c0.3,0.6,1.8,2.2,3,2.2
	C423.4,194,424.6,194.1,424.6,194.1L424.6,194.1z"/>
<path class="st0" d="M411,195c0,0,4.1-0.1,4.9-3.3c0.8-3.2,1.2-10.4,0.9-10.6c-0.3-0.2-2.2-0.4-2.6,1.1s-1.2,6.2-1.7,6.7
	s-1.9,1-2.6,0c-0.8-1-0.7-5.9-0.7-5.9s-2.6-1.7-3,0.4c-0.5,2.1-0.4,7.9-0.1,8.9c0.3,1,1.9,2.6,2.7,2.6S411,195,411,195L411,195z"/>
<path class="st0" d="M397,195c0,0,3.7-0.6,5-2.9c1.4-2.3,2.2-6.9,2.2-7.6s-2.5-1.3-2.7-0.4c-0.3,0.8-1.3,4.4-1.9,5
	c-0.6,0.6-2.5,1.7-3.3,0.4c-0.8-1.3-1-4.1-1-4.9s-2.3-1.2-2.9-0.3c-0.6,0.9-0.5,5.6,0,7s1.6,3.6,2.5,3.6C395.8,195,397,195,397,195
	L397,195z"/>
<path class="st0" d="M384,196.8c0,0,3.1-1.3,3.9-2.8s2-6.1,2-7.2s0-1.5,0-1.5s-2.8-0.4-3,0.6s-1.1,4.3-2,4.8
	c-0.9,0.4-2.1,0.6-2.8-0.3s-1.4-4.8-1.4-4.8s-2.3-0.8-2.5,0.2s0.4,4.9,1.1,6.9c0.7,2,2.6,3.8,2.6,3.8L384,196.8L384,196.8z"/>
<path class="st0" d="M381.4,173.1c0,0,19.6-1.2,28.8-7.9s15.1-12.9,18.5-15.6c3.5-2.7,4.9-4.2,4.9-4.2s-4.4-6.3-6.2-5.4
	s-11.8,12.1-16.6,15.8s-17.2,12.6-21.1,14C385.9,171.3,381.4,173.1,381.4,173.1L381.4,173.1z"/>
<path class="st0" d="M388.9,161.3c0,0,11.7-13.3,12.6-19.2c0.9-5.9-0.3-9-1.4-10.3c-1.2-1.3-4.4-0.6-4.6,0.5
	c-0.3,1.2,0.3,3.7,1.9,3.7c1.7,0,1,0,1,0s-0.6,4.4-1.5,8.4c-0.9,4-4.9,12.5-6,13.9C389.7,159.7,388.8,161.3,388.9,161.3L388.9,161.3
	z"/>
<path class="st0" d="M378,177.9c0,0,21.1,1.5,31.8-2.6c10.7-4.1,29.7-13.6,36.3-15.4s7-1.8,7-1.8s-3.1-14.4-11.5-21.4
	c-8.4-6.9-20.1-14.7-30.4-16.1c-10.3-1.4-22-1.4-28.2,5.4c-6.2,6.8-4.4,9.9-3.9,12.4c0.5,2.4,6.8,8.1,6.8,8.1s0.4,4.9-2.6,8.6
	c-3,3.7-10.4,12.6-10.4,12.6l-0.2,0.3h8.7l-4.3,8.8L378,177.9L378,177.9z"/>
<path class="st0" d="M130.7,386.2c0,0,6.3,0.1,8.4-3.8c2.1-3.9,6.2-14.9,6.3-16.2c0.1-1.2-0.7-3.9-2.3-3.8c-1.6,0.1-3.3,2.7-4.5,6
	s-2.9,10.1-4.4,10.5s-4.6,0.6-5-1.6c-0.4-2.2,0.6-5.8,2-8.8c1.4-3,2.4-5.7,2.8-6s-1.4-2.8-3.5-2.3c-2.1,0.4-4,3.2-5.3,6.1
	c-1.3,2.9-3.6,10-2.5,13.1c1.1,3.2,2.2,5.2,4,5.9C128.4,386,130.7,386.2,130.7,386.2L130.7,386.2z"/>
<path class="st0" d="M153.4,388.9c0,0,6.4-0.9,8.4-4.9c2-4,5.7-15,5.8-16.2c0.1-1.2-0.9-3.6-2.5-3.2s-3.2,3-4.3,6.4
	c-1.1,3.3-2.5,10-4.1,10.5c-1.6,0.6-4.7,1.3-5.1-0.8c-0.4-2,0.4-5.5,1.7-8.6c1.3-3,2.2-5.8,2.6-6.1c0.4-0.3-1.6-2.4-3.7-1.6
	c-2.1,0.7-3.9,3.6-5.1,6.6c-1.2,3-3.3,9.9-2,12.7s2.5,4.5,4.3,4.9C151.1,389.1,153.4,388.9,153.4,388.9L153.4,388.9z"/>
<path class="st0" d="M178.7,384.4c0,0,5.5-1.3,6.6-4.7c1.1-3.4,2.7-12.6,2.6-13.6s-1.3-2.8-2.7-2.4s-2.4,2.8-2.8,5.5s-0.7,8.3-2,8.9
	c-1.3,0.6-3.9,1.5-4.6-0.1c-0.7-1.6-0.6-4.5,0.1-7c0.7-2.6,1.1-4.9,1.3-5.1s-1.7-1.8-3.5-1s-2.9,3.3-3.5,5.8s-1.4,8.3,0.2,10.4
	c1.6,2.1,2.9,3.4,4.6,3.5C176.6,384.8,178.7,384.4,178.7,384.4L178.7,384.4z"/>
<path class="st0" d="M197.7,381.2c0,0,5.1-1.2,5.9-4.5s1.9-11.9,1.8-12.8c-0.2-0.9-1.4-2.6-2.6-2.2s-2.1,2.6-2.4,5.2
	s-0.2,7.8-1.4,8.4c-1.2,0.6-3.6,1.4-4.3-0.1c-0.7-1.5-0.7-4.2-0.2-6.7c0.5-2.4,0.8-4.6,1-4.9c0.2-0.3-1.7-1.7-3.3-0.9
	c-1.6,0.7-2.5,3.1-3,5.5s-0.9,7.8,0.6,9.9s2.8,3.2,4.4,3.4C195.8,381.6,197.7,381.2,197.7,381.2L197.7,381.2z"/>
<path class="st0" d="M212.4,358.9c0.4,0.2,0.8,0.3,1.2,0.5C213.2,359.3,212.8,359.1,212.4,358.9L212.4,358.9z"/>
<path class="st0" d="M216.5,376.6c0,0,1.9-0.5,3.6-1.6l-2.1-4.3c-0.1,0.1-0.1,0.1-0.2,0.1c-1.2,0.6-3.6,1.4-4.3-0.1
	c-0.7-1.5-0.7-4.2-0.2-6.5c0.2-0.8,0.3-1.5,0.4-2.2l-1.6-3.2c-0.3-0.1-0.6-0.3-0.9-0.4c-0.1,0-0.2,0.1-0.2,0.1
	c-1.6,0.7-2.5,3.1-3,5.4c-0.4,2.3-0.9,7.7,0.6,9.7s2.8,3.2,4.4,3.3C214.6,377,216.5,376.6,216.5,376.6L216.5,376.6z"/>
<path class="st0" d="M133.4,353.1c1.6,0,2.9,1.3,2.9,2.9s-1.3,2.9-2.9,2.9s-2.9-1.3-2.9-2.9C130.4,354.4,131.8,353.1,133.4,353.1
	L133.4,353.1z"/>
<path class="st0" d="M144.4,355.6c1.6,0,2.9,1.3,2.9,2.9s-1.3,2.9-2.9,2.9c-1.6,0-2.9-1.3-2.9-2.9S142.8,355.6,144.4,355.6
	L144.4,355.6z"/>
<path class="st0" d="M153.8,357c1.6,0,2.9,1.3,2.9,2.9s-1.3,2.9-2.9,2.9c-1.6,0-2.9-1.3-2.9-2.9C150.9,358.3,152.2,357,153.8,357
	L153.8,357z"/>
<path class="st0" d="M166.7,357.3c1.6,0,2.9,1.3,2.9,2.9s-1.3,2.9-2.9,2.9c-1.6,0-2.9-1.3-2.9-2.9
	C163.8,358.6,165.1,357.3,166.7,357.3L166.7,357.3z"/>
<path class="st0" d="M176.7,356.4c1.6,0,2.9,1.3,2.9,2.9s-1.3,2.9-2.9,2.9c-1.6,0-2.9-1.3-2.9-2.9
	C173.8,357.7,175.1,356.4,176.7,356.4L176.7,356.4z"/>
<path class="st0" d="M186.4,355.2c1.6,0,2.9,1.3,2.9,2.9s-1.3,2.9-2.9,2.9c-1.6,0-2.9-1.3-2.9-2.9S184.8,355.2,186.4,355.2
	L186.4,355.2z"/>
<path class="st0" d="M194.2,353.7c1.6,0,2.9,1.3,2.9,2.9s-1.3,2.9-2.9,2.9c-1.6,0-2.9-1.3-2.9-2.9S192.6,353.7,194.2,353.7
	L194.2,353.7z"/>
<path class="st0" d="M205.5,355.7c-0.5,0.6-1.3,0.9-2.1,0.9c-1.6,0-2.9-1.3-2.9-2.9c0-0.3,0-0.5,0.1-0.8
	C202.2,353.9,203.8,354.9,205.5,355.7L205.5,355.7z"/>
<path class="st0" d="M133.5,349.7c0,0,21.2,7.2,36.3,5.9c15.1-1.3,22.4-2.7,24.6-4.6c0.5-0.4,0.9-0.8,1.2-1.1
	c-2.1-1.4-4.1-2.9-6-4.4c-0.7,0-1.4,0.1-2,0.2c-3.5,0.4-15.6,4-21.5,3.7c-5.9-0.3-22.9-1.7-26.5-2.7c-3.6-1-5.5-1.3-6.2,0.3
	S133.5,349.7,133.5,349.7L133.5,349.7z"/>
<path class="st0" d="M148.6,317.6c0,0,7.3,2.9,10.7,1.4c2-1,4.1-2.5,5.4-3.5c-0.6-1.1-1.2-2.2-1.7-3.4c-0.2,0-0.4,0-0.6,0
	c-2.7,0.2-12.4-0.5-13.6,0.6c-1.3,1.1-1.2,2.5-1.2,3.1C147.6,316.4,148.6,317.6,148.6,317.6L148.6,317.6z M165.6,314.6
	c0.2-0.2,0.3-0.3,0.3-0.3s-0.4-1-1.4-1.7C165,313.3,165.3,314,165.6,314.6L165.6,314.6z"/>
<path class="st0" d="M152.7,308.5c0,0,5.6,2,9.2,1.5c-0.9-2.1-1.8-4.2-2.6-6.4c-3,0-5.8,0.1-6.5,0.5c-1.3,1-1.2,2.1-1.2,2.7
	C151.7,307.4,152.7,308.5,152.7,308.5L152.7,308.5z"/>
<path class="st0" d="M144.2,322.7c0,0-5.1,9-6,11.6c-0.9,2.6-1.1,8.7,1.8,9.6c2.9,0.9,3.5,0.9,4.5,0.3c1.1-0.5,1.8-1.1,1.8-1.1
	s0,1.5,0.7,1.9c0.7,0.5,3,1.3,4.9,0.9s2.2-1.4,2.2-1.4l0.1-0.6c0,0,0.7,1.9,2,2.2s4.5,0.6,5,0.1s1.4-1.5,1.4-1.5s0.4,1.9,1.2,2.2
	c0.9,0.3,4.5,0.8,5.5-0.1c1.1-0.9,1.5-1.8,1.5-1.8s0.4,1,2.1,1.4s3.9,0.3,4.4-0.3s0.6-1.4,0.6-1.4s0.3,1.1,1.4,1.1s4.6,0.2,5.3-0.9
	c0.7-1.2,1-2.2,1-2.2l0.1-0.6c-1.2-1.1-2.4-2.2-3.6-3.3c0.1,1.7,0,3.2-0.2,3.5c-0.5,0.5-1.2,1-2.2,0.5c-1.1-0.5-1.1-1.7-1.2-2.7
	c0-0.5,0-2.8,0.1-4.8c-0.6-0.7-1.2-1.3-1.8-2c0,0.7,0,1.5,0,2.4c0.1,3.6-0.1,6.7-0.2,7.2s-1.9,1-2.6,0.5c-0.8-0.5-0.9-2.2-0.8-4.9
	c0.1-1.6,0.6-5.5,1-8.3c-0.9-1.1-1.8-2.3-2.7-3.5c-0.4,4.1-1.1,10.7-1.1,12c0.1,1.9-0.5,5-2,5.2s-3.9-0.5-4-2.1s2.4-10.2,2.8-12.1
	c0.4-1.9,0.5-3.2,0.5-3.2s-2.4-1.4-2.7-0.2s-2.2,10.3-2.7,12.2s-1.5,4.5-2.4,4.9s-3.2,0.7-3.6-0.6c-0.5-1.3,0.3-4.2,1.2-6.7
	s3.1-9.4,3.1-9.4s-1.1-2-2.2-1.4c-1.2,0.6-3.6,9.2-4.6,11.2s-1.6,5.1-2.7,5.2c-1.1,0.1-3.4,0.1-3.2-1.4s3.9-8.5,3.9-8.5
	s2.2-5.4,2.5-6.2c0.3-0.8,0.5-1.6,0.5-1.6s-1.9-1.6-2.6-0.8c-0.8,0.9-4.4,10.5-5.3,12.5c-0.9,2-1.7,3.5-2.5,4.2
	c-0.8,0.7-3.5,0.5-3.6-0.6s-0.4-2.8,0.9-4.9c1.2-2.2,4.9-9.8,4.9-9.8s-0.5-1-0.9-1.5C145.4,322.8,144.2,322.7,144.2,322.7
	L144.2,322.7z"/>
<path class="st0" d="M361.9,388.4c0,0-5.8,0.1-7.4-3.4c-1.5-3.5-4.2-13.3-4.2-14.4c0-1.1,1.1-3.5,2.5-3.4s2.8,2.4,3.5,5.4
	c0.8,3,1.6,9,3,9.4s4.2,0.5,4.8-1.5c0.6-2,0.1-5.2-0.9-7.8c-1-2.7-1.6-5.1-1.9-5.4c-0.3-0.3,1.6-2.5,3.5-2.1s3.4,2.9,4.2,5.5
	c0.9,2.6,2.3,8.9,1,11.7c-1.4,2.8-2.6,4.6-4.3,5.3C364.1,388.3,361.9,388.4,361.9,388.4L361.9,388.4z"/>
<path class="st0" d="M336.6,389.9c0,0-5.5,0.1-6-3.2s-0.5-12.7-0.1-13.8c0.3-1,1.9-3.3,3.2-3.2c1.3,0.1,2,2.3,1.9,5.1
	s-0.9,8.6,0.4,8.9c1.2,0.3,3.8,0.5,4.8-1.4c1-1.9,1.4-4.9,1.2-7.5c-0.2-2.5-0.2-4.9-0.4-5.1c-0.2-0.2,2.1-2.3,3.8-2
	c1.7,0.4,2.4,2.7,2.5,5.2c0.1,2.5-0.1,8.5-2.1,11.2s-3.6,4.4-5.4,5C338.7,389.7,336.6,389.9,336.6,389.9L336.6,389.9z"/>
<path class="st0" d="M317.6,386.4c0,0,5.2,1.5,6.8-1.4c1.6-2.9,3.6-8.7,4.1-10.4c0.6-1.7,0.8-3.2,0.8-3.2s-2.8-2.4-3.5-1
	s-2.9,7.6-4,8.5c-1.1,0.9-2.7,1.4-3.4,0.5c-0.8-0.9-0.9-1.2-0.4-2.3s2.3-6.9,2.5-7.2c0.1-0.3-1.9-1.9-3-1.5s-3.4,4.9-4.2,6.5
	c-0.9,1.6-1.9,5.5-1.2,7.1c0.7,1.7,2.4,3.1,3.4,3.6C316.4,386.1,317.6,386.4,317.6,386.4L317.6,386.4z"/>
<path class="st0" d="M300.3,381.1c0,0,4.7,1.8,5.5,0.8c0.9-1,6.1-9.3,6.6-10.9c0.4-1.6,0-3.6-1.3-3.7c-1.2,0-2.5,0.3-3.2,1.5
	c-0.7,1.2-2.9,6-3.6,6.2s-2-0.2-1.5-1.2c0.4-1,2-4.4,2.5-5.3c0.5-0.9,0.9-1.7,0.9-1.7s-1.9-2.2-3.2-1.3c-1.3,0.9-2.7,4.5-3.7,6.4
	s-2.4,3.2-1.5,5.5c0.9,2.3,1.5,2.6,1.9,2.9C299.9,380.7,300.2,381.1,300.3,381.1L300.3,381.1z"/>
<path class="st0" d="M295.8,363.4c0,0,2.1,0.5,1.2,3c-0.9,2.4-3.7,8.1-5.5,9c-1.8,0.9-6,1.5-7.8,0.6c-0.8-0.5-2-1.4-3-2.4l1.6-3.4
	c0.3,0.2,0.6,0.4,0.9,0.5c1.3,0.3,3.5,2.5,6.3-0.5c2.9-3,4.5-6.4,4.5-6.4L295.8,363.4L295.8,363.4z"/>
<path class="st0" d="M344.9,361.9c0,0,8.9-0.3,11.8-0.6c2.9-0.4,2.9-0.4,2.9-0.4s1.5-2.5-0.3-4.3s-5-4.8-9.3-3.2
	c-4.3,1.5-6.2,3.4-6.6,4.9s0.1,3.6,0.1,3.6L344.9,361.9L344.9,361.9z"/>
<path class="st0" d="M324.1,361.2H340c0,0,0.3-3.6-1.6-5.4s-7-2.3-7-2.3s-4.8,0.6-6,2.4C324.1,357.7,324.1,361.2,324.1,361.2
	L324.1,361.2z"/>
<path class="st0" d="M303.1,359.3h16.1c0,0-0.2-4-2.5-5.9s-6.5-2.5-8.8-2.1c-2.3,0.4-4.6,3.4-4.9,4.5
	C302.7,356.9,303.1,359.3,303.1,359.3L303.1,359.3z"/>
<path class="st0" d="M312.6,347.1c0,0,16.7,2.7,27.8,1.9c11.1-0.8,18.5-3.6,18.5-3.6s-1-3.9-2.1-5s-2.8-2.8-2.8-2.8
	s-12.1,3-16.4,2.3c-4.2-0.6-11.2-0.4-13.6-0.8c-2.5-0.4-4-0.4-4-0.4L312.6,347.1L312.6,347.1z"/>
<path class="st0" d="M349.4,329.1c2.1,0,3.7,1.7,3.7,3.7s-1.7,3.7-3.7,3.7s-3.7-1.7-3.7-3.7S347.3,329.1,349.4,329.1L349.4,329.1z"
	/>
<path class="st0" d="M337.1,329c2.1,0,3.7,1.7,3.7,3.7s-1.7,3.7-3.7,3.7s-3.7-1.7-3.7-3.7C333.4,330.7,335.1,329,337.1,329
	L337.1,329z"/>
<path class="st0" d="M326.5,328.1c2.1,0,3.7,1.7,3.7,3.7s-1.7,3.7-3.7,3.7c-1.9,0-3.5-1.4-3.7-3.3c1.1-1.4,2.2-2.7,3.3-4.1
	C326.2,328.1,326.3,328.1,326.5,328.1L326.5,328.1z"/>
<path class="st0" d="M341,307.6c2.1,0,3.7,1.7,3.7,3.7s-1.7,3.7-3.7,3.7s-3.7-1.7-3.7-3.7C337.3,309.3,339,307.6,341,307.6
	L341,307.6z"/>
<path class="st0" d="M333.5,324.6c0,0,4,2.5,7.6,2.2s6-0.6,7.3-1.9c1.3-1.3,1.5-5.1,1.5-5.1l-14.7-0.3c0,0-2.3,2.6-2.3,3.4
	S333.5,324.6,333.5,324.6L333.5,324.6z"/>
<path class="st0" d="M349.8,302.1c0,0-1,2.4-0.3,4.5c0.8,2.1,2.8,3.5,3.7,4.2c0.9,0.7,1.4,2.1,1,2.9s-0.8,2.7-2.4,2.7
	c-1.5,0-5.7-2.6-5.9-6.5c-0.3-3.9,0.4-5.9,1.3-6.8S349.8,302.1,349.8,302.1L349.8,302.1z"/>
<path class="st0" d="M166.9,167.7c0,0,7.7-7.2,10-8.9c2.3-1.7,3.2-2.1,3.2-2.1s0.8,0.7,0.3,1.8c-0.5,1.1-2.1,4.4-3.7,6
	s-2.6,3.2-3,3.5c-0.1,0-0.2,0.1-0.4,0.1h-5.4L166.9,167.7L166.9,167.7z"/>
<path class="st0" d="M185.2,156.9c0,0-2.5,2.1-5.2,6.2c-2.3,3.5-3.2,4.6-3.5,4.9h6.4c0.4-0.5,1-1.4,1.7-3.4c1.5-4.3,1.4-5.3,1.3-5.9
	S185.2,156.9,185.2,156.9L185.2,156.9z"/>
<path class="st0" d="M195.2,156.9c0,0-3.2,2.5-5.5,5.8c-2.2,3.2-2.4,3-2.2,4.4c0.1,0.4,0.3,0.8,0.7,1h6.1c0.6-0.8,1.8-2.7,1.9-4.3
	c0.1-2.2,0.2-4.8-0.1-5.6C195.8,157.3,195.2,156.9,195.2,156.9L195.2,156.9z"/>
<path class="st0" d="M201.3,156.7c0,0-2.7,1.9-3.2,4.5c-0.5,2.6-0.6,6,0.5,6.7c0,0,0.1,0.1,0.1,0.1h5c0.7-0.8,1.1-2.5,1.1-3.8
	c-0.1-1.7-0.6-5.2-1.4-6.2C202.6,157,201.3,156.7,201.3,156.7L201.3,156.7z"/>
<path class="st0" d="M209.5,155.9c0,0-1.8,1.9-1.9,4.4s0.1,5.5,1.2,6.7c0.4,0.5,0.9,0.8,1.3,1h4.5c0.2-0.8,0.6-2.6,0.2-4.1
	c-0.5-2.1-2.2-5.9-3.1-6.9C210.9,156.2,209.5,155.9,209.5,155.9L209.5,155.9z"/>
<path class="st0" d="M216.6,155.9c0,0-0.5,1.9,0.1,4.2c0.5,2.4,1,5.2,2,6.3c1,1.1,1.4,1.4,1.4,1.4s6.2,0.2,7,0.2
	c0.8,0,1.5-1,0.1-2.3c-1.4-1.3-6.2-5.6-7.1-6.6C219.1,158.1,216.6,155.9,216.6,155.9L216.6,155.9z"/>
<path class="st0" d="M219.9,154c0,0-0.5,0.1,1.9,3.9c2.4,3.9,5.9,7.9,7.9,8.8c1.7,0.7,3.8,1.1,4.6,1.3h2c-0.2-0.7-0.9-2.6-2.5-3.9
	c-1.9-1.6-9.3-8.9-11-9.9C221.1,153.3,219.9,154,219.9,154L219.9,154z"/>
<path class="st0" d="M197.5,149.6c1.4,0,2.5,1.1,2.5,2.5s-1.1,2.5-2.5,2.5s-2.5-1.1-2.5-2.5S196.1,149.6,197.5,149.6L197.5,149.6z"
	/>
<path class="st0" d="M198,143.2c1.4,0,2.5,1.1,2.5,2.5s-1.1,2.5-2.5,2.5s-2.5-1.1-2.5-2.5C195.5,144.3,196.6,143.2,198,143.2
	L198,143.2z"/>
<path class="st0" d="M197.9,136.8c1.4,0,2.5,1.1,2.5,2.5s-1.1,2.5-2.5,2.5s-2.5-1.1-2.5-2.5C195.3,137.9,196.5,136.8,197.9,136.8
	L197.9,136.8z"/>
<path class="st0" d="M198,131c1.4,0,2.5,1.1,2.5,2.5s-1.1,2.5-2.5,2.5s-2.5-1.1-2.5-2.5C195.5,132.1,196.6,131,198,131L198,131z"/>
<path class="st0" d="M197,124.1c1.4,0,2.5,1.1,2.5,2.5c0,1.4-1.1,2.5-2.5,2.5s-2.5-1.1-2.5-2.5C194.5,125.2,195.6,124.1,197,124.1
	L197,124.1z"/>
<path class="st0" d="M204.3,120.9c1.4,0,2.5,1.1,2.5,2.5s-1.1,2.5-2.5,2.5s-2.5-1.1-2.5-2.5C201.8,122.1,202.9,120.9,204.3,120.9
	L204.3,120.9z"/>
<path class="st0" d="M206.3,127.4c1.4,0,2.5,1.1,2.5,2.5s-1.1,2.5-2.5,2.5s-2.5-1.1-2.5-2.5S204.9,127.4,206.3,127.4L206.3,127.4z"
	/>
<path class="st0" d="M207.3,134.6c1.4,0,2.5,1.1,2.5,2.5s-1.1,2.5-2.5,2.5s-2.5-1.1-2.5-2.5C204.8,135.7,205.9,134.6,207.3,134.6
	L207.3,134.6z"/>
<path class="st0" d="M207.8,141.1c1.4,0,2.5,1.1,2.5,2.5s-1.1,2.5-2.5,2.5s-2.5-1.1-2.5-2.5C205.2,142.2,206.4,141.1,207.8,141.1
	L207.8,141.1z"/>
<path class="st0" d="M208,148.7c1.4,0,2.5,1.1,2.5,2.5s-1.1,2.5-2.5,2.5s-2.5-1.1-2.5-2.5S206.6,148.7,208,148.7L208,148.7z"/>
<path class="st0" d="M210.5,117.1c1.4,0,2.5,1.1,2.5,2.5s-1.1,2.5-2.5,2.5s-2.5-1.1-2.5-2.5C208,118.2,209.1,117.1,210.5,117.1
	L210.5,117.1z"/>
<path class="st0" d="M213.3,123.7c1.4,0,2.5,1.1,2.5,2.5s-1.1,2.5-2.5,2.5s-2.5-1.1-2.5-2.5C210.8,124.8,211.9,123.7,213.3,123.7
	L213.3,123.7z"/>
<path class="st0" d="M215.3,129.8c1.4,0,2.5,1.1,2.5,2.5s-1.1,2.5-2.5,2.5s-2.5-1.1-2.5-2.5S213.9,129.8,215.3,129.8L215.3,129.8z"
	/>
<path class="st0" d="M216.4,136.4c1.4,0,2.5,1.1,2.5,2.5s-1.1,2.5-2.5,2.5s-2.5-1.1-2.5-2.5S215,136.4,216.4,136.4L216.4,136.4z"/>
<path class="st0" d="M216.9,142.6c1.4,0,2.5,1.1,2.5,2.5s-1.1,2.5-2.5,2.5s-2.5-1.1-2.5-2.5S215.5,142.6,216.9,142.6L216.9,142.6z"
	/>
<path class="st0" d="M217.1,148.6c1.4,0,2.5,1.1,2.5,2.5s-1.1,2.5-2.5,2.5s-2.5-1.1-2.5-2.5S215.7,148.6,217.1,148.6L217.1,148.6z"
	/>
<path class="st0" d="M324.1,152.2c0,0,1.8,0.2,6.9,4.4c5,4.2,7.8,5.2,11.4,5.6c3.6,0.4,4.3,1.1,4.4,2.6c0.1,1.5,0.1,2.8-0.9,2.9
	s-11.6,1.1-15.5-3c-3.8-4.1-6.9-9.5-6.9-10.8C323.5,152.7,324.1,152.2,324.1,152.2L324.1,152.2z"/>
<path class="st0" d="M318.7,152.9c0,0,3.1,3.4,5,5.7c1.9,2.3,5.2,4.9,5.4,6.3s-0.5,1.8-1.1,2c-0.6,0.2-4.3,0.8-5.8-1.5
	s-4.7-8.6-4.2-10.3C318.3,153.5,318.7,152.9,318.7,152.9L318.7,152.9z"/>
<path class="st0" d="M294,168c1.2-0.2,2.3-0.6,3.1-1.1c4.5-2.5,8.2-5.3,8.2-6.7s-2.7-4.5-4.9-4.5c-2.2,0.1-5.5,2.6-7.5,4.2
	c-2.1,1.6-8.2,4.5-10.3,5.2s-3.2,2.2-2.7,2.8c0,0,0.1,0.1,0.1,0.1L294,168L294,168z"/>
<path class="st0" d="M298.5,151.7c0,0-5.5,7.1-14,8.4c-8.5,1.3-15.6,0.9-18.5-0.6s-3.4-3-3.4-3s11.9-0.4,15.6-2.3
	c3.8-1.9,12.2-7.9,14.8-9.9c2.5-2.1,3.7-2.2,3.9-0.7c0.1,1.5,0.1,1.9-0.9,3c-1,1.2-1.7,2.5-1.7,2.5s0.7,1.1,2.1,1.4
	C297.9,150.9,298.5,151.7,298.5,151.7L298.5,151.7z"/>
<path class="st0" d="M296.8,132.5c0,0,1,4.9-0.1,6.7c-1.2,1.9-4.2,5-11.5,4.5c-7.2-0.5-12.6-2.2-13.3-3.4s-0.6-1.5,1.2-1.8
	c1.8-0.2,9.9,0.1,14.8-2.4C292.7,133.5,296.8,132.5,296.8,132.5L296.8,132.5z"/>
<path class="st0" d="M274,126.4c0,0,7.8,1.2,13.2-1s11.3-4.9,12.4-5.6s1.9-0.8,1.9-0.8s-0.3,2.5-1.5,4.3s-2,2.6-2,2.6s1.2,1,1.1,1.6
	c-0.1,0.6-3.5,2.7-5.3,3.4c-1.9,0.7-13.6,1.2-15.7,0.4c-2.1-0.9-3.7-1-4-2.4C273.6,127.4,274,126.4,274,126.4L274,126.4z"/>
<path class="st0" d="M280.4,109.4c0,0,3.9,4.9,8.9,7.4c5,2.5,8.7,3.2,9.8,2.8c1.1-0.5,2.2-1.1,2.2-1.1l2.8-8c0,0-3.5,1.2-7.6,1
	c-4.1-0.2-7.9-0.7-10.9-1.5C282.6,109.1,280.4,109.4,280.4,109.4L280.4,109.4z"/>
<path class="st0" d="M303.6,94.3c0,0-0.7,3.1,2.2,6.7c2.9,3.6,3.5,4.7,3.5,4.7s-0.4,3.5-2,3.7c-1.6,0.2-3.2-0.1-3.7-1.3
	c-0.5-1.2-3-5.4-2.9-8.2C301,97,303.6,94.3,303.6,94.3L303.6,94.3z"/>
<path class="st0" d="M317.5,91.6c0,0-2.1,3.1-2.1,4.6s1.2,6.5,1.5,7.7s0.2,2.2,0.2,2.2s-5,1-5.4,0.2c-0.4-0.8-1.7-5.6-0.7-7.8
	c1-2.2,2.6-5.7,4.1-6.4C316.5,91.5,317.5,91.6,317.5,91.6L317.5,91.6z"/>
<path class="st0" d="M323.2,94.2c0,0,2.8,0.7,3.2,3.3c0.5,2.6,0.4,7.2,0,7.9c-0.4,0.7-6.2,0.2-6.2,0.2s1.5-2.1,2.2-4.9
	S323.2,94.2,323.2,94.2L323.2,94.2z"/>
<path class="st0" d="M322.3,168c-0.8-1-5.3-6.9-6.1-11.6c-0.9-5.2-1.1-8.9-1.1-8.9s-2.2-0.5-3.2,0.2c-1,0.8-1.2,1.9-1,2.9
	c0.1,0.9,0.2,1.3,0.2,1.3l-4.5-2.7c0,0-1.5,1.5-0.6,4.9s3.6,9.2,5.2,10.9c1,1.1,2.8,2.3,3.8,2.9L322.3,168L322.3,168z"/>
<path class="st0" d="M318.5,136.4c0,0-0.2,1.6-1.1,3.3c-0.9,1.7-3.5,4.5-6.5,6.4s-6,3.8-6.7,2.9s-1.9-2.2,0.1-5.7s3.9-7.2,4.3-8.9
	c0.5-1.7,6.3-3.8,8-4.7c1.7-0.9,4-1.6,4-1.6s1.1,0.4,0,1.4s-8.2,6.8-9.5,8.3c-1.3,1.5-2.5,5-0.1,3.4s5.5-4.8,6.3-4.7
	C318.2,136.5,318.5,136.4,318.5,136.4L318.5,136.4z"/>
<path class="st0" d="M321,141.6c0,0,2.3-1.1,4.6-3.2c2.3-2.1,3.9-4.5,3.9-5.6s-1.4-1-2.4-0.7c-1,0.3-2.1,0.3-2.8,0.1
	s-0.5-0.9-0.5-1.4c-0.1-0.5-1.9-0.5-2.6,0.6c-0.7,1.1-1,3.1-0.9,5.7C320.4,139.6,321,141.6,321,141.6L321,141.6z"/>
<path class="st0" d="M306.6,128.1c0,0,2.5,2.2,5.4,0.6c2.9-1.6,5.6-3.2,5.8-4.7c0.1-1.5-2.7-1.9-3.3-2.2c-0.6-0.2-0.9-0.5-0.9-0.5
	s0.1-0.1,1.1-0.6s1.4-1.1,0.4-1.7c-1-0.6-2.9,0.3-4.1,1.6c-1.2,1.3-4.2,4.4-4.5,5.8C306.2,127.8,306.6,128.1,306.6,128.1
	L306.6,128.1z"/>
<path class="st0" d="M308.4,117.4c0,0,1.6,0.9,4.8-0.1c3.2-1,4.2-2.2,4.2-2.2s-0.5-0.8-1.2-1.1c-0.7-0.3-0.9-0.5-0.9-0.5
	s-0.9-0.3,0.2-1.1c1.1-0.8,1.3-1.4,0.3-1.8s-2.9-1.2-4.7,0.9C309.2,113.6,308.4,117.4,308.4,117.4L308.4,117.4z"/>
<path class="st0" d="M324.9,128.4c0,0,7,1.9,11.5,0c4.6-1.9,9.1-4.7,10.1-6.1c1-1.4,1.1-1.7,1.1-1.7s1.3,0,2.1,0.7
	c0.8,0.7,0.9,1,0.9,1s1.3-0.9,1.3-2.2s0.4-5-1.9-6.5c-2.3-1.5-9.2-1.8-9.9-1.8s-0.7,0-0.7,0s-0.1-0.7-0.9-1
	c-0.7-0.3-5.4-0.2-6.2,0.3s-1.1,1-1.1,1s-0.5,5.2-1.6,7.3c-1.1,2.1-2.7,4.9-4,6.2c-1.3,1.3-2.2,2.4-2.2,2.4L324.9,128.4L324.9,128.4
	z"/>
<path class="st0" d="M322.1,107.8c0,0-2,1.6-1.6,3.2s1.8,3.4,2.9,3.5c1.1,0.1,1.5,0.9,3.5-1s2.5-2.5,2.4-3.6
	c-0.1-1.1-0.5-1.6-1.1-1.8c-0.6-0.2-1.5-0.2-1.5-0.2s0-0.5,0.5-0.6c0.5-0.1,2.9-0.2,3.8,0.2s1.5,1.6,1,2.4c-0.5,0.9-3.2,3.9-4.4,4.9
	s-3.2,1.4-4.8,0.9c-1.6-0.5-4.5-3.1-4.4-4.3c0.1-1.2,0.1-2.2,1.2-3.1c1.1-0.9,1.3-1,1.6-0.9C321.4,107.5,322.1,107.8,322.1,107.8
	L322.1,107.8z"/>
<path class="st0" d="M205.6,564.8c0,0-6-5.5-1.6-10.6c4.4-5.1,9.9-9.7,10.1-13.8s-7.8-14.9-10.3-23c-2.5-8.1-6.7-21.6-1.1-28
	s8.3-10.3,14.9-9c6.6,1.2,12.7,5.1,11,11.5s-3.5,9.4-5.8,9.6s-4.6,0.2-5-2.6c-0.4-2.8-0.5-4.2-1.4-5c-0.9-0.7-3.9,0.7-3.9,3.7
	s0.9,9.4,5.5,10.6c4.6,1.2,18.9-0.7,22.6,0c3.7,0.7,10.1,5.1,15.6,11.5c5.5,6.4,7.4,8.7,8.5,8.8s3.2,1.1,1.6,2.8
	c-1.6,1.8-1.8,2.3-1.8,2.3s3.5,2.3,5.7,2.3s3.2-1.2,4.2-1.1s2.5,2.5,2.5,4.2s-0.2,1.8-0.2,1.8s3.2,0.3,5.1,2.1
	c2,1.8,7.3,11.7,11.9,13.8c4.6,2.1,9.4,2.1,9.4,2.1s-3.9,6.7-7.1,6.5s-11.5-2.3-13.3-3.9s-5.3-4.2-5.3-4.2s-0.4,2,1.2,3.7
	c1.6,1.8,2.1,3,2.1,3s-0.9,2-3.7,0.7s-4.6-0.9-6.4-3.4s-5.7-10.1-9.9-12.6c-4.2-2.5-4.1-2.1-4.1-2.1s-1.1,0.9,0.9,4.4
	c2,3.5,2.1,5.3,2.1,5.3s-9.6,1.1-11.7-1.2s-6.2-5.3-6.2-5.3s-2.6-0.7-3.7-1.1c-1.1-0.3-2.5-2-2.5-2s-1.6,4.2-2.8,5.7
	c-1.2,1.4-2.1,2-1.9,3.5c0.2,1.6,1.4,6.4,1.4,6.4s-2.3,0.3-4.6-1.2c-2.3-1.6-5.1-5.8-5.1-5.8s-1.2,2-4.6,2.7
	c-3.4,0.7-9.6-0.5-10.6,1.6C206.3,561.8,205.6,564.8,205.6,564.8L205.6,564.8z M252,542.6c0,0,6.7-1.4,10.8,2.1
	c4.1,3.5,8.3,10.3,8.9,12.4s1.4,2.7,1.4,2.7v-9.6c0,0,3.2,1.6,6,3.9s4.4,3.7,6.7,3.9c2.3,0.2,3.2-0.2,3.2-0.2s-6-5.8-8.7-9
	c-2.6-3.2-8-8.8-13.8-10.1c-5.8-1.2-10.6-2-13.1-1.1C250.9,538.6,252,542.6,252,542.6L252,542.6z M209.9,553.6c0,0,7.4-6.9,8.3-11.5
	c0.9-4.6-5.3-16.8-8-21.1c-2.6-4.2-7.1-12.7-6.7-19.3s2.6-12,5.5-14.2s9-5.7,11.3-1.6s2.5,6.2,2.1,7.1c-0.4,0.9-1.1,1.2-1.1,1.2
	s-0.7-2.6-2.5-4.2c-1.8-1.6-5.8-3-8.5,1.1c-2.6,4.1-3.5,9-1.9,12.6c1.6,3.5,6.6,9.9,12.6,9.7c6-0.2,15.4-2.3,19.5-1.1
	s6.7,2.1,9.6,7.4c2.8,5.3,4.1,7.4,6.9,8.3c2.8,0.9,5.3,1.2,5.3,1.2s-1.8,3.2-5.5,3s-6.4-0.2-6.4-0.2s-0.2,6-3,8.8
	c-2.8,2.8-6,3.9-6,3.9s0.4-0.7,2.8-4.6c2.5-3.9,3-11.9,1.1-14.7s-5.1-8.5-10.8-9.6c-5.7-1.1-12.9,0.2-12.9,0.2s-2.5,2,2.5,3
	c5,1.1,9-0.5,13.1,4.1c4.1,4.6,6.2,6.5,5.1,10.1c-1.1,3.5-1.1,3.7-1.1,3.7l-1.2,0.7c0,0,1.1-0.2-3-4.6c-4.1-4.4-14.5-8.8-18.4-12.7
	s-10.3-10.6-10.6-13.1c-0.4-2.5-1.1-3.2-1.1-3.2s-1.8,8,1.4,11.3c3.2,3.4,10.8,11,15.9,12.9s5.3,1.2,5.8,5.1s1.6,10.8-0.2,15.9
	c-1.8,5.1-1.9,6.9-1.9,6.9s-1.2-2.3-1.1-6.2c0.2-3.9,0.9-12,0.2-13.6c-0.7-1.6-2.8-3.4-3.4-2.1s0,0.9,0,5c0,4.1,0.5,7.8-3.5,11.5
	c-4.1,3.7-5.1,3.7-6.9,3.7C211.4,554.7,209.9,553.6,209.9,553.6L209.9,553.6z"/>
<path class="st0" d="M246.5,546.5c0,0-0.4,2.4,1.6,4.2c2,1.7,2.4,2.5,3.8,2.2c1.4-0.3,2.1,0,1.6-1.6s-0.6-1.9-2.5-3.4
	C249.1,546.4,246.5,546.5,246.5,546.5L246.5,546.5z"/>
<path class="st0" d="M259.6,523.5c2.1-0.9,6-2.8,10.1-5.8c6.1-4.5,9.5-8.2,9.5-8.2s5.5-1.5,11.2,1.2c1.9,0.9,3.4,1.7,4.6,2.6
	c-0.8-1.8-0.8-3.9-0.2-5.3c-1.8-1.3-3.9-2.4-6.5-2.8c-7.6-1.1-8.9,0.6-14.9,3.8c-6.1,3.2-11,6.4-14.1,7.8c-1.4,0.6-2.6,1.5-3.5,2.3
	c0.2,0.2,0.3,0.4,0.5,0.6C257.5,521.1,258.6,522.4,259.6,523.5L259.6,523.5z"/>
<path class="st0" d="M289.2,552.9c1.1,0,2.7-0.3,4.6-1.6c4.3-2.8,7-5.1,9.9-12.1c-2.7-0.3-3.8-0.6-3.8-0.6s-0.9-1.2-1.9-2.8
	c0.4,2.5,0.8,4.8-0.4,6.1c-1.8,1.9-3,5.1-7,5.1c-2.8,0-5-0.4-6.1-0.6C285.9,548.5,287.5,550.9,289.2,552.9L289.2,552.9z"/>
<path class="st0" d="M300,538.7c0,0,3.1,0.8,11.2,1.2c8.1,0.4,9,0.5,9,0.5s12.4,7.7,18.7,7.7c6.3,0,14,2.3,23.4-2.7
	c9.4-5,17.2-16.1,18.5-20.7c0.3-1.1,0.5-2.5,0.6-4c-0.1,0-0.2,0-0.2,0s-2.7-0.1-5.5-0.3c0.3,0.2,0.6,0.5,0.9,0.7
	c1.9,2.1,0.4,3.3-3.5,9.3c-3.9,5.9-13.5,10.8-21.8,13.1s-20.9-2.7-23.8-3.9s-7.1-4.2-10.4-4.5s-15.7-1.7-15.7-1.7s-0.5-1-0.8-1.8
	c-0.3-0.8-0.6-2.2,1.7-7c2.3-4.8,7.1-4.9,13.4-6.6s11.3-3,15.6-6.2c4.2-3.2,14.8-9.6,23.4-12.2c8.6-2.6,11.2-3.1,14.3-1.3
	c0.5,0.3,1,0.6,1.3,0.9c1.6-0.9,3.4-1.2,5-1.2c-0.6-0.8-1.2-1.5-1.8-1.9l0,0c0,0.6,0,0.9,0,0.9s-4,0.5-8.2-0.5
	c-3.2-0.7-6.1-1-7.3-2.7c-1.7,0.3-3.5,0.9-5.2,1.6c-8.2,3.4-17.5,9-25.5,13c-5,2.5-10.8,4.5-15.4,5.9c-0.4,0.3-1.2,1-2.6,2.1
	c-1.9,1.6-4.1,1.4-6.9,1.6c-0.2,0-0.4,0-0.6,0c-2,1.6-3.5,3.7-4.2,5.1c-1.2,2.2-1.9,6.3-1.2,8.9C297,534.7,300,538.7,300,538.7
	L300,538.7z"/>
<path class="st0" d="M381.2,520.6c0,0,3.9-0.8,6.8,1.8c3,2.6,11.3,7.2,17,10.3c5.7,3.1,19.7,4.8,25,2.6s11.8-7.7,13.1-13.6
	c1.3-5.9-1.7-21.6-8-25.5c-6.3-3.9-13.8-7.3-22.5-5.9c-8.8,1.4-14.7,4.8-21.4,5.9c-6.7,1.2-12.6,1.9-15.8,1.9s-7.7,0.9-8.5,6.7
	s0.6,14,3.7,14.8S381.2,520.6,381.2,520.6L381.2,520.6z M372.2,510.3c0,0-0.9,3.6,2.2,4.2c3.1,0.6,8.1,0.3,12,2.2
	s16.4,11.7,22.1,13.4c5.8,1.7,13.6,4.4,20.6,1.2c7-3.2,11.6-8.9,11.5-13.8c-0.1-4.9-3.6-13.5-7-16.5s-8-5.5-16.1-6
	c-8.1-0.5-11.8,1.3-19,4.4s-11.2,4.9-13.4,4.9s-8-1.5-10.4,0.6C372.2,507.1,372.2,510.3,372.2,510.3L372.2,510.3z"/>
<path class="st0" d="M280.8,513c-0.8-0.8-2.5-0.2-4,1.2s-2,3.2-1.2,4c0.8,0.8,2.5,0.2,4-1.2C281,515.5,281.6,513.7,280.8,513
	L280.8,513z"/>
<path class="st0" d="M313,492.6c-0.9-0.5-2.5,0.4-3.5,2.1s-1.1,3.6-0.2,4.1c0.9,0.5,2.5-0.4,3.5-2.1
	C313.8,495,313.9,493.2,313,492.6L313,492.6z"/>
<path class="st0" d="M325,517.5c-0.8-0.8-2.5-0.2-4,1.2s-2,3.2-1.2,4c0.8,0.8,2.5,0.2,4-1.2C325.1,520,325.7,518.2,325,517.5
	L325,517.5z"/>
<path class="st0" d="M323.8,529.6c-0.8-0.8-2.5-0.2-4,1.2s-2,3.2-1.2,4c0.8,0.8,2.5,0.2,4-1.2S324.5,530.3,323.8,529.6L323.8,529.6z
	"/>
<path class="st0" d="M341.8,511.4c-0.8-0.8-2.5-0.2-4,1.2c-1.4,1.4-2,3.2-1.2,4c0.8,0.8,2.5,0.2,4-1.2
	C342,513.9,342.6,512.2,341.8,511.4L341.8,511.4z"/>
<path class="st0" d="M343.5,523.4c-0.8-0.8-2.5-0.2-4,1.2s-2,3.2-1.2,4c0.8,0.8,2.5,0.2,4-1.2C343.7,525.9,344.2,524.1,343.5,523.4
	L343.5,523.4z"/>
<path class="st0" d="M356.7,508.2c-0.8-0.8-2.5-0.2-4,1.2c-1.4,1.4-2,3.2-1.2,4c0.8,0.8,2.5,0.2,4-1.2
	C356.9,510.7,357.5,508.9,356.7,508.2L356.7,508.2z"/>
<path class="st0" d="M361.6,524.3c-0.8-0.8-2.5-0.2-4,1.2s-2,3.2-1.2,4c0.8,0.8,2.5,0.2,4-1.2C361.8,526.8,362.4,525,361.6,524.3
	L361.6,524.3z"/>
<path class="st0" d="M348.8,534.5c-0.8-0.8-2.5-0.2-4,1.2s-2,3.2-1.2,4c0.8,0.8,2.5,0.2,4-1.2C349,537,349.5,535.2,348.8,534.5
	L348.8,534.5z"/>
<path class="st0" d="M370.9,477c-0.9-0.3-2,0.8-2.4,2.5s-0.2,3.1,0.6,3.4s2-0.8,2.4-2.5C372,478.8,371.7,477.3,370.9,477L370.9,477z
	"/>
<path class="st0" d="M402,508.7c-0.8-0.8-2.5-0.2-4,1.2s-2,3.2-1.2,4c0.8,0.8,2.5,0.2,4-1.2S402.8,509.5,402,508.7L402,508.7z"/>
<path class="st0" d="M415.4,497.9c-0.8-0.8-2.5-0.2-4,1.2s-2,3.2-1.2,4c0.8,0.8,2.5,0.2,4-1.2S416.2,498.6,415.4,497.9L415.4,497.9z
	"/>
<path class="st0" d="M413.5,513c-0.8-0.8-2.5-0.2-4,1.2s-2,3.2-1.2,4c0.8,0.8,2.5,0.2,4-1.2C413.7,515.5,414.2,513.7,413.5,513
	L413.5,513z"/>
<path class="st0" d="M424.6,507.3c-0.8-0.8-2.5-0.2-4,1.2c-1.4,1.4-2,3.2-1.2,4c0.8,0.8,2.5,0.2,4-1.2
	C424.8,509.8,425.3,508,424.6,507.3L424.6,507.3z"/>
<path class="st0" d="M433.6,520.5c-0.8-0.8-2.5-0.2-4,1.2s-2,3.2-1.2,4c0.8,0.8,2.5,0.2,4-1.2S434.3,521.3,433.6,520.5L433.6,520.5z
	"/>
<path class="st0" d="M312,514.3c0,0,0-5.8,7.7-10.6s8.4-3.6,10.7-5c2.4-1.4,15.5-17.4,16.7-24.3s2.7-16.1,1.9-17c-0.8-1-0.8-1-0.8-1
	s6-3.8,7.6-6.9c1.6-3.1,3.5-10.6,1.4-13.9s-3.8-7.4-8.4-6c-4.6,1.4-6.5,3.9-8.2,7.1c-1.7,3.1-3.5,6-3.5,6s-8.7-1.3-14.4,3.9
	s-14,16.6-16.9,25.7s-2.5,17-4.1,20.7c-1.6,3.6-5.4,12.6-6.6,14s-1.4,4.4-0.2,6.8c1.3,2.4,4.3,4.4,7.1,4.3s5,0,6.9-1.6
	C311.1,514.9,312,514.2,312,514.3L312,514.3z M305,515.5c0,0,2.7-0.2,3.5-2.2c0.9-2,1.3-6.5,4.5-9.2c3.2-2.7,10.7-7.3,15.5-10.6
	c4.8-3.4,14.2-16.5,16.2-24.2s1.9-9.3,1.9-9.3l-3.7-2.2c0,0,5.4-4.8,8-8.6c2.6-3.9,3.4-8,2.9-11c-0.5-2.9-3.5-6.3-6-3.5
	s-5.2,2.6-5.1,6c0.1,3.4,0.1,4.8,1.4,5.9c1.2,1.1,1.2,1.1,1.2,1.1s-4.3,1.9-4.6,3.4s-1.1,2.3-1.1,2.3s-4-5.4-7.2-5.4
	s-13.1,8.3-17.1,15.9c-4,7.6-8.8,17.9-9.3,23.8c-0.5,5.9-0.4,7.7-1.3,9.9s-2.6,5.1-4.3,8.7c-1.7,3.6-2.5,3.8-2,6.2
	c0.5,2.5,1.2,2.4,2.7,2.8S305,515.5,305,515.5L305,515.5z"/>
<path class="st0" d="M316.1,475.6c-0.9-0.5-2.5,0.4-3.5,2.1s-1.1,3.6-0.2,4.1c0.9,0.5,2.5-0.4,3.5-2.1
	C316.9,478,317,476.2,316.1,475.6L316.1,475.6z"/>
<path class="st0" d="M326,473.2c-0.9-0.5-2.5,0.4-3.5,2.1s-1.1,3.6-0.2,4.1c0.9,0.5,2.5-0.4,3.5-2.1
	C326.8,475.6,326.9,473.7,326,473.2L326,473.2z"/>
<path class="st0" d="M332.2,461.5c-0.9-0.5-2.5,0.4-3.5,2.1s-1.1,3.6-0.2,4.1c0.9,0.5,2.5-0.4,3.5-2.1
	C333,463.9,333.1,462,332.2,461.5L332.2,461.5z"/>
<path class="st0" d="M328.8,452.2c-0.9-0.5-2.5,0.4-3.5,2.1s-1.1,3.6-0.2,4.1c0.9,0.5,2.5-0.4,3.5-2.1
	C329.6,454.6,329.7,452.7,328.8,452.2L328.8,452.2z"/>
<path class="st0" d="M339,471.6c-0.9-0.5-2.5,0.4-3.5,2.1s-1.1,3.6-0.2,4.1c0.9,0.5,2.5-0.4,3.5-2.1
	C339.8,474,339.9,472.2,339,471.6L339,471.6z"/>
<path class="st0" d="M327.8,484.3c-0.9-0.5-2.5,0.4-3.5,2.1s-1.1,3.6-0.2,4.1c0.9,0.5,2.5-0.4,3.5-2.1S328.8,484.9,327.8,484.3
	L327.8,484.3z"/>
<path class="st0" d="M351.3,436.4c-0.9-0.5-2.5,0.4-3.5,2.1s-1.1,3.6-0.2,4.1c0.9,0.5,2.5-0.4,3.5-2.1
	C352.1,438.8,352.2,437,351.3,436.4L351.3,436.4z"/>
<path class="st0" d="M373.5,497.1c0,0-0.8-6.6,6.5-10.6c7.2-4,15.6-6.9,22.5-10.6s14.2-15.3,15-19.4c0.1-0.5,0.1-1,0.1-1.7
	c-1.3,0-2.4,0-3.2,0c-0.5,0-1.1-0.1-1.5-0.2c-0.1,1.3-0.2,2.6-0.6,3.8c-1.2,4-3.4,5.2-11.1,10.3c-7.7,5.1-15.4,9-20.8,11.7
	s-12.2,12.6-12.2,12.6s-4.2,1.1-4.9,0.6s-0.8-4.2-1.1-8.2c-0.3-4,0-6.9,2.5-15.1s7.6-17.6,11-22.2s12.3-10.8,17.9-11.4
	c5.5-0.6,11.6,0,13.6,1.5c0.6,0.5,1.2,1,1.8,1.7c0.4-0.6,0.9-1.1,1.6-1.7c0.4-0.3,0.9-0.6,1.4-0.8c-0.9-1.1-1.8-2-2.8-2.6
	c-6.2-3.7-10.3-7.2-22.7-0.8s-19.9,16.8-23.8,27.5c-3.9,10.6-5.1,27-5.1,30.5s3.7,3.7,7.9,4.6C369.5,497.5,373.5,497.1,373.5,497.1
	L373.5,497.1z"/>
<path class="st0" d="M375,457.7c-0.9-0.3-2,0.8-2.4,2.5s-0.2,3.1,0.6,3.4s2-0.8,2.4-2.5C376.2,459.5,375.9,458,375,457.7L375,457.7z
	"/>
<path class="st0" d="M380.3,467.6c-0.9-0.3-2,0.8-2.4,2.5s-0.2,3.1,0.6,3.4s2-0.8,2.4-2.5S381.1,467.9,380.3,467.6L380.3,467.6z"/>
<path class="st0" d="M393.7,463.1c-0.9-0.3-2,0.8-2.4,2.5s-0.2,3.1,0.6,3.4s2-0.8,2.4-2.5C394.9,464.9,394.6,463.4,393.7,463.1
	L393.7,463.1z"/>
<path class="st0" d="M391.5,452c-0.9-0.3-2,0.8-2.4,2.5s-0.2,3.1,0.6,3.4s2-0.8,2.4-2.5C392.7,453.8,392.4,452.3,391.5,452
	L391.5,452z"/>
<path class="st0" d="M388.8,442.6c-0.9-0.3-2,0.8-2.4,2.5s-0.2,3.1,0.6,3.4s2-0.8,2.4-2.5C389.9,444.4,389.6,442.9,388.8,442.6
	L388.8,442.6z"/>
<path class="st0" d="M396.3,444c-0.9-0.3-2,0.8-2.4,2.5s-0.2,3.1,0.6,3.4s2-0.8,2.4-2.5C397.5,445.8,397.2,444.2,396.3,444
	L396.3,444z"/>
<path class="st0" d="M401,455.1c-0.9-0.3-2,0.8-2.4,2.5s-0.2,3.1,0.6,3.4s2-0.8,2.4-2.5C402.1,456.9,401.8,455.4,401,455.1
	L401,455.1z"/>
<path class="st0" d="M407.6,448.8c0,0,2.2,5.9,6.8,5.9s20.1,0.6,27.3-2.6s18.7-12.2,20.2-17.3c1.5-5.1,2-17-0.6-20.5l-0.1-0.1
	c-1.5,0.6-3,0.1-4.8-0.4c0,0-2.8-1-4-2c-1.2-0.9-1.3-2.4-1.9-4.1c0-0.2-0.1-0.4-0.1-0.6c-1.4,0-3,0.4-4.6,1.2
	c-4.1,2.2-6.8,5.1-9.3,8.3c0.1,0.6,0.2,0.9,0.2,0.9s0.2,0.8-0.3,1.7s-2.1,3.3-3.6,4.6c-1.1,1-2,1.6-3.2,1.8c-4,5.4-4.4,9-8,10
	c-3.9,1.1-8.3,0.1-11.3,2.5c-2.9,2.3-2.9,5.1-2.9,6.9S407.6,448.8,407.6,448.8L407.6,448.8z M411.3,448.6c0,0,14.5,1.9,20.5,0.6
	s17.1-5.7,21.1-10.6c4-4.9,6.8-10.2,6.6-14.2c-0.1-4-0.1-6.5-3.4-8.3c-3.2-1.9-6.8-2.8-10-0.1c-3.2,2.6-8.8,6.8-13.9,12.8
	c-5.1,6-8,11.4-11.7,12.5c-3.7,1.1-9.1,0.8-9.7,2.3s-0.1,3.7-0.1,3.7S411.4,448.6,411.3,448.6L411.3,448.6z"/>
<path class="st0" d="M439.8,427.8c-0.9-0.3-2,0.8-2.4,2.5s-0.2,3.1,0.6,3.4s2-0.8,2.4-2.5C441,429.6,440.7,428,439.8,427.8
	L439.8,427.8z"/>
<path class="st0" d="M446.9,420.2c-0.9-0.3-2,0.8-2.4,2.5s-0.2,3.1,0.6,3.4s2-0.8,2.4-2.5C448.1,422,447.8,420.5,446.9,420.2
	L446.9,420.2z"/>
<path class="st0" d="M447.4,433.8c-0.9-0.3-2,0.8-2.4,2.5s-0.2,3.1,0.6,3.4s2-0.8,2.4-2.5C448.5,435.6,448.2,434.1,447.4,433.8
	L447.4,433.8z"/>
<path class="st0" d="M455.1,421.1c-0.9-0.3-2,0.8-2.4,2.5s-0.2,3.1,0.6,3.4s2-0.8,2.4-2.5C456.3,422.9,456,421.4,455.1,421.1
	L455.1,421.1z"/>
<path class="st0" d="M456.4,413.7c2.1,0.6,3.8,1.2,5.6,0s5.5-4.8,5.7-6.7c0.3-1.9-3-5.5-3.2-6s-0.7-1.9,0.6-3.3
	c1.3-1.5,1-2.2,2.1-2.2s3,0.2,3.5-1.4c0.5-1.6,0.9-3.1-1.6-3.4c-2.4-0.3-3.2-0.5-4.5-2.1s-2-2.5-3.2-1.9c-1.2,0.6-1.3,1.3-0.4,2.8
	s1.8,3.2,1.1,4.2c-0.7,1-1.1,2.6-2.4,2.5c-1.3-0.1-3-1.7-4.6-1.6c-1.6,0.1-4.8,1.4-4.6,4.5c0.1,3.2-0.5,6.6,0.1,8.3
	c0.5,1.7,0.6,3.2,1.9,4.1C453.6,412.7,456.4,413.7,456.4,413.7L456.4,413.7z M457.5,410.7c0,0,1.4,0.7,2.9-0.5s3.3-2.6,3.6-3.4
	c0.3-0.7-1.4-2.1-2.1-2.9c-0.7-0.8-2.8-2.6-4.4-2.6c-1.6,0-2.8,0.4-2.8,1.4c0,1,0.2,4.1,0.2,5c0,0.8,1,2.2,1.5,2.4
	C456.8,410.2,457.5,410.7,457.5,410.7L457.5,410.7z"/>
<path class="st0" d="M436.7,417.5c0,0-1.1-4.9-2-6.7s-1.1-2.7-2.7-2.4s-3.2,2-3.2,2s-3.7,0.9-4.5,0.3c-0.8-0.6-1.4-1.4-1.2-2
	s0.3-2.1,0-3.1c-0.2-1-1.2-1.8-1.7-1.3c-0.5,0.5-2.1,2.6-3.3,3.3c-1.2,0.7-2,1.2-1.1,2s1.7,1.1,3.1,1.8s1.9,0.8,2,1.5
	c0.1,0.7,0.6,2.2-0.2,2.9c-0.8,0.7-2.3,2-2,4c0.3,2,0.2,5.5,2.7,5.8c2.5,0.2,4,0.3,5.8,0.2c1.8-0.1,2.9-0.7,4.3-2s3-3.7,3.6-4.6
	C436.9,418.3,436.7,417.5,436.7,417.5L436.7,417.5z M433,421.6c0,0,0.3-2.6-0.1-3.7s-1.7-3.8-2-4.2c-0.3-0.4-1.2-1.2-2.1-0.3
	c-1,0.9-2.1,2.9-3,3.9c-0.9,0.9-1.8,1.8-0.8,2.6c1,0.8,2.2,1.3,3.4,1.7s2,0.3,2.9,0.4C432.1,422,433,421.6,433,421.6L433,421.6z"/>
<path class="st0" d="M212.6,535.4l-3.7,0.1c0,0-8.2,6.2-9,7.7c-0.9,1.5-1.1,2.3-2.6,1.5s-1.3-1.4-2.8-0.5c-1.5,0.9-2.5,2.1-4.6,2.3
	s-3,0.5-3,0.5s-0.6,1.5-1.4,2.6s-2.6,0.9-3.3-0.2c-0.6-1.1-1-1.6-1-1.6s-5.1-0.4-8,0.1c-2.9,0.5-1.8,1.3-3.8,0.9
	c-2-0.4-2.4-1-3.3-2.1c-0.9-1.1-7.5-4-8.7-5.7s-8.7-12-9-14.9c-0.4-2.9-0.6-12.5,0.9-17.2c1.5-4.6,4.6-8.8,8.9-11
	c4.3-2.3,12.6-4.6,19.8-3.5c7.3,1.1,13.4,3.8,16.9,5.8c2.7,1.5,4.6,2.2,5.3,2.4c0.2,2,0.6,4,1.1,5.9c-1.5-0.9-4.9-2.9-10.3-5.3
	c-7.5-3.4-9.5-2.9-17.9-3c-8.4-0.1-11.7,1.8-16.1,5.4c-4.4,3.6-5.3,9.7-4,19.3c1.3,9.7,7.7,11.9,14.3,16.3s20.8,0.9,26.2-1.3
	c5.4-2.1,13.8-9.4,13.8-9.4l0.9-3.3C209.8,530.1,211.4,533,212.6,535.4L212.6,535.4z"/>
<path class="st0" d="M195,518.2c2,0,3.6,1.2,3.6,2.6s-1.6,2.6-3.6,2.6s-3.6-1.2-3.6-2.6S193,518.2,195,518.2L195,518.2z"/>
<path class="st0" d="M178.3,518.9c2,0,3.6,1.2,3.6,2.6s-1.6,2.6-3.6,2.6s-3.6-1.2-3.6-2.6C174.7,520.1,176.3,518.9,178.3,518.9
	L178.3,518.9z"/>
<path class="st0" d="M165.3,507.9c2,0,3.6,1.1,3.6,2.6s-1.6,2.6-3.6,2.6s-3.6-1.1-3.6-2.6C161.6,509,163.3,507.9,165.3,507.9
	L165.3,507.9z"/>
<path class="st0" d="M166.1,525.5c2,0,3.6,1.2,3.6,2.6s-1.6,2.6-3.6,2.6s-3.6-1.2-3.6-2.6S164.1,525.5,166.1,525.5L166.1,525.5z"/>
<path class="st0" d="M181.6,531.6c2,0,3.6,1.2,3.6,2.6s-1.6,2.6-3.6,2.6s-3.6-1.2-3.6-2.6C177.9,532.8,179.6,531.6,181.6,531.6
	L181.6,531.6z"/>
<path class="st0" d="M150.6,505.5c-0.9-0.5-1.8-1-2.8-1.6c-5.4-3-9.5-9.9-12.7-14s-6.9-10.8-13.6-10.8s-14,0.6-14,0.6
	s0-10.6-1.7-17.5c-1.7-6.9-6.1-24.8-10.4-30.9c-4.3-6-11.4-16.6-16.4-17.1s-14.5-0.2-16.8,8.4c-2.4,8.6-3.2,21.8,1.7,29.2
	s11.2,16.6,16.4,20.5c5.2,3.9,9.3,11.2,9.3,11.2s-8,2.6-9.5,7.6s-3.2,17.3,0.4,22.2c3.7,5,9.7,14,20.5,16.8s22.7,2.8,27.9,1.1
	c5.2-1.7,7.1-4.5,11.4-4.8c3.1-0.2,6.2,0.2,8.4,0.5c-0.2-0.4-0.3-0.8-0.3-1.1c-0.1-0.6-0.1-1.5-0.2-2.5c-0.9,0.1-1.9,0.1-2.9,0.1
	c-4.8,0-10.1,1.9-23.5,3.7s-21.6-0.9-29.4-5.6c-7.8-4.8-8.9-9.3-9.3-19.9c-0.4-10.6,11.9-14.7,11.9-16c0-1.3-1.5-7.3-7.1-12.5
	c-5.6-5.2-13.6-14.9-19-23.3c-5.4-8.4-4.3-15.8-4.1-21.4c0.2-5.6,6.5-8.6,10.4-9.3s9.5,5,12.5,8.6c3,3.7,9.9,23.1,12.7,32.4
	c2.8,9.3,3.9,28.7,3.9,28.7s4.1-3.9,10.8-5.2c6.7-1.3,10.2,2.4,13.8,6c3.7,3.7,11.4,15.3,13.4,17.5c1,1.1,3.9,2.3,6.5,3.3
	c0.1-0.7,0.3-1.3,0.5-1.9C149.6,507.6,150.1,506.5,150.6,505.5L150.6,505.5z"/>
<path class="st0" d="M136.3,508.8c1.6,1.1,2.3,3,1.5,4.2c-0.8,1.2-2.8,1.2-4.5,0c-1.6-1.1-2.3-3-1.5-4.2
	C132.6,507.6,134.6,507.6,136.3,508.8L136.3,508.8z"/>
<path class="st0" d="M119.9,514.8c1.7,1.2,2.3,3,1.5,4.2c-0.8,1.2-2.8,1.2-4.5,0c-1.7-1.2-2.3-3-1.5-4.2
	C116.2,513.7,118.2,513.7,119.9,514.8L119.9,514.8z"/>
<path class="st0" d="M106.9,511.4c1.7,1.2,2.3,3,1.5,4.2c-0.8,1.2-2.8,1.2-4.5,0c-1.7-1.2-2.3-3-1.5-4.2
	C103.3,510.2,105.3,510.2,106.9,511.4L106.9,511.4z"/>
<path class="st0" d="M109.7,497.6c1.7,1.1,2.3,3,1.5,4.2c-0.8,1.2-2.8,1.2-4.5,0s-2.3-3-1.5-4.2
	C106.1,496.4,108.1,496.4,109.7,497.6L109.7,497.6z"/>
<path class="st0" d="M120.5,489.1c1.7,1.1,2.3,3,1.5,4.2c-0.8,1.2-2.8,1.2-4.5,0s-2.3-3-1.5-4.2S118.9,488,120.5,489.1L120.5,489.1z
	"/>
<path class="st0" d="M94.8,507.5c1.7,1.1,2.3,3,1.5,4.2c-0.8,1.2-2.8,1.2-4.5,0s-2.3-3-1.5-4.2C91.2,506.4,93.2,506.3,94.8,507.5
	L94.8,507.5z"/>
<path class="st0" d="M89.3,460.8c1.2,0.8,1.6,2.1,1.1,2.9c-0.6,0.8-2,0.8-3.1,0c-1.2-0.8-1.6-2.1-1.1-2.9
	C86.7,460,88.1,460,89.3,460.8L89.3,460.8z"/>
<path class="st0" d="M86.7,447.4c1.2,0.8,1.6,2.1,1.1,2.9c-0.6,0.8-2,0.8-3.1,0c-1.2-0.8-1.6-2.1-1.1-2.9
	C84.1,446.6,85.5,446.6,86.7,447.4L86.7,447.4z"/>
<path class="st0" d="M76.7,449.8c1.2,0.8,1.6,2.1,1.1,2.9c-0.6,0.8-2,0.8-3.1,0c-1.2-0.8-1.6-2.1-1.1-2.9
	C74.2,449,75.6,449,76.7,449.8L76.7,449.8z"/>
<path class="st0" d="M80.8,428c1.2,0.8,1.6,2.1,1.1,2.9c-0.6,0.8-2,0.8-3.1,0c-1.2-0.8-1.6-2.1-1.1-2.9
	C78.3,427.2,79.7,427.2,80.8,428L80.8,428z"/>
<path class="st0" d="M73.3,432.7c1.2,0.8,1.6,2.1,1.1,2.9c-0.6,0.8-2,0.8-3.1,0c-1.2-0.8-1.6-2.1-1.1-2.9
	C70.7,431.9,72.1,431.9,73.3,432.7L73.3,432.7z"/>
<path class="st0" d="M97.1,461.2c1.2,0.8,1.6,2.1,1.1,2.9c-0.6,0.8-2,0.8-3.1,0c-1.2-0.8-1.6-2.1-1.1-2.9
	C94.5,460.4,95.9,460.4,97.1,461.2L97.1,461.2z"/>
<path class="st0" d="M74.2,540.3c0,0,0.8-3,0.4-4c-0.4-1-0.4-1-0.4-1s1.7-2.1,2.3-2.5c0.6-0.5,1.2-0.6,1.2-0.6s1.1,1,2.5,1.6
	c1.4,0.7,2.4,1,3.6-0.2c1.2-1.2,2.7-4.3,3.4-6.8c0.5-1.9,0.9-3.2,1.1-4.1c-3.4-3.3-5.9-6.9-7.7-9.4c-0.2-0.2-0.3-0.4-0.4-0.7
	c-0.9,0.6-2.4,1.6-3.4,2.5c-1.5,1.4-5.9,5-5.8,7.1s1.7,4,2.5,4.8c0.7,0.8,0.8,1.1,0.8,1.1l-2.5,3.4c0,0,0.1,0.3-0.8-0.3
	c-0.9-0.6-3.1,0-2.8,1.3c0.3,1.3,1.3,4.8,2.3,5.6C71.3,539.2,74.2,540.3,74.2,540.3L74.2,540.3z M83.8,526.9c0,0,0.5-3.9,0.4-5.2
	c-0.1-1.3,0.2-1.8-0.3-2.5c-0.5-0.7-2.6-1.7-3.6-1.6c-1,0.1-3.1,0.4-3.6,2.3s-1.3,2.6,0.2,3.8c1.5,1.1,2.2,1.7,3.6,2.6
	C81.9,527,83.8,526.9,83.8,526.9L83.8,526.9z"/>
<path class="st0" d="M72.1,414.4c0.1-1,0.1-2.2,0-3.5c-0.4-4.1-0.3-7.3-0.7-7.7c-0.4-0.4-8-0.1-8.3-0.2s-1.1-2-0.8-3.1
	s1-1.8,1.5-2.5c0.4-0.7,0.2-1.9,0.2-1.9s-0.5-1-2.7-1c-2.2,0-4,2.2-5.1,3.9c-1,1.7-2,3.2-0.1,3.7c1.9,0.5,2.1-0.8,2.9,0.8
	c0.8,1.6,1.2,2.2,0.3,3c-0.8,0.8-4.4,3.5-4.1,6.3c0.3,2.8,2.4,5.5,4,6.9c1.2,1.1,2,2.3,3.2,2.7c0.6-1.9,1.6-3.3,2.8-4.4
	c-0.8-0.5-1.4-1.4-2.7-2.3c-1.5-1.2-1.7-2.1-1.2-3.3c0.5-1.2,3.7-3.4,4.6-3.5c0.9-0.1,1.3,0.1,2.1,1c0.7,0.8,0.8,4.2,0.6,6.1
	C69.6,415,70.9,414.6,72.1,414.4L72.1,414.4z"/>
<path class="st0" d="M304.2,480.3c-3-2-11-7.6-13.6-9.8c-3.1-2.7-6-5.7-8.9-6.1c-2.9-0.5-3.8-1.4-8.5,2.5s-8.9,6.1-13.7,4.8
	c-4.8-1.4-21.9-5.1-29.3-15.2c-7.4-10-14.7-20.6-16.4-22.1s-6.3-2.5-9.9-2.7c-3.6-0.1-6.8,1.2-8.4,2.1s-1.1,1.5-4.5,0.9
	s-5.1-0.6-8.9,5.4s-5.1,8.2-5.1,8.2l2.4,4.5l1.5,2.5c0,0,1.6-4.8,3.4-9.3s4.6-6.6,4.6-6.6s6,1,7.5,0.1s2.4-2,2.4-2s11.1-1.8,12,0
	s9.3,13.2,12.9,17.4c3.6,4.2,16.5,14.3,23,17.7c6.4,3.5,15.3,4.6,21.5,2.2s6.9-4.5,10.4-4.4s2.1-1.6,5.4,1c3.3,2.7,10.2,8.9,14.1,11
	c2.6,1.4,4.4,2,5.2,2.3C303.7,483.6,303.9,482,304.2,480.3L304.2,480.3z"/>
<path class="st0" d="M258.8,516.9c-2-4.2-7.6-15-12.6-19.5c-6.1-5.6-23.3-19.9-31.4-25.5s-19.1-16.8-20.4-17.3
	c-1.3-0.5-5.4,0.7-8.7,0s-3.4-0.7-3.4-0.7s-5.2-9-8.5-13c-3.2-4-2.9-6.5-6.5-9.6c-3.6-3.1-8.5-5.1-8.5-6.9s-0.5-4.7-1.8-5.6
	c-1.3-0.9-4.7-3.8-7.8-1.3s-2.7,4.3-2.7,4.3s-1.4-1.5-2.7,2.4c-1.3,3.8-1.3,3.8-1.3,3.8L141,429c0,0-5.8,2.7-9,6.9
	s-8.3,10.7-14.4,16.1c-5,4.4-9.9,7.9-11.9,9.9l0.1,0.4c0.5,2,0.8,4.3,1.1,6.5c2.1-2.2,6.1-6.2,8.9-8.5c4.2-3.2,17.2-17.9,23.5-22.9
	c6.3-5.1,7.6-7,7.9-9c0.4-2,1.6-4,3.1-5.1c1.4-1.1,1.4-2.4,1.4-2.4s3.4,0.5,4.3,3.6c0.9,3.1,2.4,5.4,2.4,5.4s5.4,2.2,7.6,5.2
	c2.2,3.1,12.1,19,13.7,21.3c1.6,2.4,8.1,1.6,10.7,2.4s8.1,4.2,13.6,9.6c2.9,2.9,8.8,7.5,14.7,12.2c5,1.2,9.6,3.9,10.2,8.2
	c1.3,1.1,2.4,2,3.4,3c7.2,6.5,13.4,11.2,15.7,15.9c1.7,3.4,2.9,5.6,3.8,7.5c1.3,1.2,2.6,2.5,3.9,4
	C256.5,518.3,257.5,517.5,258.8,516.9L258.8,516.9z"/>
<path class="st0" d="M131.4,436.6c-1.5-2.2-3.7-5.7-4.1-7.5c-0.5-2.7-2.8-5-4.5-6.7c-1.7-1.7-3.6-5-3.6-5s-3.2,0.9-4.4,4
	c-1.2,3.1-0.7,4.7-1.3,4.9c-0.7,0.3-2.8,0.5-3.1-0.3s-0.9-2.9-0.9-2.9s-0.7-1-4.5,4.1c-2.7,3.5-5,8.2-6.2,10.9
	c0.6,1.5,1.1,3.1,1.7,4.7c0.3-0.6,0.7-1.3,0.9-2.1c0.8-2.5,5.7-10.6,7.1-10.8c1.4-0.1,1,0.5,2.6,0.9c1.6,0.4,5.6-2.1,6.1-4.4
	c0.5-2.3,0.8-3.6,0.8-3.6s0.9,0,1.7,1.5c0.8,1.5,2.8,1.7,3,3.6c0.1,1.9,0.4,3.8,1.8,6.1s3.9,5,4.5,5.3c0.1,0,0.1,0,0.2,0
	C129.9,438.5,130.7,437.5,131.4,436.6L131.4,436.6z"/>
<path class="st0" d="M78.2,405.4c0,0,1.4-3.2,2.3-3.5s2.7,0.4,3.5-1.5s-0.4-5,1.3-5.4s5.7-0.6,7-3c1.3-2.3,1.4-5.4,0.3-5
	c-1.2,0.4-2.3,1.9-4,3.4c-1.7,1.4-2.8,1-5.1,0.9c-2.2-0.1-4.1-1.5-5.4,1.9c-1.3,3.5-2.1,5.2-2.1,6.7
	C75.9,401.4,78.2,405.4,78.2,405.4L78.2,405.4z"/>
<path class="st0" d="M119.2,417.4c0.2-1.8,0.3-5-1.2-8.4c-2.3-5.2-4.1-5.6-2.6-7.2s3.8-3,4.1-1.2c0.4,1.8,0.4,4.5,0.5,5.3
	s1.3,1.4,2.3,0.8c1-0.6,2.6-6.2,1-8.2c-1.6-1.9-1.6-3.1-5.8-2.6c-4.3,0.5-7.9,4.7-8.3,5.3s-4.4,1.3-6.3,1.8
	c-1.9,0.5-3.5,1.4-3.4-0.5s0-2.1,0.4-3.6c0.4-1.5,0.7-3.6-1.3-4c-1.9-0.4-4.1,1.2-5.2,2.6c-1,1.4-9.1,2.5-10.5,7
	c-1.4,4.4-2.4,8.8-2,10.4c2.4,1.3,5.1,4.2,7.7,7.4c0.1,0,0.3,0,0.4-0.1c4.3-1.2,8.2-3.4,11.9-3.9c3.8-0.5,7.6-3.8,7.6-0.8
	c0,2.2,0.3,4.3,0.4,5.5c0.3-0.1,0.3,0.1,0.3,0.1s0.7,2.1,0.9,2.9c0.1,0.4,0.9,0.5,1.6,0.5c0.2-1.9,0.7-5.8,0.5-7.6
	c-0.3-2.6-0.9-5.8-4.5-5.7c-3.6,0.1-8.7,1.4-11.5,3c-2.8,1.5-7.1,4-9.2,2.3c-2.1-1.7-4.4-5.7-2.3-8.4s1.6-3.2,4.1-4.1
	c2.6-0.9,3-1.3,4.3-2.3c1.3-1,2.2-1.3,0.3,2.3c-1.9,3.6-3.8,5.2-2.2,7.4c1.6,2.2,1.7,3,3.9-0.4s5.3-5.6,8.6-6.6
	c3.2-1,9.6-1.7,10.6,4c1,5.7,0.7,6,1.8,8.5c0,0.1,0.1,0.1,0.1,0.2c1.3-1.3,2.9-1.7,2.9-1.7L119.2,417.4L119.2,417.4z"/>
<path class="st0" d="M290,481.9c1.1-0.5,3.2,2,4.6,5.5c1.5,3.5,1.8,6.7,0.7,7.2s-3.2-2-4.6-5.5C289.2,485.5,288.9,482.3,290,481.9
	L290,481.9z"/>
<path class="st0" d="M285.5,491.7c1.1-0.5,3.2,2,4.6,5.5c1.5,3.5,1.8,6.7,0.7,7.2s-3.2-2-4.6-5.5
	C284.8,495.4,284.4,492.1,285.5,491.7L285.5,491.7z"/>
<path class="st0" d="M279.2,496.5c0.6-0.3,1.9,1.2,2.8,3.3c0.9,2.1,1.1,4,0.4,4.3c-0.6,0.3-1.9-1.2-2.8-3.3
	C278.8,498.6,278.6,496.7,279.2,496.5L279.2,496.5z"/>
<path class="st0" d="M278.6,476.8c0.6-0.3,1.9,1.2,2.8,3.3c0.9,2.1,1.1,4,0.4,4.3c-0.6,0.3-1.9-1.2-2.8-3.3
	C278.2,479,278,477,278.6,476.8L278.6,476.8z"/>
<path class="st0" d="M272.2,479.4c0.8-0.4,2.4,1.5,3.5,4.1s1.4,5,0.5,5.4c-0.8,0.4-2.4-1.5-3.5-4.1
	C271.7,482.1,271.4,479.7,272.2,479.4L272.2,479.4z"/>
<path class="st0" d="M263.1,481.8c0.8-0.4,2.4,1.5,3.5,4.1s1.4,5,0.5,5.4c-0.8,0.4-2.4-1.5-3.5-4.1
	C262.6,484.5,262.3,482.1,263.1,481.8L263.1,481.8z"/>
<path class="st0" d="M254.6,483.1c1-0.4,3,1.9,4.4,5.2s1.7,6.3,0.7,6.7s-3-1.9-4.4-5.2C253.8,486.5,253.5,483.5,254.6,483.1
	L254.6,483.1z"/>
<path class="st0" d="M247.5,489.7c0.7-0.3,2.1,1.3,3.1,3.7s1.2,4.5,0.5,4.8c-0.7,0.3-2.1-1.3-3.1-3.7
	C247,492.1,246.8,490,247.5,489.7L247.5,489.7z"/>
<path class="st0" d="M227.1,473.7c0.7-0.3,2.1,1.3,3.1,3.7s1.2,4.5,0.5,4.8c-0.7,0.3-2.1-1.3-3.1-3.7
	C226.6,476.2,226.4,474,227.1,473.7L227.1,473.7z"/>
<path class="st0" d="M233.8,472c0.7-0.3,2.1,1.3,3.1,3.7s1.2,4.5,0.5,4.8c-0.7,0.3-2.1-1.3-3.1-3.7C233.2,474.5,233,472.4,233.8,472
	L233.8,472z"/>
<path class="st0" d="M241.4,470.6c0.7-0.3,2.1,1.3,3.1,3.7s1.2,4.5,0.5,4.8c-0.7,0.3-2.1-1.3-3.1-3.7
	C240.9,473,240.6,470.9,241.4,470.6L241.4,470.6z"/>
<path class="st0" d="M215.6,452.9c0.7-0.3,2.1,1.3,3.1,3.7s1.2,4.5,0.5,4.8c-0.7,0.3-2.1-1.3-3.1-3.7
	C215.1,455.4,214.8,453.2,215.6,452.9L215.6,452.9z"/>
<path class="st0" d="M208.8,452.7c0.8-0.2,1.8,1.7,2.3,4.2s0.3,4.6-0.5,4.8c-0.8,0.2-1.8-1.7-2.3-4.2
	C207.8,455,208,452.8,208.8,452.7L208.8,452.7z"/>
<path class="st0" d="M199.4,448.8c1.1-0.2,2.5,2.4,3.1,5.8c0.7,3.4,0.4,6.3-0.7,6.5c-0.1,0-0.1,0-0.2,0c-0.4-0.4-0.9-0.8-1.3-1.2
	c-0.6-1-1.3-2.7-1.6-4.6C198,452,198.3,449,199.4,448.8L199.4,448.8z"/>
<path class="st0" d="M191.2,447.7c1.1-0.2,2.5,2.4,3.1,5.8c0.1,0.5,0.2,0.9,0.2,1.3c-0.1-0.1-0.2-0.1-0.3-0.2
	c-0.6-0.3-2-0.1-3.7,0.1c0-0.2-0.1-0.3-0.1-0.5C189.9,450.8,190.2,447.9,191.2,447.7L191.2,447.7z"/>
<path class="st0" d="M155.7,468.3c1.2,0,2.2,2.9,2.2,6.4s-1,6.4-2.2,6.4s-2.2-2.9-2.2-6.4C153.5,471.2,154.5,468.3,155.7,468.3
	L155.7,468.3z"/>
<path class="st0" d="M157,448.4c1.2,0,2.2,2.9,2.2,6.4s-1,6.4-2.2,6.4s-2.2-2.9-2.2-6.4C154.8,451.3,155.8,448.4,157,448.4
	L157,448.4z"/>
<path class="st0" d="M160.6,487.4c1.2,0,2.2,2.9,2.2,6.4c0,0.7,0,1.4-0.1,2c-1.5,0.5-2.8,1-4,1.6c-0.2-1-0.4-2.3-0.4-3.6
	C158.3,490.3,159.3,487.4,160.6,487.4L160.6,487.4z"/>
<path class="st0" d="M174.1,487.6c1.2,0,2.2,2.9,2.2,6.4l0,0c-1.5-0.1-3-0.1-4.5,0C171.9,490.5,172.9,487.6,174.1,487.6L174.1,487.6
	z"/>
<path class="st0" d="M149.2,485.7c1.2,0.2,1.7,3.2,1.1,6.7s-2.1,6.1-3.3,6c-1.2-0.2-1.7-3.2-1.1-6.7
	C146.5,488.2,147.9,485.5,149.2,485.7L149.2,485.7z"/>
<path class="st0" d="M137.6,482.4c1.2,0.2,1.7,3.2,1.1,6.7c-0.3,1.6-0.7,3-1.2,4.1c-0.9-1.2-1.7-2.3-2.4-3.3c-0.3-0.3-0.5-0.7-0.8-1
	c0-0.2,0.1-0.3,0.1-0.5C135,484.9,136.4,482.2,137.6,482.4L137.6,482.4z"/>
<path class="st0" d="M128.4,476.8c1.1,0.2,1.7,2.9,1.2,6.1c-1.1-1.1-2.4-2.2-3.8-2.9C126.5,478,127.5,476.7,128.4,476.8L128.4,476.8
	z"/>
<path class="st0" d="M118.7,470.9c1.1,0.5,1,3.5-0.3,6.8c-0.2,0.5-0.4,1-0.6,1.4c-1.6,0-3.1,0.1-4.5,0.2c0.2-1,0.5-2.1,1-3.2
	C115.6,472.8,117.6,470.5,118.7,470.9L118.7,470.9z"/>
<path class="st0" d="M131.2,461.7c0.8,0.5,0.3,2.7-1.1,5c-1.4,2.3-3.1,3.7-3.9,3.2c-0.8-0.5-0.3-2.7,1.1-5
	C128.7,462.7,130.4,461.3,131.2,461.7L131.2,461.7z"/>
<path class="st0" d="M124,455.8c0.8,0.5,0.3,2.7-1.1,5c-1.4,2.3-3.1,3.7-3.9,3.2c-0.8-0.5-0.3-2.7,1.1-5
	C121.4,456.8,123.2,455.3,124,455.8L124,455.8z"/>
<path class="st0" d="M138.8,464.5c0.8,0.4,0.6,2.6-0.4,5c-1.1,2.4-2.6,4.1-3.5,3.7c-0.8-0.4-0.6-2.6,0.4-5
	C136.4,465.8,137.9,464.1,138.8,464.5L138.8,464.5z"/>
<path class="st0" d="M147,468c0.9,0.3,0.9,2.6,0.1,5.1s-2.2,4.3-3.1,4c-0.9-0.3-0.9-2.6-0.1-5.1C144.8,469.5,146.1,467.7,147,468
	L147,468z"/>
<path class="st0" d="M165.8,471c1,0,1.8,2.3,1.8,5.1c0,2.8-0.8,5.1-1.8,5.1s-1.8-2.3-1.8-5.1C164.1,473.2,164.9,471,165.8,471
	L165.8,471z"/>
<path class="st0" d="M174.5,469.1c1.1-0.2,2.6,2.1,3.3,5.4c0.7,3.2,0.4,6-0.7,6.2c-1.1,0.2-2.6-2.1-3.3-5.4
	C173.1,472.1,173.4,469.3,174.5,469.1L174.5,469.1z"/>
<path class="st0" d="M183.1,469c1.1-0.4,2.9,1.7,4.2,4.7c1.2,3,1.4,5.9,0.4,6.3c-1.1,0.4-2.9-1.7-4.2-4.7S182.1,469.5,183.1,469
	L183.1,469z"/>
<path class="st0" d="M193.3,467.1c1.1-0.6,3.5,1.5,5.3,4.7s2.4,6.3,1.3,7c-1.1,0.6-3.5-1.5-5.3-4.7
	C192.7,470.9,192.2,467.8,193.3,467.1L193.3,467.1z"/>
<path class="st0" d="M194.6,483.3c1.1-0.6,3.5,1.5,5.3,4.7c0.7,1.2,1.2,2.4,1.5,3.4c-0.6,1.1-0.9,2.3-1.1,3.6
	c-1.2-0.4-3-2.2-4.4-4.7C194,487,193.5,483.9,194.6,483.3L194.6,483.3z"/>
<path class="st0" d="M184,486c1.1-0.2,2.6,2.1,3.3,5.4c0.5,2.2,0.5,4.2,0.1,5.3c-0.9-0.3-1.9-0.6-2.9-0.9c-0.5-0.9-0.9-2.1-1.2-3.5
	C182.6,489,182.9,486.2,184,486L184,486z"/>
<path class="st0" d="M171.9,450.1c1.1-0.2,2.6,2.1,3.3,5.4c0.7,3.2,0.4,6-0.7,6.2c-1.1,0.2-2.6-2.1-3.3-5.4
	C170.5,453.2,170.8,450.4,171.9,450.1L171.9,450.1z"/>
<path class="st0" d="M165,450.4c1.1,0,2.1,2.6,2,5.9c0,3.3-0.9,5.9-2.1,5.9s-2.1-2.6-2-5.9C162.9,453,163.9,450.4,165,450.4
	L165,450.4z"/>
<path class="st0" d="M151.3,447.8c1.1,0.5,0.8,3.4-0.6,6.5c-1.4,3.1-3.4,5.2-4.5,4.7s-0.8-3.4,0.6-6.5
	C148.3,449.4,150.3,447.3,151.3,447.8L151.3,447.8z"/>
<path class="st0" d="M143.1,446.3c0.8,0.5,0.3,2.7-1.1,5c-1.4,2.3-3.1,3.7-3.9,3.2c-0.8-0.5-0.3-2.7,1.1-5
	C140.6,447.3,142.3,445.9,143.1,446.3L143.1,446.3z"/>
<path class="st0" d="M137.1,443.4c0.8,0.5,0.3,2.7-1.1,5c-1.4,2.3-3.1,3.7-3.9,3.2c-0.8-0.5-0.3-2.7,1.1-5
	C134.6,444.3,136.4,442.9,137.1,443.4L137.1,443.4z"/>
<path class="st0" d="M113.3,434.9c1,0,1.8,2.3,1.8,5.1s-0.8,5.1-1.8,5.1c-1,0-1.8-2.3-1.8-5.1S112.3,434.9,113.3,434.9L113.3,434.9z
	"/>
<path class="st0" d="M109.4,434.8c0.8,0.4,0.6,2.6-0.4,5c-1.1,2.4-2.6,4.1-3.5,3.7c-0.8-0.4-0.6-2.6,0.4-5
	C107,436,108.6,434.4,109.4,434.8L109.4,434.8z"/>
<path class="st0" d="M119.4,433.4c1.1-0.2,2.6,2.1,3.3,5.4c0.7,3.2,0.4,6-0.7,6.2c-1.1,0.2-2.6-2.1-3.3-5.4
	C117.9,436.5,118.3,433.6,119.4,433.4L119.4,433.4z"/>
<path class="st1" d="M63,119.2L37.6,78.6l5.4-3.4l25.4,40.7L63,119.2L63,119.2z M78.6,107.8L59.8,63.7l6-2.5l37.9,24.8L89,51.3
	l5.6-2.4L113.3,93l-6,2.5L69.4,70.7l14.7,34.7L78.6,107.8L78.6,107.8z M142,64.8l-1.4-5.5l19.7-5l4.3,17.3c-2.4,3.2-5.1,5.8-8,7.8
	s-6.1,3.4-9.4,4.3c-4.6,1.1-9,1.2-13.2,0.2c-4.2-1-7.8-3.2-10.6-6.4c-2.8-3.2-4.8-7.1-6-11.7c-1.1-4.5-1.2-9-0.3-13.4
	c0.9-4.4,2.9-8,6-10.8c3.1-2.8,6.9-4.8,11.6-5.9c3.4-0.8,6.5-1,9.5-0.6s5.5,1.4,7.5,3c2,1.6,3.8,3.8,5.4,6.7l-5.2,2.9
	c-1.3-2.2-2.6-3.8-4-4.9c-1.4-1.1-3.1-1.8-5.3-2.1c-2.1-0.3-4.4-0.2-6.7,0.4c-2.8,0.7-5.1,1.7-7,3.1c-1.8,1.4-3.2,2.9-4.1,4.6
	c-0.9,1.7-1.5,3.5-1.8,5.3c-0.5,3.2-0.3,6.4,0.6,9.8c1,4.2,2.6,7.4,4.7,9.9c2.1,2.4,4.7,4,7.8,4.7c3.1,0.7,6.1,0.6,9.2-0.1
	c2.7-0.7,5.1-1.8,7.4-3.5c2.3-1.7,3.9-3.2,5-4.7l-2.2-8.7L142,64.8L142,64.8z M177.4,75.7l-5.8-47.6l34.4-4.2l0.7,5.6l-28.1,3.5
	l1.8,14.6l26.3-3.2l0.7,5.6L181,53.1l2,16.2l29.2-3.6l0.7,5.6L177.4,75.7L177.4,75.7z M222.8,70.3v-48h6.5L254.5,60V22.3h6.1v48
	h-6.5l-25.2-37.7v37.7L222.8,70.3L222.8,70.3z M273.9,70.7l3.4-47.8l6.3,0.4l-3.4,47.8L273.9,70.7L273.9,70.7z M293.1,72.3l6.7-47.5
	l34.3,4.8l-0.8,5.6l-28-3.9l-2,14.5l26.3,3.7l-0.8,5.6l-26.3-3.7l-2.3,16.2l29.2,4.1l-0.8,5.6L293.1,72.3L293.1,72.3z M338.5,79.7
	L351,33.4l20.5,5.5c4.1,1.1,7.2,2.4,9.1,3.8c1.9,1.4,3.2,3.3,4,5.8c0.7,2.5,0.7,5,0,7.5c-0.9,3.3-2.7,5.8-5.4,7.5
	c-2.7,1.7-6.4,2.2-11,1.7c1.4,1.2,2.4,2.3,3.1,3.3c1.4,2.1,2.5,4.6,3.4,7.5l4.7,14.8l-7.7-2.1l-3.5-11.3c-1-3.2-2-5.8-2.7-7.6
	c-0.8-1.8-1.5-3.1-2.3-3.9c-0.8-0.8-1.6-1.5-2.5-2c-0.7-0.3-1.8-0.7-3.4-1.1l-7.1-1.9l-5.5,20.6L338.5,79.7L338.5,79.7z M351.6,55.5
	l13.2,3.5c2.8,0.8,5.1,1,6.8,0.9c1.7-0.2,3.2-0.8,4.4-1.8c1.2-1,1.9-2.3,2.3-3.8c0.6-2.2,0.3-4.2-0.9-6c-1.2-1.8-3.5-3.2-7-4.1
	l-14.7-3.9L351.6,55.5L351.6,55.5z M387.2,95.3l17.2-44.8l5.9,2.3l-17.2,44.8L387.2,95.3L387.2,95.3z M400.8,99.7l39.9-32.3l5.9,3.4
	l-7,51.3l-6.3-3.6l2.4-15.4l-17.4-10l-11.8,9.9L400.8,99.7L400.8,99.7z M422.7,89.6l14.1,8.1l2.3-14c0.7-4.2,1.4-7.7,2-10.3
	c-2.1,2.4-4.3,4.6-6.8,6.6L422.7,89.6L422.7,89.6z"/>
<path class="st0" d="M249.4,256.6c7.6,0,13.7,6.1,13.7,13.7c0,7.6-6.1,13.7-13.7,13.7s-13.7-6.1-13.7-13.7
	C235.7,262.7,241.8,256.6,249.4,256.6L249.4,256.6z M249.4,259c6.2,0,11.2,5,11.2,11.2s-5,11.2-11.2,11.2s-11.2-5-11.2-11.2
	C238.2,264.1,243.2,259,249.4,259L249.4,259z"/>
<path class="st0" d="M264.2,279.6c1.7-2.7,2.7-5.9,2.7-9.3c0-4.1-1.4-7.9-3.8-10.9l16.6-15.6c6.2,7.1,10,16.4,10,26.5
	c0,9.5-3.3,18.2-8.8,25.1L264.2,279.6L264.2,279.6z"/>
<path class="st0" d="M234.9,260.4c-1.9,2.8-3,6.2-3,9.8c0,3.6,1.1,7,3,9.8l-16.7,15.7c-5.7-6.9-9.1-15.8-9.1-25.5
	c0-9.7,3.4-18.6,9.1-25.5L234.9,260.4L234.9,260.4z"/>
<path class="st0" d="M309.3,336c-15,13.7-34.8,22.3-56.6,23.1v-20.4c16.1-0.8,30.8-7.1,42.2-17.2L309.3,336L309.3,336z"/>
<path class="st0" d="M185,332.6l17.8-18.8c0,0,8.8,8,13.8,10.1c5,2.1,5.2,2.3,5.2,2.3l7.2-16.3c-12.5-6.5-21.6-18.7-23.7-33.1H194
	v2.2h-7h-5.6v-2.2h-6.7v-2.5h-14.8C160.9,296.9,170.3,317.3,185,332.6L185,332.6z"/>
<path class="st0" d="M252.4,335.1c1.6,0,5.3-0.1,10.3-1.5c6.8-1.9,10.1-4.4,10.1-4.4l-7.9-18.2c-3.9,1.6-8.1,2.6-12.5,3V335.1
	L252.4,335.1z"/>
<polygon class="st0" points="199.4,240.5 199.4,199.4 224.4,199.4 224.4,206.4 206.7,206.4 206.7,216.1 222,216.1 222,223 
	206.7,223 206.7,240.5 "/>
<path class="st0" d="M252.8,181.2c46.5,1.7,83.9,39.1,85.7,85.5h-6.3v-1h-2.3v1h-3.1v-1h-2.3v1h-4.9v-1h-2.2v1h-3v-1h-2.2v1h-6.1v-1
	h-2.2v1h-10.1c-1.7-21.8-19.1-39.2-41-40.8L252.8,181.2L252.8,181.2z M290,239.2v-39.8h8.3v39.8H290L290,239.2z"/>
<path class="st0" d="M239.6,284.6c2.8,1.9,6.2,2.9,9.8,2.9c3.8,0,7.4-1.2,10.3-3.2l17.2,16.2c-7.3,6.5-16.9,10.5-27.5,10.5
	c-10.4,0-19.8-3.8-27.1-10.1L239.6,284.6L239.6,284.6z M240.4,285.6c2.6,1.7,5.7,2.7,9.1,2.7c3.5,0,6.8-1.1,9.4-3l15.8,14.9
	c-6.7,6-15.6,9.6-25.3,9.6c-9.5,0-18.2-3.5-24.9-9.3L240.4,285.6L240.4,285.6z"/>
<path class="st0" d="M249.4,229.6c9.9,0,18.9,3.4,26,9.2L258,255.2c-2.6-1.4-5.5-2.2-8.6-2.2c-3.6,0-7,1.1-9.8,2.9l-17.3-16.3
	C229.6,233.4,239.1,229.6,249.4,229.6L249.4,229.6z M249.4,230.5c9.2,0,17.7,3.2,24.3,8.6l-16.3,15.4c-2.4-1.3-5.1-2-8-2
	c-3.4,0-6.5,1-9.1,2.7l-16.2-15.2C230.9,234,239.7,230.5,249.4,230.5L249.4,230.5z"/>
<path class="st0" d="M247.2,360.5c-22.8-1-43.5-10.2-59.2-24.7l15.1-15.1c11.8,10.6,27.1,17.4,44,18.4L247.2,360.5L247.2,360.5z
	 M245.2,359.1c-21-1-40.1-9.4-54.5-22.8l14-14c10.9,9.8,25,16.1,40.6,17L245.2,359.1L245.2,359.1z"/>
<path class="st0" d="M245.6,335.1c-1.6,0-5.3-0.1-10.3-1.5c-6.8-1.9-10.1-4.4-10.1-4.4l7.9-18.2c3.9,1.6,8.1,2.6,12.5,3V335.1
	L245.6,335.1z M244.1,333.4c-1.3,0-4.5-0.1-8.8-1.3c-5.8-1.6-8.6-3.7-8.6-3.7l6.8-15.5c3.4,1.3,6.9,2.2,10.7,2.5V333.4L244.1,333.4z
	"/>
<path class="st0" d="M245.3,226c-21.5,2-38.5,19.2-40.2,40.7h-4.4v-0.5h-6.6v-3.1h-7h-5.6v3.5h-5.1v0.2h-16
	c1.8-46.2,38.8-83.4,84.9-85.5L245.3,226L245.3,226z M243.4,225.9c-20.5,1.9-36.8,18.3-38.4,38.9l-11,0v-1.8h-7h-4.7h-1v1.6h-3.9
	v0.2h-15.3c1.7-44.1,37.1-79.7,81.1-81.7V225.9L243.4,225.9z"/>
<path class="st0" d="M269.2,310.1l9.2,16.3c0,0,10.9-6.2,14-9c3.1-2.8,3.1-2.8,3.1-2.8s11.5,11.1,13.8,13.3c1.4,1.4,3.3,3,4.5,4
	c14.5-15.1,23.7-35.3,24.7-57.7h-6.3v1.2h-2.3v-0.2h-3.1v0.2h-2.3v-1.2h-4.9v1.2h-2.2v-0.2h-3v0.2h-2.2v-1.2h-6.1v1.2h-2.2v-1.2
	h-10.2C292.3,290,282.7,303.4,269.2,310.1L269.2,310.1z M271,309.7l8.8,15.4c0,0,10.3-5.9,13.3-8.5c3-2.6,3-2.6,3-2.6
	s10.9,10.6,13.1,12.6c1.4,1.3,3.1,2.8,4.2,3.8c13.8-14.4,22.5-33.5,23.4-54.7h-6h-7.3h-4.6h-7.1h-5.8h-2.1h-9.6
	C292.9,290.6,283.8,303.3,271,309.7L271,309.7z"/>
<path class="st0" d="M341.6,243.3c2.5,8.6,3.9,17.6,3.9,27c0,53-43,96.1-96.1,96.1s-96.1-43-96.1-96c0-9.9,1.5-19.5,4.3-28.5
	l0.8,1.7c-2.5,8.5-3.9,17.5-3.9,26.9c0,52.3,42.4,94.8,94.8,94.8c52.3,0,94.8-42.4,94.8-94.8c0-8.8-1.2-17.2-3.4-25.3L341.6,243.3
	L341.6,243.3z"/>
<path class="st0" d="M232.9,176.9c-34.5,6.1-62.6,30.8-73.4,63.4l-0.8-1.6c11.3-32.5,39.6-57,74.2-63V176.9L232.9,176.9z"/>
<path class="st0" d="M266,175.7c35.1,6.1,63.7,31.3,74.6,64.5l-0.8,1.6C329.4,208.5,301,183.1,266,177L266,175.7L266,175.7z"/>
<path class="st0" d="M248.4,367.6c-10.8-0.1-21.2-2.1-30.9-5.7l30.9,62.1V367.6L248.4,367.6z"/>
<path class="st0" d="M251.9,424.6l31.6-63.5c-9.8,3.9-20.4,6.2-31.6,6.5L251.9,424.6L251.9,424.6z M253.6,419.4l27.4-55.2
	c-8.5,3.4-17.7,5.4-27.4,5.6L253.6,419.4L253.6,419.4z"/>
<path class="st0" d="M176.4,266.6h5.1v8.9h-5.1V266.6L176.4,266.6z M177.5,267.7h3.9v7.4h-3.9V267.7L177.5,267.7z"/>
<path class="st0" d="M181.4,263.1h5.6v15.8h-5.6V263.1L181.4,263.1z M182.7,264.2h4.3v13.6h-4.3V264.2L182.7,264.2z"/>
<path class="st0" d="M187,263.1h7v3.1h-0.4v9.5h0.4v3.1h-7V263.1L187,263.1z M188.3,264.3h5.5v2h-0.2v9.5h0.2v2.1h-5.5V264.3
	L188.3,264.3z"/>
<path class="st0" d="M193.7,266.3h7v9.5h-7V266.3L193.7,266.3z M194.8,267.7h4.3v7.4h-4.3V267.7L194.8,267.7z"/>
<polygon class="st0" points="306.1,268.7 312.1,268.7 312.1,272.4 306.1,272.4 "/>
<polygon class="st0" points="303.9,265.8 306.1,265.8 306.1,275.4 303.9,275.4 "/>
<polygon class="st0" points="329.8,265.8 332.1,265.8 332.1,275.4 329.8,275.4 "/>
<polygon class="st0" points="324.5,265.8 326.7,265.8 326.7,275.4 324.5,275.4 "/>
<polygon class="st0" points="319.6,268.5 324.5,268.5 324.5,272.6 319.6,272.6 "/>
<polygon class="st0" points="317.4,265.8 319.6,265.8 319.6,275.4 317.4,275.4 "/>
<polygon class="st0" points="312.1,265.8 314.3,265.8 314.3,275.4 312.1,275.4 "/>
<polygon class="st0" points="332.1,269 337.5,269 337.5,272.2 332.1,272.2 "/>
<polygon class="st0" points="314.3,272 317.4,272 317.4,275.2 314.3,275.2 "/>
<polygon class="st0" points="326.7,272 329.8,272 329.8,275.2 326.7,275.2 "/>
<path class="st0" d="M342.6,247.1l38.8-79.1H250H118.7l38,77.4c0.3-1.3,0.7-2.5,1.1-3.8l-34.6-71.1H250H377l-35.4,72.7
	C342,244.6,342.3,245.9,342.6,247.1L342.6,247.1z"/>
<path class="st0" d="M250,436.1l38.2-78c-1,0.5-2.1,0.9-3.1,1.3L250,431.6l-34.8-71.6c-1-0.4-2.1-0.8-3.1-1.2L250,436.1L250,436.1z"
	/>
<path class="st0" d="M232.8,175.7H128l30.6,63C170,206.2,198.2,181.7,232.8,175.7L232.8,175.7z"/>
<path class="st0" d="M340.6,240.2l31.4-64.5H266C301.1,181.8,329.7,207,340.6,240.2L340.6,240.2z"/>
<path class="st0" d="M232.8,175.7H128l30.6,63c1.1-3,2.3-6,3.6-8.9l0,0c3.6-7.7,8.2-14.9,13.6-21.3l0,0c1-1.2,2.1-2.4,3.1-3.5l0-0.1
	c1.1-1.1,2.1-2.2,3.2-3.3l0.1-0.1c1.1-1.1,2.2-2.1,3.3-3.1l0.1-0.1c1.1-1,2.3-2,3.5-2.9l0.1-0.1c0.4-0.3,0.8-0.6,1.2-0.9l0,0
	c0.8-0.6,1.6-1.2,2.5-1.9l0,0c0.4-0.3,0.8-0.6,1.2-0.9l0.1-0.1c1.2-0.9,2.5-1.7,3.8-2.5l0.2-0.1c1.2-0.8,2.5-1.5,3.8-2.2l0.3-0.2
	c1.3-0.7,2.6-1.4,3.8-2l0.4-0.2c1.3-0.6,2.6-1.2,3.9-1.8c0.1-0.1,0.3-0.1,0.4-0.2c0.4-0.2,0.9-0.4,1.3-0.5l0.2-0.1
	c0.8-0.4,1.7-0.7,2.5-1c0.1-0.1,0.2-0.1,0.4-0.1c0.4-0.2,0.9-0.3,1.3-0.5c0.1,0,0.2-0.1,0.4-0.1c0.8-0.3,1.6-0.6,2.5-0.8
	c0.1,0,0.2-0.1,0.4-0.1c0.4-0.1,0.9-0.3,1.3-0.4c0.2-0.1,0.4-0.1,0.5-0.2c0.8-0.2,1.6-0.5,2.4-0.7c0.1,0,0.3-0.1,0.4-0.1
	c0.4-0.1,0.9-0.2,1.3-0.3c0.2-0.1,0.4-0.1,0.6-0.1c1.4-0.3,2.7-0.6,4.1-0.9c0.2,0,0.4-0.1,0.6-0.1
	C232,175.8,232.4,175.7,232.8,175.7L232.8,175.7z"/>
<path class="st0" d="M340.6,240.2l31.4-64.5H266C301.1,181.8,329.7,207,340.6,240.2L340.6,240.2z"/>
<path class="st0" d="M246.6,8.9c99.7,0,187.5,28.8,238.3,72.3l-36,58.2C403,103.8,330.2,80.8,248.3,80.8
	c-78.9,0-149.3,21.3-195.4,54.7L13.6,76.8C65.1,35.7,150.3,8.9,246.6,8.9L246.6,8.9z M246.8,11.9c98,0,183.9,27.7,231.5,69.2
	L444,133.3c-43.4-34.1-114.8-56.4-195.6-56.4c-78.1,0-147.4,20.8-191.1,52.9L21.7,75.7C70.4,37.2,153,11.9,246.8,11.9L246.8,11.9z"
	/>
<path class="st0" d="M323.5,151.1c0,0-1.3-2.8-2-5.4c-0.7-2.7-0.6-2.9-0.6-2.9s-2.2,1.4-2.2,2.6s-0.8,4.2,0.8,5.2
	C321.2,151.5,323.5,151.1,323.5,151.1L323.5,151.1z"/>
</svg>
