<?xml version="1.0" encoding="utf-8"?>
<!-- Generator: Adobe Illustrator 27.2.0, SVG Export Plug-In . SVG Version: 6.00 Build 0)  -->
<svg version="1.1" id="Layer_1" xmlns="http://www.w3.org/2000/svg" xmlns:xlink="http://www.w3.org/1999/xlink" x="0px" y="0px"
	 viewBox="0 0 500 574.12" style="enable-background:new 0 0 500 574.12;" xml:space="preserve">
<style type="text/css">
	.st0{fill-rule:evenodd;clip-rule:evenodd;fill:#C52026;}
	.st1{fill:#C52026;}
	
		.st2{fill-rule:evenodd;clip-rule:evenodd;fill:#C52026;stroke:#0C499C;stroke-width:0.216;stroke-linecap:round;stroke-linejoin:round;stroke-miterlimit:22.9256;}
</style>
<g>
	<path class="st0" d="M103.22,375.36c0,0,0.95-4.36-0.67-5.48c-1.62-1.12-3.75-1.51-5.7-2.52c-1.96-1.01-1.51-1.9-3.13-1.79
		c-1.62,0.11-5.87,0.73-7.77-0.67c-1.9-1.4-2.01-2.57-3.19-2.57c-1.17,0-12.64,0.89-13.31,0.28c-0.67-0.62-0.95-1.06-1.4-1.01
		c-0.45,0.06-3.08,0.62-3.52,2.63s-0.5,3.75-0.5,3.75s-4.14-2.63-4.14-4.08c0-1.45,1.4-4.81,4.25-4.81c2.85,0,3.52-0.17,4.14-1.17
		c0.62-1.01,3.69-1.17,5.14-1.17c1.45,0,2.01-0.22,0.56-1.62c-1.45-1.4-2.24-2.74-4.47-2.24c-2.24,0.5-5.03,1.62-5.03,1.62
		s-1.23-2.29-0.39-3.91c0.84-1.62,6.32-1.45,8.44-1.12c2.12,0.34,8.05,1.12,8.55,1.79c0.5,0.67,1.4,0.34,2.01,0.11
		c0.62-0.22,3.08-0.17,5.54,0.56c2.46,0.73,3.52,1.12,6.37,1.06c2.85-0.06,2.8,0.11,2.8,0.11l1.73,6.21c0,0,4.36,2.8,5.98,4.64
		c1.62,1.85,3.24,4.58,2.01,7.49C106.3,374.36,103.22,375.36,103.22,375.36L103.22,375.36z"/>
	<path class="st0" d="M116.45,321.8c0.87,2.15,2.33,3.01,2.56,4.13c0.23,1.12,0.05,2.32-1.19,2.57c-1.24,0.25-1.88-0.78-2.1-1.9
		C115.49,325.48,116.49,324.11,116.45,321.8L116.45,321.8z"/>
	<path class="st0" d="M113.37,327.11c0.87,2.15,2.33,3.01,2.56,4.13c0.23,1.12,0.05,2.32-1.19,2.57c-1.24,0.25-1.88-0.78-2.1-1.9
		C112.41,330.8,113.42,329.43,113.37,327.11L113.37,327.11z"/>
	<path class="st0" d="M110.22,332.13c0.87,2.15,2.33,3.01,2.56,4.13c0.23,1.12,0.05,2.32-1.19,2.57c-1.24,0.25-1.88-0.78-2.1-1.9
		C109.26,335.81,110.27,334.44,110.22,332.13L110.22,332.13z"/>
	<path class="st0" d="M106.49,337.45c0.87,2.15,2.33,3.01,2.56,4.13c0.23,1.12,0.05,2.32-1.19,2.57c-1.24,0.25-1.88-0.78-2.1-1.9
		C105.52,341.14,106.53,339.77,106.49,337.45L106.49,337.45z"/>
	<path class="st0" d="M103.53,342.25c0.87,2.15,2.33,3.01,2.56,4.13c0.23,1.12,0.05,2.32-1.19,2.57c-1.24,0.25-1.88-0.78-2.1-1.9
		C102.57,345.93,103.57,344.56,103.53,342.25L103.53,342.25z"/>
	<path class="st0" d="M100.82,347.1c0.87,2.15,2.33,3.01,2.56,4.13c0.23,1.12,0.05,2.32-1.19,2.57c-1.24,0.25-1.88-0.78-2.1-1.9
		C99.86,350.79,100.87,349.42,100.82,347.1L100.82,347.1z"/>
	<path class="st0" d="M100.52,346.93c-2.08,1.02-2.84,2.54-3.93,2.85c-1.1,0.31-2.31,0.21-2.65-1c-0.34-1.21,0.64-1.93,1.74-2.24
		C96.77,346.24,98.21,347.15,100.52,346.93L100.52,346.93z"/>
	<path class="st0" d="M103.28,342.19c-2.08,1.02-2.84,2.54-3.93,2.85c-1.1,0.31-2.31,0.21-2.65-1c-0.34-1.21,0.64-1.93,1.74-2.24
		C99.53,341.49,100.97,342.4,103.28,342.19L103.28,342.19z"/>
	<path class="st0" d="M106.23,337.19c-2.08,1.02-2.84,2.54-3.93,2.85c-1.1,0.31-2.31,0.21-2.65-1c-0.34-1.21,0.64-1.93,1.74-2.24
		C102.48,336.5,103.92,337.4,106.23,337.19L106.23,337.19z"/>
	<path class="st0" d="M109.98,331.7c-2.08,1.02-2.84,2.54-3.93,2.85c-1.1,0.31-2.31,0.21-2.65-1c-0.34-1.21,0.64-1.93,1.74-2.24
		C106.23,331.01,107.67,331.92,109.98,331.7L109.98,331.7z"/>
	<path class="st0" d="M113.05,326.77c-2.08,1.02-2.84,2.54-3.93,2.85c-1.1,0.31-2.31,0.21-2.65-1c-0.34-1.21,0.64-1.93,1.74-2.24
		C109.31,326.08,110.75,326.98,113.05,326.77L113.05,326.77z"/>
	<path class="st0" d="M116.25,321.47c-2.08,1.02-2.84,2.54-3.93,2.85c-1.1,0.31-2.31,0.21-2.65-1c-0.34-1.21,0.64-1.93,1.74-2.24
		C112.5,320.77,113.94,321.68,116.25,321.47L116.25,321.47z"/>
	<path class="st0" d="M398.96,375.36c0,0-0.95-4.36,0.67-5.48s3.75-1.51,5.7-2.52c1.96-1.01,1.51-1.9,3.13-1.79
		c1.62,0.11,5.87,0.73,7.77-0.67c1.9-1.4,2.01-2.57,3.19-2.57c1.17,0,12.64,0.89,13.31,0.28c0.67-0.62,0.95-1.06,1.4-1.01
		c0.45,0.06,3.08,0.62,3.52,2.63c0.45,2.01,0.5,3.75,0.5,3.75s4.14-2.63,4.14-4.08c0-1.45-1.4-4.81-4.25-4.81
		c-2.85,0-3.52-0.17-4.14-1.17c-0.62-1.01-3.69-1.17-5.14-1.17c-1.45,0-2.01-0.22-0.56-1.62c1.45-1.4,2.24-2.74,4.47-2.24
		c2.24,0.5,5.03,1.62,5.03,1.62s1.23-2.29,0.39-3.91c-0.84-1.62-6.32-1.45-8.44-1.12c-2.12,0.34-8.05,1.12-8.55,1.79
		c-0.5,0.67-1.4,0.34-2.01,0.11c-0.61-0.22-3.08-0.17-5.54,0.56c-2.46,0.73-3.52,1.12-6.37,1.06c-2.85-0.06-2.8,0.11-2.8,0.11
		l-1.73,6.21c0,0-4.36,2.8-5.98,4.64c-1.62,1.85-3.24,4.58-2.01,7.49C395.88,374.36,398.96,375.36,398.96,375.36L398.96,375.36z"/>
	<path class="st0" d="M385.73,321.8c-0.87,2.15-2.33,3.01-2.56,4.13c-0.23,1.12-0.05,2.32,1.19,2.57c1.24,0.25,1.88-0.78,2.1-1.9
		C386.69,325.48,385.68,324.11,385.73,321.8L385.73,321.8z"/>
	<path class="st0" d="M388.81,327.11c-0.87,2.15-2.33,3.01-2.56,4.13c-0.23,1.12-0.05,2.32,1.19,2.57c1.24,0.25,1.88-0.78,2.1-1.9
		C389.77,330.8,388.76,329.43,388.81,327.11L388.81,327.11z"/>
	<path class="st0" d="M391.96,332.13c-0.87,2.15-2.33,3.01-2.56,4.13c-0.23,1.12-0.05,2.32,1.19,2.57c1.24,0.25,1.88-0.78,2.1-1.9
		C392.92,335.81,391.91,334.44,391.96,332.13L391.96,332.13z"/>
	<path class="st0" d="M395.69,337.45c-0.87,2.15-2.33,3.01-2.56,4.13c-0.23,1.12-0.05,2.32,1.19,2.57c1.24,0.25,1.88-0.78,2.1-1.9
		C396.65,341.14,395.65,339.77,395.69,337.45L395.69,337.45z"/>
	<path class="st0" d="M398.65,342.25c-0.87,2.15-2.33,3.01-2.56,4.13c-0.23,1.12-0.05,2.32,1.19,2.57c1.24,0.25,1.88-0.78,2.1-1.9
		C399.61,345.93,398.6,344.56,398.65,342.25L398.65,342.25z"/>
	<path class="st0" d="M401.36,347.1c-0.87,2.15-2.33,3.01-2.56,4.13c-0.23,1.12-0.05,2.32,1.19,2.57c1.24,0.25,1.88-0.78,2.1-1.9
		C402.32,350.79,401.31,349.42,401.36,347.1L401.36,347.1z"/>
	<path class="st0" d="M401.66,346.93c2.08,1.02,2.84,2.54,3.93,2.85c1.1,0.31,2.31,0.21,2.65-1c0.34-1.21-0.64-1.93-1.74-2.24
		C405.41,346.24,403.97,347.15,401.66,346.93L401.66,346.93z"/>
	<path class="st0" d="M398.9,342.19c2.08,1.02,2.84,2.54,3.93,2.85c1.1,0.31,2.31,0.21,2.65-1c0.34-1.21-0.64-1.93-1.74-2.24
		C402.64,341.49,401.2,342.4,398.9,342.19L398.9,342.19z"/>
	<path class="st0" d="M395.95,337.19c2.08,1.02,2.84,2.54,3.93,2.85c1.1,0.31,2.31,0.21,2.65-1c0.34-1.21-0.64-1.93-1.74-2.24
		C399.69,336.5,398.25,337.4,395.95,337.19L395.95,337.19z"/>
	<path class="st0" d="M392.2,331.7c2.08,1.02,2.84,2.54,3.93,2.85c1.1,0.31,2.31,0.21,2.65-1c0.34-1.21-0.64-1.93-1.74-2.24
		C395.94,331.01,394.51,331.92,392.2,331.7L392.2,331.7z"/>
	<path class="st0" d="M389.12,326.77c2.08,1.02,2.84,2.54,3.93,2.85c1.1,0.31,2.31,0.21,2.65-1c0.34-1.21-0.64-1.93-1.74-2.24
		C392.87,326.08,391.43,326.98,389.12,326.77L389.12,326.77z"/>
	<path class="st0" d="M385.93,321.47c2.08,1.02,2.84,2.54,3.93,2.85c1.1,0.31,2.31,0.21,2.65-1c0.34-1.21-0.64-1.93-1.74-2.24
		C389.68,320.77,388.24,321.68,385.93,321.47L385.93,321.47z"/>
	<path class="st0" d="M43.01,407.75c0,0,5.38-13.45,1.71-40.1c-3.67-26.65-3.75-32.03-4.2-34.73c-0.45-2.69-0.67-8.98,0.9-11.67
		c1.57-2.69,1.57-2.69,1.57-2.69l-0.22-18.18c0,0-4.18-1.15-3.62-3.77c0.56-2.62,3.34-5.66,3.56-5.8c0.22-0.14,0.22-0.14,0.22-0.14
		l-0.96-12.17c0,0-4.82-2.24-3.36-5.49c1.46-3.25,3.59-6.39,3.59-6.39l-0.34-17.93c0,0-4.04,0-6.28,1.35
		c-2.24,1.35-2.69,1.79-2.69,1.79s-4.04-3.14-6.05-3.36c-2.02-0.22-4.6,4.48-4.6,4.48s-0.81,51.7,5.7,84.92s9.88,37.48,11,48.26
		c1.12,10.77,1.35,19.08,2.24,20.2C42.1,407.45,43.01,407.75,43.01,407.75L43.01,407.75z"/>
	<path class="st0" d="M52.1,367.09c0,0,4.76-7.14,5.37-17.79c0.62-10.66,1.06-37.7,1.06-37.7l2.73-2.73l-0.09-22.29
		c0,0-3.01-1.4-2.64-3.21c0.37-1.81,1.73-2.84,1.73-2.84l-0.05-15.32c0,0-2.48-1.92-2.53-2.77c-0.05-0.84-0.09-1.34,0.16-1.74
		c0.26-0.4,2.48-2.3,2.48-2.3s-0.04-17.42-0.88-18.08c-0.84-0.65-3.45-1.03-5.04,0.28c-1.59,1.31-1.87,2.99-1.87,2.99
		s-2.33-0.75-4.2,0c-1.87,0.75-3.83,2.89-3.83,5.98c0,3.08,0.11,28.94,2.16,47.26c2.06,18.33,5.42,33.47,5.42,45.63
		c0,12.15-0.93,23-0.93,23s0.03,1.38,0.5,1.52C52.14,367.12,52.1,367.09,52.1,367.09L52.1,367.09z"/>
	<path class="st0" d="M74.75,342.75c0,0-3.98-19.58-2.75-31.66c1.22-12.08,3.52-16.06,3.52-18.97c0-2.91-0.15-13.46-0.15-13.46
		s-1.89-0.85-1.86-2.45c0.03-1.6,0.35-1.5,0.8-1.91c0.45-0.42,1.15-0.7,1.15-0.7l-0.08-21.35c0,0-2.74-1.62-2.57-2.7
		c0.17-1.08,0.84-1.64,1.64-2.3c0.8-0.66,2.79-3.1,2.79-3.1l-0.1-11.07c0,0-1.15-2.37-2.68-1.81c-1.53,0.56-3.86,2.65-3.93,3.24
		c-0.07,0.59-0.14,0.52-0.14,0.52s-0.73-1.22-2.02-0.91c-1.29,0.31-5.01,2.75-5.08,5.6c-0.07,2.85-0.1,36.55,0.6,51.25
		c0.7,14.7,0.98,27.45,4.06,37.53c3.08,10.08,4.79,12.64,5.14,13.12C73.42,342.12,74.75,342.75,74.75,342.75L74.75,342.75z"/>
	<path class="st0" d="M82.19,321.69c0,0,5.3-13.11,4.9-21.71c-0.4-8.61-1.46-19.86-1.46-19.86s4.24-1.32,4.37-3.71
		c0.13-2.38-0.79-7.94-1.59-8.87c-0.79-0.93-0.95-2.19-0.77-3.13c0.17-0.94,2.92-3.17,3.24-3.86c0.31-0.7,0.29-16.06,0.29-16.06
		s-1.27-0.86-0.85-2.19c0.42-1.32,2.79-5.85,2.89-7.35c0.1-1.5-0.29-9.97-0.29-9.97s-1.54-1.12-5.17,0.84
		c-3.63,1.96-7.97,3.28-8.04,5.45c-0.07,2.17-1.97,26.79-1.55,40.65c0.42,13.86,2.94,25.35,3.22,33.61S82.19,321.69,82.19,321.69
		L82.19,321.69z"/>
	<path class="st0" d="M100.42,290.14c0,0,0.72-12.19,0.41-12.47c-0.31-0.28-1.22-1.04-0.97-1.78c0.24-0.73,1.67-2.82,1.67-2.82
		s1.56-18.37,2.82-27.47c1.26-9.1,4.06-25.77,4.06-25.77s-3.5-0.98-4.62,0c-1.12,0.98-0.94,1.79-1.58,1.96
		c-0.65,0.18-1.95-0.4-2.72-0.9c-0.77-0.49-2.84,0.02-3.12,2.16c-0.28,2.15-2.38,30.8-1.54,41.03c0.84,10.22,1.54,19.05,2.52,22.83
		c0.98,3.78,1.21,3.69,1.82,3.62C99.78,290.47,100.42,290.14,100.42,290.14L100.42,290.14z"/>
	<path class="st0" d="M114.61,273.37c0,0,1.37-21.75,3.55-33.88c2.17-12.13,4.35-24.38,4.35-24.38s-3.55-1.03-4.81,0.46
		c-1.26,1.49-1.95,2.06-1.95,2.06s-0.92-1.72-2.52-1.37c-1.6,0.34-4.46,6.75-4.46,20.15s2.06,33.54,3.32,35.37
		C113.35,273.6,114.61,273.37,114.61,273.37L114.61,273.37z"/>
	<path class="st0" d="M125.94,263.87c0,0,3.78-22.32,6.3-30.91c2.52-8.58,6.18-18.09,6.87-20.26c0.69-2.17-0.23-3.55-2.4-3.2
		c-2.17,0.34-5.49,2.98-5.49,2.98s-1.72-1.6-3.43-1.03c-1.72,0.57-3.78,8.13-4.24,23.01c-0.46,14.88-0.11,25.64,0.23,27.47
		C124.11,263.75,125.94,263.87,125.94,263.87L125.94,263.87z"/>
	<path class="st0" d="M47.57,188.18c0,0-8.37,39.9-9.14,44.92c-0.77,5.02-6.18,10.3-8.37,10.04c-2.19-0.26-6.19-2.68-6.25-5.91
		c-0.06-3.23,1.23-33.73,3.55-39c2.32-5.28,3.6-10.17,5.79-10.3c2.19-0.13,6.31,0.77,4.25,3.09c-2.06,2.32-6.56,8.37-8.37,20.59
		c-1.8,12.23-3.22,22.27-0.39,23.04c2.83,0.77,5.66,0,6.44-5.92c0.77-5.92,5.66-27.67,7.34-33.46c1.67-5.79,1.93-7.46,3.22-7.34
		C46.92,188.06,47.57,188.18,47.57,188.18L47.57,188.18z"/>
	<path class="st0" d="M32.12,232.85c0,0,2.57-21.49,6.44-31.53c3.86-10.04,4.38-10.94,4.38-10.94s-1.42-1.67-3.09-0.26
		c-1.67,1.42-7.21,13-8.24,18.92c-1.03,5.92-2.19,21.62-1.67,22.78C30.45,232.97,32.12,232.85,32.12,232.85L32.12,232.85z"/>
	<path class="st0" d="M64.43,188.18c0,0-7.34,28.32-7.59,31.92c-0.26,3.6-2.57,12.61-5.41,13.39c-2.83,0.77-5.41,0.51-6.56-5.28
		c-1.16-5.79-0.26-19.69,0.9-25.48c1.16-5.79,4.63-14.67,4.63-14.67s4.38-0.9,3.86,0.51c-0.51,1.42-4.25,12.1-5.28,20.21
		c-1.03,8.11-1.16,15.06-0.64,16.73c0.51,1.67,2.32,3.6,3.6,0.26c1.29-3.35,3.73-16.73,4.89-22.78c1.16-6.05,3.22-15.32,4.25-15.44
		C62.11,187.41,64.43,188.18,64.43,188.18L64.43,188.18z"/>
	<path class="st0" d="M51.56,222.03c0,0,1.29-11.45,3.09-17.5c1.8-6.05,3.99-16.09,3.99-16.09s-1.8-1.42-2.57-0.26
		c-0.77,1.16-3.99,10.81-5.15,17.25c-1.16,6.44-2.32,15.44-1.42,16.09C50.4,222.16,51.56,222.03,51.56,222.03L51.56,222.03z"/>
	<path class="st0" d="M79.62,187.34c0,0-6.59,25.41-6.82,28.65c-0.23,3.23-2.31,11.32-4.85,12.01c-2.54,0.69-4.85,0.46-5.89-4.74
		c-1.04-5.2-0.23-17.67,0.81-22.87s4.16-13.17,4.16-13.17s3.93-0.81,3.47,0.46c-0.46,1.27-3.81,10.86-4.74,18.14
		c-0.92,7.28-1.04,13.52-0.58,15.02c0.46,1.5,2.08,3.23,3.23,0.23c1.15-3,3.35-15.02,4.39-20.45c1.04-5.43,2.89-13.75,3.81-13.86
		C77.54,186.65,79.62,187.34,79.62,187.34L79.62,187.34z"/>
	<path class="st0" d="M93.9,187.1c0,0-6.11,20.25-6.33,22.83c-0.21,2.58-2.14,9.02-4.51,9.57c-2.36,0.55-4.51,0.37-5.47-3.77
		c-0.97-4.14-0.22-14.08,0.75-18.22c0.97-4.14,3.86-10.49,3.86-10.49s3.65-0.64,3.22,0.37c-0.43,1.01-3.54,8.65-4.4,14.45
		c-0.86,5.8-0.97,10.77-0.54,11.96c0.43,1.2,1.93,2.58,3,0.18c1.07-2.39,3.11-11.96,4.08-16.29c0.96-4.33,2.68-10.95,3.54-11.04
		C91.97,186.54,93.9,187.1,93.9,187.1L93.9,187.1z"/>
	<path class="st0" d="M110.63,187.04c0,0-6.77,17.89-7.01,20.16c-0.24,2.28-2.38,7.97-4.99,8.45c-2.61,0.49-4.99,0.33-6.06-3.33
		c-1.07-3.66-0.24-12.44,0.83-16.1c1.07-3.66,4.28-9.27,4.28-9.27s4.04-0.57,3.56,0.32c-0.48,0.89-3.92,7.64-4.87,12.76
		c-0.95,5.12-1.07,9.51-0.59,10.57c0.47,1.06,2.14,2.28,3.33,0.16c1.19-2.11,3.45-10.57,4.51-14.39c1.07-3.82,2.97-9.67,3.92-9.75
		C108.5,186.55,110.63,187.04,110.63,187.04L110.63,187.04z"/>
	<path class="st0" d="M124.79,186.05c0,0-4.76,13.79-4.8,15.54c-0.04,1.76-1.54,6.14-3.87,6.52c-2.33,0.38-4.5,0.25-5.75-2.57
		c-1.25-2.82-1.18-9.59-0.49-12.41c0.69-2.82,3.16-7.15,3.16-7.15s3.62-0.44,3.26,0.25c-0.36,0.69-2.97,5.89-3.43,9.84
		c-0.47,3.95-0.24,7.33,0.28,8.15c0.51,0.81,2.12,1.75,3.03,0.13c0.91-1.63,2.31-8.15,2.98-11.09c0.68-2.95,1.95-7.46,2.8-7.52
		C122.81,185.67,124.79,186.05,124.79,186.05L124.79,186.05z"/>
	<path class="st0" d="M134.81,201.01c-0.51,2.02-1.82,4.74-3.64,5.04c-2.33,0.38-4.5,0.25-5.75-2.57
		c-1.25-2.82-1.18-9.59-0.49-12.41c0.42-1.73,1.51-4.02,2.3-5.53l1.88,3.84c-0.54,1.52-1.01,3.17-1.19,4.64
		c-0.47,3.95-0.24,7.33,0.28,8.15c0.51,0.81,2.12,1.75,3.03,0.13c0.47-0.84,1.07-2.98,1.63-5.26L134.81,201.01L134.81,201.01z"/>
	<path class="st0" d="M68.06,216.77c0,0,1.09-9.74,2.63-14.88c1.53-5.14,3.39-13.68,3.39-13.68s-1.53-1.21-2.19-0.22
		c-0.66,0.98-3.39,9.19-4.38,14.66c-0.99,5.47-1.97,13.13-1.2,13.68C67.08,216.88,68.06,216.77,68.06,216.77L68.06,216.77z"/>
	<path class="st0" d="M84.05,209.51c0,0,0.83-7.4,2-11.31c1.16-3.91,2.58-10.4,2.58-10.4s-1.16-0.92-1.66-0.17
		c-0.5,0.75-2.58,6.99-3.33,11.15c-0.75,4.16-1.5,9.98-0.91,10.4C83.3,209.6,84.05,209.51,84.05,209.51L84.05,209.51z"/>
	<path class="st0" d="M99.66,206.58c0,0,0.89-6.51,1.99-9.95c1.1-3.44,2.47-9.14,2.47-9.14s-1-0.8-1.45-0.15
		c-0.45,0.66-2.4,6.14-3.14,9.8c-0.74,3.66-1.52,8.78-1.02,9.14C99.01,206.66,99.66,206.58,99.66,206.58L99.66,206.58z"/>
	<path class="st0" d="M115.98,202.59c0,0,0.63-5.61,1.51-8.57c0.88-2.96,1.95-7.88,1.95-7.88s-0.88-0.69-1.26-0.13
		c-0.38,0.57-1.95,5.29-2.52,8.44c-0.57,3.15-1.13,7.56-0.69,7.88C115.42,202.66,115.98,202.59,115.98,202.59L115.98,202.59z"/>
	<path class="st0" d="M35.8,176.87c0,0-0.71-3.86,1.05-6.46c1.76-2.6,9.44-10.27,14.13-9.98c4.7,0.29,8.09,1.3,7.88,4.91
		c-0.21,3.61-3.06,8.97-3.82,9.56c-0.75,0.59-3.52,0.75-3.82,0.21c-0.29-0.55,0.38-1.59-0.55-1.64c-0.92-0.04-2.47,0.67-3.1,1.38
		c-0.63,0.71-3.86,0.17-4.4,0.21c-0.55,0.04,0.29-0.67-0.34-1.22c-0.63-0.55-2.64,0.84-3.69,2.22c-1.05,1.38-1.55,1.01-2.22,1.01
		C36.26,177.08,35.8,176.87,35.8,176.87L35.8,176.87z"/>
	<path class="st0" d="M58.95,177c0,0-0.55-3.06,0.82-5.12c1.37-2.06,7.33-8.15,10.98-7.92c3.65,0.23,6.29,1.03,6.13,3.89
		c-0.16,2.86-2.38,7.12-2.97,7.59c-0.59,0.47-2.74,0.6-2.96,0.16c-0.23-0.43,0.29-1.26-0.43-1.3c-0.71-0.03-1.92,0.53-2.41,1.1
		c-0.49,0.57-3,0.14-3.42,0.17c-0.42,0.03,0.23-0.53-0.26-0.96c-0.49-0.43-2.05,0.66-2.87,1.76c-0.81,1.1-1.21,0.8-1.73,0.8
		C59.31,177.16,58.95,177,58.95,177L58.95,177z"/>
	<path class="st0" d="M75.6,178.73c0,0-0.51-2.47,0.76-4.14c1.27-1.67,6.79-6.58,10.17-6.4c3.38,0.19,5.83,0.83,5.68,3.14
		c-0.15,2.31-2.2,5.76-2.75,6.13c-0.54,0.38-2.54,0.48-2.75,0.13c-0.21-0.35,0.27-1.02-0.39-1.05c-0.66-0.03-1.78,0.43-2.23,0.89
		c-0.45,0.46-2.78,0.11-3.17,0.14c-0.39,0.03,0.21-0.43-0.24-0.78c-0.45-0.35-1.9,0.54-2.65,1.43c-0.75,0.89-1.12,0.64-1.6,0.64
		C75.93,178.86,75.6,178.73,75.6,178.73L75.6,178.73z"/>
	<path class="st0" d="M91.25,180.13c0,0-0.45-2.26,0.66-3.78c1.1-1.52,5.9-6.02,8.84-5.84c2.94,0.17,5.06,0.76,4.93,2.87
		c-0.13,2.11-1.92,5.26-2.39,5.6c-0.47,0.34-2.2,0.44-2.39,0.12c-0.18-0.32,0.24-0.93-0.34-0.96c-0.57-0.02-1.54,0.39-1.94,0.81
		c-0.39,0.42-2.41,0.1-2.75,0.12c-0.34,0.02,0.18-0.39-0.21-0.71c-0.39-0.32-1.65,0.49-2.31,1.3c-0.66,0.81-0.97,0.59-1.39,0.59
		C91.54,180.25,91.25,180.13,91.25,180.13L91.25,180.13z"/>
	<path class="st0" d="M106.67,180.22c0,0-0.37-1.76,0.54-2.94c0.91-1.18,4.86-4.68,7.27-4.54c2.42,0.13,4.17,0.59,4.06,2.23
		c-0.11,1.64-1.58,4.09-1.97,4.35c-0.39,0.27-1.81,0.34-1.96,0.09c-0.15-0.25,0.19-0.72-0.28-0.74c-0.47-0.02-1.27,0.31-1.6,0.63
		c-0.32,0.33-1.99,0.08-2.27,0.1c-0.28,0.02,0.15-0.3-0.17-0.55c-0.32-0.25-1.36,0.38-1.9,1.01c-0.54,0.63-0.8,0.46-1.14,0.46
		C106.91,180.31,106.67,180.22,106.67,180.22L106.67,180.22z"/>
	<path class="st0" d="M119.48,169.73c-3.47,0.71-8.87,1.09-15.96-0.58c-13.17-3.11-26.09-10.93-33.79-12.67
		c-7.7-1.74-29.19-2.11-29.19-2.11s11.3-16.02,22.48-21.86c11.18-5.84,34.66-12.55,41.37-7.58c6.71,4.97,6.71,9.94,4.84,13.04
		c-1.86,3.11-6.58,5.22-6.58,5.22s1.12,8.94,8.94,14.91c7.83,5.96,7.45,5.59,10.19,7.2c2.73,1.61,3.73,1.99,3.73,1.99l-1.13,0.76
		h-5.72L119.48,169.73L119.48,169.73z M98.18,158.22c0,0-9.69-6.21-12.92-10.19c-3.23-3.98-5.59-9.94-3.6-11.43
		c1.99-1.49,6.83-2.11,7.08,0.62c0.25,2.73-0.12,3.73-1.12,4.97c-0.99,1.24-0.37,2.48-0.37,2.48s0.87,2.61,4.72,6.58
		C95.82,155.23,98.18,158.22,98.18,158.22L98.18,158.22z"/>
	<path class="st0" d="M208.56,115.45c0,0,2.39-3.21,1.3-5.81c-1.09-2.6-6.76-9.02-6.76-9.02s-1.3-3.76-1.98-4.58
		c-0.68-0.82-3.21-1.43-4.1-0.34c-0.89,1.09-1.98,2.25-1.98,2.25s-6.9,0.2-10.45,1.57c-3.55,1.37-8.81,5.05-9.7,6.28
		c-0.89,1.23-2.66,3.07-2.66,3.07s-7.65,2.12-10.04,2.87c-2.39,0.75-3.89,1.43-2.53,4.17c1.37,2.73,3.42,5.33,3.14,6.01
		c-0.27,0.68-1.09,1.02-0.89,1.84c0.2,0.82,10.89,2.11,14.11,2.11c3.22,0,4.12-0.13,4.12-0.13s4.12,3.48,5.02,7.85
		c0.9,4.38,0,13.64-1.8,16.47c-1.8,2.83-2.06,3.09-2.06,3.09s5.15,3.48,7.85,1.54c2.7-1.93,4.38-12.87,3.48-17.89
		c-0.9-5.02-2.19-11.71-2.19-11.71s7.08-1.03,11.2-3.99C205.75,118.17,208.56,115.45,208.56,115.45L208.56,115.45z M182.07,104.91
		c2.2,0,3.99,1.79,3.99,3.99c0,2.2-1.79,3.99-3.99,3.99c-2.2,0-3.99-1.79-3.99-3.99C178.08,106.7,179.86,104.91,182.07,104.91
		L182.07,104.91z"/>
	<path class="st0" d="M149.83,124.03c0,0,2.58-3.04,4.96-4.2c2.38-1.16,4.7-0.84,4.7-0.84s-1.48-5.04-2.25-5.43
		c-0.77-0.39-4.44,0.39-6.44,3.23c-2,2.84-2,3.42-2,4.72C148.8,122.8,149.83,124.03,149.83,124.03L149.83,124.03z"/>
	<path class="st0" d="M151.3,234.66c-0.91-0.37-3.51-1.09-5.08,1.98c-1.93,3.76-4.92,15.35-3.96,22.88
		c0.97,7.53,2.8,20.27,3.48,26.45c0.68,6.18,0.87,14.29-1.45,18.44c-2.32,4.15-5.98,11.39-12.84,11.49
		c-6.85,0.1-10.52-0.39-12.93-2.03c-2.41-1.64-2.22-2.03-2.22-2.03s2.12,0,3.48-1.83c1.35-1.83,2.51-6.47-0.39-9.07
		s-8.78-2.51-10.71-0.77c-1.93,1.74-3.67,8.78-0.1,12.74c3.57,3.96,12.36,8.69,20.56,7.24s15.64-3.86,19.21-13.8
		c3.57-9.94,4.05-19.98,4.25-23.36c0.19-3.38,0.29-24.52,0.97-31.95c0.42-4.63,0.58-8.36,0.43-10.89L151.3,234.66L151.3,234.66z"/>
	<path class="st0" d="M348.8,234.6c1.02-0.37,3.43-0.86,4.92,2.05c1.93,3.76,4.92,15.35,3.96,22.88c-0.97,7.53-2.8,20.27-3.48,26.45
		c-0.68,6.18-0.87,14.29,1.45,18.44c2.32,4.15,5.98,11.39,12.84,11.49c6.85,0.1,10.52-0.39,12.93-2.03
		c2.41-1.64,2.22-2.03,2.22-2.03s-2.12,0-3.48-1.83c-1.35-1.83-2.51-6.47,0.39-9.07c2.9-2.61,8.78-2.51,10.71-0.77
		c1.93,1.74,3.67,8.78,0.1,12.74c-3.57,3.96-12.36,8.69-20.56,7.24c-8.2-1.45-15.64-3.86-19.21-13.8
		c-3.57-9.94-4.05-19.98-4.25-23.36c-0.19-3.38-0.29-24.52-0.97-31.95c-0.4-4.45-0.57-8.07-0.45-10.59L348.8,234.6L348.8,234.6z"/>
	<path class="st0" d="M454.54,384.75c0,0-0.01-22.44,3.82-44.27c3.82-21.83,17.35-56.26,18.94-71.44
		c1.58-15.18,0.96-33.55,0.96-33.55l-7.59,7.91l-6.96-4.74c0,0-0.63,18.34-4.43,33.84c-3.79,15.49-10.12,30.67-10.12,32.89
		s0.63,7.27-0.63,16.44c-1.26,9.17-3.79,15.49-1.9,32.89c1.9,17.39,3.82,28.67,5.21,29.6C453.23,385.23,454.54,384.75,454.54,384.75
		L454.54,384.75z"/>
	<path class="st0" d="M426.62,344.61c0,0,11.94-20.74,15.66-32.88c3.72-12.13,9.2-29.35,12.33-42.27
		c3.13-12.92,6.85-30.72,6.85-30.72s-0.59-2.35-3.33-1.96c-2.74,0.39-5.28,1.96-5.28,1.96s-3.13-2.94-4.5-3.52
		c-1.37-0.59-2.94,0.98-3.72,6.65c-0.78,5.68-6.07,29.35-8.41,36.59c-2.35,7.24-5.48,16.05-5.48,16.05s2.74,4.5,2.35,9.78
		c-0.39,5.28-9,36.59-9,38.55C424.08,344.81,426.62,344.61,426.62,344.61L426.62,344.61z"/>
	<path class="st0" d="M408.03,325.43c0,0,10.57-12.33,12.92-18.2c2.35-5.87,10.76-36.01,13.31-43.25
		c2.54-7.24,8.22-28.38,8.22-28.38s-0.78-2.54-3.52-2.35c-2.74,0.2-5.87,2.54-5.87,2.54l-4.89-3.72c0,0-2.15,1.37-2.74,3.33
		c-0.59,1.96-3.91,19.96-5.09,24.46c-1.17,4.5-4.7,12.52-4.7,12.52s0.2,19.57-1.37,26.61C412.73,306.06,408.03,325.43,408.03,325.43
		L408.03,325.43z"/>
	<path class="st0" d="M393.91,296.1c0,0,9.27-9.65,11.78-14.09c2.51-4.44,9.07-22.01,10.62-31.08c1.54-9.07,3.67-20.27,3.67-20.27
		s-6.56,1.16-7.34,2.32c-0.77,1.16-0.97,1.16-0.97,1.16l-5.6-4.83c0,0-2.32-0.39-2.51,5.41c-0.19,5.79-1.93,14.09-2.9,18.15
		c-0.97,4.05-1.74,6.76-1.74,6.76s1.74,5.79,1.16,11c-0.58,5.21-1.74,14.29-4.05,17.95c-2.32,3.67-3.48,6.56-3.48,6.56L393.91,296.1
		L393.91,296.1z"/>
	<path class="st0" d="M370.94,290.5c0,0,21.62-29.73,25.1-43.44c3.48-13.71,3.86-18.73,3.86-18.73s-2.9,0.39-4.83,1.54
		c-1.93,1.16-3.48,1.93-3.48,1.93s-3.28-1.35-4.05-2.32c-0.77-0.97-3.09-1.16-3.48,5.02c-0.39,6.18-3.09,23.36-5.41,30.31
		c-2.32,6.95-7.53,21.04-7.92,22.78C370.36,289.35,370.94,290.5,370.94,290.5L370.94,290.5z"/>
	<path class="st0" d="M358.97,275.83c0,0,14.29-11.97,18.15-29.15c3.86-17.18,3.86-18.53,3.86-18.53l-4.25,0.39
		c0,0-1.93-1.16-3.48-1.35c-1.54-0.19-2.12-0.39-2.9,4.44c-0.77,4.83-1.54,13.71-2.9,17.95c-1.35,4.25-7.14,22.59-8.11,23.94
		C358.39,274.87,358.97,275.83,358.97,275.83L358.97,275.83z"/>
	<path class="st0" d="M472.3,200.44c0,0,2.22-0.48,2.51,2.61c0.29,3.09,1.64,12.07,1.25,15.73c-0.39,3.67-1.83,13.51-4.92,14.96
		c-3.09,1.45-3.28,1.64-4.83,0.19c-1.54-1.45-4.63-14.48-5.02-18.53c-0.39-4.05-1.16-11.49,0.19-12.65c1.35-1.16,2.9-1.45,3.48-0.29
		c0.58,1.16,0.48,6.47,1.06,10.33c0.58,3.86,1.35,8.2,2.22,7.92c0.87-0.29,1.93-0.48,1.83-4.92c-0.1-4.44-1.35-13.03-0.1-14.09
		C471.23,200.64,472.39,200.25,472.3,200.44L472.3,200.44z"/>
	<path class="st0" d="M450.09,231.82c0,0,5.21-5.7,6.47-11.2c1.25-5.5,3.76-17.47,3.19-18.05c-0.58-0.58-1.54-0.77-2.51,0.68
		c-0.97,1.45-2.9,9.07-3.86,10.23c-0.97,1.16-2.9,2.7-3.86,1.06c-0.97-1.64-0.68-9.65-0.77-10.91c-0.1-1.25-1.93-2.61-3.09-1.74
		c-1.16,0.87-0.87,5.98-1.06,9.27c-0.19,3.28-0.29,9.07,1.74,14.48C448.36,231.04,450.09,231.82,450.09,231.82L450.09,231.82z"/>
	<path class="st0" d="M410.78,224.19c0,0,5.54-4.46,6.88-8.76c1.33-4.31,4-13.67,3.39-14.13c-0.62-0.45-1.64-0.6-2.67,0.53
		c-1.03,1.13-3.08,7.1-4.11,8.01c-1.03,0.91-3.08,2.11-4.11,0.83c-1.03-1.28-0.72-7.55-0.82-8.54c-0.1-0.98-2.05-2.04-3.29-1.36
		c-1.23,0.68-0.92,4.68-1.13,7.25c-0.21,2.57-0.31,7.1,1.85,11.33C408.93,223.59,410.78,224.19,410.78,224.19L410.78,224.19z"/>
	<path class="st0" d="M430.18,228.34c0,0,5.54-5.02,6.88-9.87c1.33-4.85,4-15.41,3.39-15.92c-0.62-0.51-1.64-0.68-2.67,0.6
		c-1.03,1.28-3.08,8-4.11,9.02c-1.03,1.02-3.08,2.38-4.11,0.94c-1.03-1.45-0.72-8.51-0.82-9.62c-0.1-1.11-2.05-2.3-3.29-1.53
		c-1.23,0.76-0.92,5.28-1.13,8.17c-0.21,2.89-0.31,8,1.85,12.77C428.33,227.66,430.18,228.34,430.18,228.34L430.18,228.34z"/>
	<path class="st0" d="M391.86,222.26c0,0,5.54-4.17,6.88-8.19c1.33-4.02,4-12.78,3.39-13.2c-0.62-0.42-1.64-0.56-2.67,0.49
		c-1.03,1.06-3.08,6.64-4.11,7.48c-1.03,0.85-3.08,1.98-4.11,0.78c-1.03-1.2-0.72-7.06-0.82-7.98c-0.1-0.92-2.05-1.9-3.29-1.27
		c-1.23,0.63-0.92,4.38-1.13,6.78c-0.21,2.4-0.31,6.64,1.85,10.59C390.01,221.69,391.86,222.26,391.86,222.26L391.86,222.26z"/>
	<path class="st0" d="M374.87,220.52c0,0,5.54-3.8,6.88-7.47c1.33-3.67,4-11.66,3.39-12.05c-0.62-0.39-1.64-0.52-2.67,0.45
		c-1.03,0.97-3.08,6.06-4.11,6.83c-1.03,0.77-3.08,1.8-4.11,0.71c-1.03-1.09-0.72-6.44-0.82-7.28c-0.1-0.84-2.05-1.74-3.29-1.16
		c-1.23,0.58-0.92,3.99-1.13,6.18c-0.21,2.19-0.31,6.06,1.85,9.67C373.02,220.01,374.87,220.52,374.87,220.52L374.87,220.52z"/>
	<path class="st0" d="M357.3,219.07c0,0,5.54-3.64,6.88-7.15c1.33-3.51,4-11.16,3.39-11.53c-0.48-0.29-1.2-0.42-1.98-0.04l-9,18.37
		C357.03,219,357.3,219.07,357.3,219.07L357.3,219.07z"/>
	<path class="st0" d="M458.46,195.73c0,0,4.98-0.65,5.99-3.44c1.01-2.79,0.89-10.33,0.42-13.35c-0.47-3.03-2.91-11.63-3.38-11.93
		c-0.47-0.3-2.25-0.3-2.14,1.07c0.12,1.36,1.84,7.83,1.9,10.98c0.06,3.15,0.06,7.12-0.83,7.77c-0.89,0.65-3.38,1.25-4.09,0.47
		c-0.71-0.77-2.67-5.28-2.85-8.19c-0.18-2.91-0.06-10.21-0.06-10.21s-2.43-0.95-3.15,0.47c-0.71,1.42-0.71,9.08-0.53,11.81
		c0.18,2.73,0.83,8.49,1.66,10.44c0.83,1.96,2.67,4.09,4.09,4.15C456.92,195.85,458.46,195.73,458.46,195.73L458.46,195.73z"/>
	<path class="st0" d="M439.41,195.02c0,0,3.8-0.36,5.16-2.37c1.36-2.02,3.03-6.76,3.2-10.09c0.18-3.32,0.53-12.28,0.53-12.28
		s-1.6-1.6-3.09-0.65c-1.48,0.95-0.89,2.55-1.13,4.45c-0.24,1.9-0.83,7.12-1.42,9.73c-0.59,2.61-0.89,3.92-2.08,4.09
		c-1.19,0.18-2.2,1.01-3.15-2.73c-0.95-3.74-1.07-8.01-1.07-9.44c0-1.42-0.47-2.2-1.36-2.14c-0.89,0.06-1.6,0.36-1.54,2.55
		c0.06,2.2,0.06,13.17,0.71,15.37c0.65,2.2,1.72,3.09,2.49,3.32C437.46,195.08,439.41,195.02,439.41,195.02L439.41,195.02z"/>
	<path class="st0" d="M424.61,194.07c0,0,4.31-1.23,4.96-3.94c0.64-2.71,2.25-12.73,2-13.7c-0.26-0.97-1.93-1.55-2.58-0.65
		c-0.64,0.9-1.74,7.04-2.12,8.53c-0.39,1.49-0.97,3.68-2.32,3.81c-1.35,0.13-2-0.06-2.58-0.71c-0.58-0.65-0.45-7.82-0.45-7.82
		s-2.51-0.9-2.7,0.13c-0.19,1.03,0,11.44,0.32,12.08c0.32,0.65,1.8,2.2,3.03,2.2C423.38,194,424.61,194.07,424.61,194.07
		L424.61,194.07z"/>
	<path class="st0" d="M411.02,194.97c0,0,4.12-0.13,4.89-3.3c0.77-3.17,1.22-10.4,0.9-10.6c-0.32-0.19-2.25-0.39-2.58,1.1
		s-1.22,6.2-1.67,6.72c-0.45,0.52-1.87,0.97-2.64,0c-0.77-0.97-0.71-5.88-0.71-5.88s-2.58-1.68-3.03,0.39
		c-0.45,2.07-0.39,7.88-0.13,8.92c0.26,1.03,1.87,2.58,2.7,2.58S411.02,194.97,411.02,194.97L411.02,194.97z"/>
	<path class="st0" d="M396.98,194.97c0,0,3.67-0.58,5.02-2.91c1.35-2.33,2.25-6.91,2.19-7.56c-0.06-0.65-2.45-1.29-2.7-0.45
		c-0.26,0.84-1.29,4.39-1.93,5.04c-0.64,0.65-2.45,1.68-3.28,0.39c-0.84-1.29-0.97-4.07-0.97-4.85c0-0.78-2.32-1.23-2.9-0.32
		c-0.58,0.9-0.52,5.62,0,7.04c0.52,1.42,1.61,3.55,2.51,3.62C395.82,195.04,396.98,194.97,396.98,194.97L396.98,194.97z"/>
	<path class="st0" d="M383.97,196.78c0,0,3.09-1.29,3.93-2.78c0.84-1.49,2-6.14,2-7.24s0-1.49,0-1.49s-2.77-0.39-2.96,0.58
		c-0.19,0.97-1.09,4.33-2,4.78c-0.9,0.45-2.06,0.58-2.77-0.26c-0.71-0.84-1.35-4.78-1.35-4.78s-2.32-0.78-2.51,0.19
		c-0.19,0.97,0.39,4.91,1.09,6.91c0.71,2,2.64,3.75,2.64,3.75L383.97,196.78L383.97,196.78z"/>
	<path class="st0" d="M381.43,173.13c0,0,19.56-1.16,28.83-7.85c9.27-6.69,15.06-12.87,18.53-15.57c3.48-2.7,4.89-4.25,4.89-4.25
		s-4.38-6.31-6.18-5.41c-1.8,0.9-11.84,12.1-16.6,15.83c-4.76,3.73-17.25,12.61-21.11,14.03
		C385.93,171.32,381.43,173.13,381.43,173.13L381.43,173.13z"/>
	<path class="st0" d="M388.89,161.29c0,0,11.71-13.26,12.61-19.18c0.9-5.92-0.26-9.01-1.42-10.3c-1.16-1.29-4.38-0.64-4.63,0.51
		c-0.26,1.16,0.26,3.73,1.93,3.73c1.67,0,1.03,0,1.03,0s-0.64,4.38-1.54,8.37c-0.9,3.99-4.89,12.48-6.05,13.9
		C389.67,159.74,388.77,161.29,388.89,161.29L388.89,161.29z"/>
	<path class="st0" d="M377.95,177.89c0,0,21.11,1.54,31.79-2.57c10.68-4.12,29.73-13.64,36.29-15.44c6.56-1.8,6.95-1.8,6.95-1.8
		s-3.09-14.41-11.45-21.37c-8.37-6.95-20.08-14.67-30.37-16.09c-10.3-1.42-22.01-1.42-28.19,5.41c-6.18,6.82-4.38,9.91-3.86,12.36
		c0.51,2.45,6.82,8.11,6.82,8.11s0.39,4.89-2.57,8.62c-2.96,3.73-10.43,12.61-10.43,12.61l-0.19,0.32h8.68l-4.33,8.84L377.95,177.89
		L377.95,177.89z"/>
	<path class="st0" d="M130.7,386.19c0,0,6.26,0.12,8.37-3.81c2.11-3.92,6.21-14.93,6.32-16.16c0.12-1.23-0.7-3.92-2.28-3.81
		c-1.58,0.12-3.28,2.69-4.51,6.03c-1.23,3.34-2.87,10.13-4.45,10.48c-1.58,0.35-4.63,0.59-4.98-1.64c-0.35-2.22,0.59-5.8,1.99-8.78
		c1.41-2.99,2.4-5.74,2.75-6.03c0.35-0.29-1.41-2.75-3.51-2.34c-2.11,0.41-3.98,3.22-5.27,6.15c-1.29,2.93-3.63,9.95-2.52,13.12
		c1.11,3.16,2.22,5.21,3.98,5.91C128.36,386.02,130.7,386.19,130.7,386.19L130.7,386.19z"/>
	<path class="st0" d="M153.44,388.91c0,0,6.4-0.86,8.38-4.87c1.98-4.01,5.7-14.98,5.77-16.16c0.07-1.17-0.88-3.58-2.49-3.22
		c-1.61,0.36-3.23,3.04-4.34,6.36c-1.11,3.32-2.5,9.96-4.1,10.53c-1.6,0.58-4.69,1.27-5.15-0.77c-0.45-2.03,0.35-5.53,1.66-8.56
		c1.31-3.02,2.21-5.76,2.55-6.09c0.35-0.33-1.55-2.37-3.68-1.65c-2.13,0.71-3.93,3.64-5.12,6.59c-1.19,2.95-3.28,9.91-2.01,12.71
		c1.27,2.8,2.49,4.55,4.31,4.94C151.05,389.11,153.44,388.91,153.44,388.91L153.44,388.91z"/>
	<path class="st0" d="M178.67,384.43c0,0,5.5-1.31,6.63-4.74c1.13-3.42,2.7-12.61,2.58-13.56c-0.12-0.95-1.33-2.79-2.69-2.35
		c-1.36,0.44-2.37,2.76-2.84,5.54c-0.47,2.78-0.66,8.26-1.98,8.88c-1.32,0.62-3.94,1.48-4.65-0.12c-0.71-1.59-0.55-4.49,0.14-7.05
		c0.68-2.56,1.05-4.85,1.3-5.15c0.25-0.3-1.73-1.75-3.5-0.97s-2.89,3.31-3.48,5.8c-0.59,2.49-1.36,8.3,0.19,10.42
		c1.55,2.13,2.9,3.42,4.56,3.55C176.59,384.82,178.67,384.43,178.67,384.43L178.67,384.43z"/>
	<path class="st0" d="M197.69,381.23c0,0,5.05-1.24,5.95-4.47c0.9-3.23,1.95-11.92,1.8-12.82c-0.16-0.9-1.36-2.64-2.6-2.22
		c-1.24,0.42-2.08,2.61-2.39,5.24c-0.31,2.63-0.25,7.8-1.45,8.39c-1.2,0.58-3.59,1.39-4.33-0.11c-0.73-1.51-0.71-4.24-0.18-6.66
		c0.52-2.42,0.76-4.58,0.99-4.87c0.22-0.28-1.69-1.66-3.29-0.92c-1.61,0.74-2.54,3.13-2.98,5.48c-0.44,2.35-0.89,7.84,0.64,9.85
		c1.53,2.01,2.84,3.23,4.39,3.36C195.78,381.6,197.69,381.23,197.69,381.23L197.69,381.23z"/>
	<path class="st0" d="M212.41,358.93c0.4,0.17,0.79,0.33,1.19,0.49C213.2,359.26,212.8,359.09,212.41,358.93L212.41,358.93z"/>
	<path class="st0" d="M216.49,376.6c0,0,1.93-0.46,3.61-1.57l-2.13-4.34c-0.06,0.06-0.12,0.1-0.19,0.14
		c-1.2,0.57-3.59,1.37-4.33-0.11c-0.73-1.48-0.71-4.16-0.18-6.53c0.17-0.78,0.31-1.53,0.43-2.19l-1.55-3.17
		c-0.31-0.13-0.63-0.27-0.94-0.41c-0.08,0.03-0.17,0.06-0.25,0.09c-1.61,0.72-2.54,3.07-2.98,5.37c-0.44,2.31-0.89,7.69,0.64,9.66
		c1.53,1.97,2.84,3.17,4.39,3.29C214.57,376.97,216.49,376.6,216.49,376.6L216.49,376.6z"/>
	<path class="st0" d="M133.35,353.06c1.6,0,2.9,1.3,2.9,2.9c0,1.6-1.3,2.9-2.9,2.9s-2.9-1.3-2.9-2.9
		C130.45,354.35,131.75,353.06,133.35,353.06L133.35,353.06z"/>
	<path class="st0" d="M144.42,355.63c1.6,0,2.9,1.3,2.9,2.9s-1.3,2.9-2.9,2.9c-1.6,0-2.9-1.3-2.9-2.9S142.82,355.63,144.42,355.63
		L144.42,355.63z"/>
	<path class="st0" d="M153.81,357.05c1.6,0,2.9,1.3,2.9,2.9c0,1.6-1.3,2.9-2.9,2.9c-1.6,0-2.9-1.3-2.9-2.9
		C150.92,358.34,152.22,357.05,153.81,357.05L153.81,357.05z"/>
	<path class="st0" d="M166.68,357.3c1.6,0,2.9,1.3,2.9,2.9c0,1.6-1.3,2.9-2.9,2.9c-1.6,0-2.9-1.3-2.9-2.9
		C163.79,358.6,165.09,357.3,166.68,357.3L166.68,357.3z"/>
	<path class="st0" d="M176.72,356.4c1.6,0,2.9,1.3,2.9,2.9c0,1.6-1.3,2.9-2.9,2.9c-1.6,0-2.9-1.3-2.9-2.9
		C173.83,357.7,175.12,356.4,176.72,356.4L176.72,356.4z"/>
	<path class="st0" d="M186.38,355.24c1.6,0,2.9,1.3,2.9,2.9s-1.3,2.9-2.9,2.9c-1.6,0-2.9-1.3-2.9-2.9S184.78,355.24,186.38,355.24
		L186.38,355.24z"/>
	<path class="st0" d="M194.23,353.7c1.6,0,2.9,1.3,2.9,2.9c0,1.6-1.3,2.9-2.9,2.9c-1.6,0-2.9-1.3-2.9-2.9
		C191.33,355,192.63,353.7,194.23,353.7L194.23,353.7z"/>
	<path class="st0" d="M205.5,355.72c-0.53,0.58-1.29,0.94-2.14,0.94c-1.6,0-2.9-1.3-2.9-2.9c0-0.27,0.04-0.53,0.11-0.78
		C202.19,353.94,203.83,354.85,205.5,355.72L205.5,355.72z"/>
	<path class="st0" d="M133.54,349.71c0,0,21.24,7.21,36.29,5.92c15.06-1.29,22.39-2.7,24.58-4.63c0.46-0.4,0.87-0.78,1.21-1.13
		c-2.07-1.4-4.08-2.89-6.03-4.44c-0.68,0.04-1.35,0.1-2,0.17c-3.48,0.39-15.57,3.99-21.49,3.73c-5.92-0.26-22.91-1.67-26.51-2.7
		c-3.6-1.03-5.53-1.29-6.18,0.26S133.54,349.71,133.54,349.71L133.54,349.71z"/>
	<path class="st0" d="M148.6,317.64c0,0,7.34,2.94,10.68,1.35c2.04-0.97,4.08-2.49,5.36-3.53c-0.59-1.1-1.16-2.22-1.71-3.35
		c-0.18-0.01-0.37-0.01-0.56,0.01c-2.7,0.25-12.36-0.49-13.64,0.61c-1.29,1.1-1.16,2.45-1.16,3.06
		C147.57,316.42,148.6,317.64,148.6,317.64L148.6,317.64z M165.64,314.63c0.22-0.19,0.34-0.3,0.34-0.3s-0.37-1.01-1.35-1.67
		C164.96,313.33,165.3,313.98,165.64,314.63L165.64,314.63z"/>
	<path class="st0" d="M152.72,308.47c0,0,5.58,1.96,9.23,1.54c-0.95-2.09-1.83-4.22-2.63-6.39c-2.98-0.02-5.81,0.06-6.47,0.55
		c-1.29,0.97-1.16,2.15-1.16,2.69C151.69,307.39,152.72,308.47,152.72,308.47L152.72,308.47z"/>
	<path class="st0" d="M144.19,322.68c0,0-5.08,9.01-6.01,11.63c-0.92,2.62-1.08,8.7,1.77,9.63c2.85,0.92,3.47,0.85,4.54,0.31
		c1.08-0.54,1.77-1.08,1.77-1.08s0,1.46,0.69,1.93c0.69,0.46,3,1.31,4.93,0.85c1.93-0.46,2.23-1.39,2.23-1.39l0.15-0.62
		c0,0,0.69,1.85,2,2.23s4.47,0.62,5.01,0.08c0.54-0.54,1.39-1.46,1.39-1.46s0.39,1.93,1.23,2.23c0.85,0.31,4.47,0.77,5.54-0.08
		c1.08-0.85,1.54-1.77,1.54-1.77s0.39,1,2.08,1.39c1.69,0.39,3.93,0.31,4.39-0.31c0.46-0.62,0.62-1.39,0.62-1.39
		s0.31,1.08,1.39,1.08c1.08,0,4.62,0.23,5.31-0.92c0.69-1.16,1-2.16,1-2.16l0.1-0.56c-1.21-1.07-2.4-2.17-3.56-3.3
		c0.05,1.71,0.03,3.25-0.17,3.48c-0.46,0.54-1.16,1-2.23,0.46c-1.08-0.54-1.08-1.69-1.16-2.7c-0.04-0.53,0.03-2.8,0.1-4.79
		c-0.62-0.67-1.23-1.34-1.82-2.03c-0.01,0.67-0.01,1.45,0.03,2.35c0.15,3.62-0.08,6.7-0.23,7.16c-0.15,0.46-1.85,1-2.62,0.54
		c-0.77-0.46-0.92-2.23-0.77-4.85c0.09-1.57,0.6-5.45,0.99-8.31c-0.91-1.14-1.8-2.3-2.66-3.48c-0.45,4.07-1.15,10.68-1.1,11.95
		c0.08,1.85-0.54,5.01-2,5.24s-3.85-0.46-4-2.08s2.39-10.24,2.77-12.09c0.39-1.85,0.46-3.23,0.46-3.23s-2.39-1.39-2.7-0.23
		c-0.31,1.16-2.16,10.32-2.7,12.17c-0.54,1.85-1.54,4.47-2.39,4.93c-0.85,0.46-3.16,0.69-3.62-0.62c-0.46-1.31,0.31-4.16,1.23-6.7
		c0.92-2.54,3.08-9.4,3.08-9.4s-1.08-2-2.23-1.39c-1.16,0.62-3.62,9.24-4.62,11.24c-1,2-1.62,5.08-2.7,5.16
		c-1.08,0.08-3.39,0.15-3.16-1.39c0.23-1.54,3.85-8.55,3.85-8.55s2.16-5.39,2.46-6.16c0.31-0.77,0.54-1.62,0.54-1.62
		s-1.85-1.62-2.62-0.77c-0.77,0.85-4.39,10.47-5.31,12.48c-0.92,2-1.69,3.54-2.46,4.24c-0.77,0.69-3.47,0.54-3.62-0.62
		s-0.39-2.77,0.85-4.93c1.23-2.16,4.93-9.78,4.93-9.78s-0.46-1-0.92-1.46C145.35,322.75,144.19,322.68,144.19,322.68L144.19,322.68z
		"/>
	<path class="st0" d="M361.88,388.43c0,0-5.81,0.1-7.36-3.4c-1.54-3.5-4.2-13.33-4.18-14.43c0.02-1.1,1.06-3.5,2.51-3.4
		c1.45,0.1,2.76,2.41,3.55,5.39c0.79,2.98,1.6,9.05,3.03,9.36c1.43,0.31,4.22,0.52,4.78-1.46c0.56-1.99,0.06-5.18-0.93-7.84
		c-0.99-2.67-1.63-5.12-1.92-5.39c-0.29-0.26,1.59-2.46,3.5-2.09c1.91,0.37,3.35,2.88,4.24,5.49c0.89,2.61,2.33,8.89,0.97,11.71
		c-1.36,2.82-2.6,4.65-4.3,5.28C364.06,388.28,361.88,388.43,361.88,388.43L361.88,388.43z"/>
	<path class="st0" d="M336.61,389.88c0,0-5.45,0.1-5.98-3.24c-0.53-3.34-0.45-12.71-0.15-13.75c0.3-1.05,1.9-3.34,3.22-3.24
		c1.33,0.1,1.95,2.29,1.91,5.13c-0.04,2.84-0.85,8.62,0.4,8.92c1.25,0.3,3.8,0.5,4.84-1.4c1.03-1.89,1.4-4.93,1.17-7.48
		c-0.23-2.54-0.19-4.88-0.39-5.13c-0.21-0.25,2.12-2.34,3.8-1.99c1.69,0.35,2.38,2.74,2.53,5.23c0.15,2.49-0.14,8.47-2.14,11.16
		c-2,2.69-3.63,4.44-5.38,5.03C338.69,389.73,336.61,389.88,336.61,389.88L336.61,389.88z"/>
	<path class="st0" d="M317.56,386.35c0,0,5.18,1.53,6.79-1.38c1.62-2.91,3.56-8.68,4.13-10.39c0.57-1.72,0.76-3.24,0.76-3.24
		s-2.8-2.43-3.47-1s-2.85,7.63-3.99,8.53c-1.14,0.91-2.66,1.38-3.42,0.52c-0.76-0.86-0.86-1.19-0.43-2.29
		c0.43-1.1,2.33-6.87,2.47-7.2c0.14-0.33-1.9-1.86-2.99-1.53c-1.09,0.33-3.37,4.86-4.23,6.48c-0.86,1.62-1.85,5.48-1.19,7.15
		c0.67,1.67,2.42,3.15,3.42,3.62C316.42,386.11,317.56,386.35,317.56,386.35L317.56,386.35z"/>
	<path class="st0" d="M300.26,381.15c0,0,4.66,1.81,5.51,0.81c0.86-1,6.13-9.3,6.56-10.92c0.43-1.62-0.05-3.62-1.28-3.67
		c-1.24-0.05-2.52,0.33-3.23,1.53c-0.71,1.19-2.85,6.01-3.56,6.25c-0.71,0.24-1.95-0.24-1.52-1.24c0.43-1,2-4.39,2.47-5.29
		c0.48-0.91,0.86-1.67,0.86-1.67s-1.9-2.24-3.23-1.33c-1.33,0.91-2.66,4.53-3.71,6.44c-1.05,1.91-2.42,3.24-1.52,5.53
		c0.9,2.29,1.47,2.62,1.9,2.86C299.93,380.68,300.21,381.15,300.26,381.15L300.26,381.15z"/>
	<path class="st0" d="M295.83,363.37c0,0,2.08,0.53,1.21,2.96c-0.87,2.42-3.72,8.09-5.51,8.97c-1.79,0.87-5.99,1.55-7.78,0.58
		c-0.84-0.46-2.02-1.44-3.04-2.35l1.65-3.37c0.29,0.23,0.58,0.41,0.86,0.48c1.26,0.34,3.48,2.52,6.33-0.53
		c2.85-3.05,4.49-6.35,4.49-6.35L295.83,363.37L295.83,363.37z"/>
	<path class="st0" d="M344.91,361.9c0,0,8.94-0.26,11.78-0.65c2.85-0.39,2.85-0.39,2.85-0.39s1.55-2.46-0.26-4.27
		c-1.81-1.81-5.05-4.79-9.32-3.24c-4.27,1.55-6.22,3.37-6.6,4.92s0.13,3.63,0.13,3.63H344.91L344.91,361.9z"/>
	<path class="st0" d="M324.15,361.22h15.84c0,0,0.26-3.62-1.61-5.43c-1.87-1.81-7.02-2.26-7.02-2.26s-4.83,0.58-6.05,2.39
		C324.09,357.73,324.15,361.22,324.15,361.22L324.15,361.22z"/>
	<path class="st0" d="M303.09,359.28h16.1c0,0-0.19-4.01-2.51-5.88c-2.32-1.87-6.5-2.52-8.82-2.13c-2.32,0.39-4.64,3.42-4.89,4.52
		C302.71,356.89,303.09,359.28,303.09,359.28L303.09,359.28z"/>
	<path class="st0" d="M312.57,347.14c0,0,16.73,2.7,27.8,1.93c11.07-0.77,18.53-3.6,18.53-3.6s-1.03-3.86-2.06-5.02
		c-1.03-1.16-2.83-2.83-2.83-2.83s-12.1,2.96-16.35,2.32c-4.25-0.64-11.2-0.39-13.64-0.77c-2.45-0.39-3.99-0.39-3.99-0.39
		L312.57,347.14L312.57,347.14z"/>
	<path class="st0" d="M349.38,329.12c2.06,0,3.73,1.67,3.73,3.73s-1.67,3.73-3.73,3.73c-2.06,0-3.73-1.67-3.73-3.73
		S347.32,329.12,349.38,329.12L349.38,329.12z"/>
	<path class="st0" d="M337.15,328.99c2.06,0,3.73,1.67,3.73,3.73c0,2.06-1.67,3.73-3.73,3.73c-2.06,0-3.73-1.67-3.73-3.73
		C333.42,330.66,335.09,328.99,337.15,328.99L337.15,328.99z"/>
	<path class="st0" d="M326.47,328.09c2.06,0,3.73,1.67,3.73,3.73c0,2.06-1.67,3.73-3.73,3.73c-1.91,0-3.49-1.44-3.71-3.29
		c1.14-1.35,2.25-2.74,3.32-4.15C326.22,328.09,326.34,328.09,326.47,328.09L326.47,328.09z"/>
	<path class="st0" d="M341.02,307.62c2.06,0,3.73,1.67,3.73,3.73c0,2.06-1.67,3.73-3.73,3.73c-2.06,0-3.73-1.67-3.73-3.73
		C337.28,309.29,338.95,307.62,341.02,307.62L341.02,307.62z"/>
	<path class="st0" d="M333.55,324.61c0,0,3.99,2.45,7.59,2.19c3.6-0.26,6.05-0.64,7.34-1.93c1.29-1.29,1.54-5.15,1.54-5.15
		l-14.67-0.26c0,0-2.32,2.57-2.32,3.35S333.55,324.61,333.55,324.61L333.55,324.61z"/>
	<path class="st0" d="M349.84,302.1c0,0-1.03,2.39-0.26,4.52c0.77,2.13,2.77,3.49,3.67,4.2c0.9,0.71,1.42,2.07,0.97,2.91
		c-0.45,0.84-0.84,2.71-2.38,2.71c-1.55,0-5.67-2.65-5.92-6.53c-0.26-3.88,0.39-5.94,1.29-6.78
		C348.11,302.29,349.84,302.1,349.84,302.1L349.84,302.1z"/>
	<path class="st0" d="M166.93,167.68c0,0,7.66-7.19,9.98-8.87c2.32-1.68,3.17-2.11,3.17-2.11s0.75,0.72,0.29,1.79
		c-0.46,1.07-2.14,4.36-3.67,5.97c-1.53,1.61-2.64,3.18-2.99,3.47c-0.05,0.04-0.19,0.07-0.4,0.1h-5.42L166.93,167.68L166.93,167.68z
		"/>
	<path class="st0" d="M185.24,156.87c0,0-2.54,2.08-5.24,6.24c-2.27,3.5-3.23,4.65-3.47,4.93h6.35c0.42-0.46,1-1.41,1.67-3.39
		c1.46-4.31,1.39-5.31,1.31-5.93C185.78,158.1,185.24,156.87,185.24,156.87L185.24,156.87z"/>
	<path class="st0" d="M195.17,156.87c0,0-3.23,2.54-5.47,5.78c-2.23,3.23-2.39,3-2.16,4.39c0.08,0.45,0.34,0.78,0.68,1h6.07
		c0.56-0.79,1.76-2.66,1.87-4.32c0.15-2.16,0.23-4.77-0.08-5.62C195.79,157.26,195.17,156.87,195.17,156.87L195.17,156.87z"/>
	<path class="st0" d="M201.26,156.72c0,0-2.7,1.93-3.16,4.54c-0.46,2.62-0.62,6.01,0.46,6.7c0.04,0.03,0.09,0.05,0.14,0.08h5.04
		c0.73-0.76,1.12-2.49,1.06-3.78c-0.08-1.69-0.62-5.24-1.39-6.24C202.64,157.02,201.26,156.72,201.26,156.72L201.26,156.72z"/>
	<path class="st0" d="M209.5,155.95c0,0-1.77,1.93-1.85,4.39c-0.08,2.46,0.08,5.47,1.23,6.7c0.45,0.48,0.88,0.8,1.26,1h4.5
		c0.21-0.81,0.57-2.55,0.17-4.08c-0.54-2.08-2.23-5.93-3.08-6.85C210.88,156.18,209.5,155.95,209.5,155.95L209.5,155.95z"/>
	<path class="st0" d="M216.58,155.87c0,0-0.46,1.85,0.08,4.24c0.54,2.39,1,5.24,2,6.31c1,1.08,1.39,1.39,1.39,1.39
		s6.24,0.23,7.01,0.23c0.77,0,1.46-1,0.08-2.31c-1.39-1.31-6.16-5.62-7.09-6.62C219.12,158.1,216.58,155.87,216.58,155.87
		L216.58,155.87z"/>
	<path class="st0" d="M219.89,154.02c0,0-0.46,0.08,1.93,3.93c2.39,3.85,5.93,7.93,7.86,8.78c1.67,0.74,3.75,1.12,4.57,1.31h1.99
		c-0.2-0.66-0.9-2.6-2.48-3.93c-1.93-1.62-9.32-8.93-11.01-9.86C221.05,153.33,219.89,154.02,219.89,154.02L219.89,154.02z"/>
	<path class="st0" d="M197.54,149.55c1.4,0,2.54,1.14,2.54,2.54c0,1.4-1.14,2.54-2.54,2.54c-1.4,0-2.54-1.14-2.54-2.54
		C195,150.69,196.14,149.55,197.54,149.55L197.54,149.55z"/>
	<path class="st0" d="M198.02,143.18c1.4,0,2.54,1.14,2.54,2.54c0,1.4-1.14,2.54-2.54,2.54c-1.4,0-2.54-1.14-2.54-2.54
		C195.47,144.32,196.61,143.18,198.02,143.18L198.02,143.18z"/>
	<path class="st0" d="M197.88,136.81c1.4,0,2.54,1.14,2.54,2.54c0,1.4-1.14,2.54-2.54,2.54c-1.4,0-2.54-1.14-2.54-2.54
		C195.34,137.95,196.48,136.81,197.88,136.81L197.88,136.81z"/>
	<path class="st0" d="M198.02,130.98c1.4,0,2.54,1.14,2.54,2.54c0,1.4-1.14,2.54-2.54,2.54c-1.4,0-2.54-1.14-2.54-2.54
		C195.47,132.12,196.61,130.98,198.02,130.98L198.02,130.98z"/>
	<path class="st0" d="M197,124.07c1.4,0,2.54,1.14,2.54,2.54c0,1.4-1.14,2.54-2.54,2.54c-1.4,0-2.54-1.14-2.54-2.54
		C194.46,125.2,195.6,124.07,197,124.07L197,124.07z"/>
	<path class="st0" d="M204.32,120.95c1.4,0,2.54,1.14,2.54,2.54c0,1.4-1.14,2.54-2.54,2.54c-1.4,0-2.54-1.14-2.54-2.54
		C201.78,122.09,202.92,120.95,204.32,120.95L204.32,120.95z"/>
	<path class="st0" d="M206.28,127.45c1.4,0,2.54,1.14,2.54,2.54c0,1.4-1.14,2.54-2.54,2.54c-1.4,0-2.54-1.14-2.54-2.54
		C203.74,128.59,204.88,127.45,206.28,127.45L206.28,127.45z"/>
	<path class="st0" d="M207.3,134.57c1.4,0,2.54,1.14,2.54,2.54c0,1.4-1.14,2.54-2.54,2.54c-1.4,0-2.54-1.14-2.54-2.54
		C204.76,135.71,205.9,134.57,207.3,134.57L207.3,134.57z"/>
	<path class="st0" d="M207.78,141.08c1.4,0,2.54,1.14,2.54,2.54c0,1.4-1.14,2.54-2.54,2.54c-1.4,0-2.54-1.14-2.54-2.54
		C205.23,142.22,206.37,141.08,207.78,141.08L207.78,141.08z"/>
	<path class="st0" d="M207.98,148.67c1.4,0,2.54,1.14,2.54,2.54c0,1.4-1.14,2.54-2.54,2.54c-1.4,0-2.54-1.14-2.54-2.54
		C205.44,149.81,206.58,148.67,207.98,148.67L207.98,148.67z"/>
	<path class="st0" d="M210.5,117.09c1.4,0,2.54,1.14,2.54,2.54c0,1.4-1.14,2.54-2.54,2.54c-1.4,0-2.54-1.14-2.54-2.54
		C207.96,118.23,209.09,117.09,210.5,117.09L210.5,117.09z"/>
	<path class="st0" d="M213.33,123.65c1.4,0,2.54,1.14,2.54,2.54c0,1.4-1.14,2.54-2.54,2.54c-1.4,0-2.54-1.14-2.54-2.54
		C210.79,124.79,211.93,123.65,213.33,123.65L213.33,123.65z"/>
	<path class="st0" d="M215.26,129.83c1.4,0,2.54,1.14,2.54,2.54c0,1.4-1.14,2.54-2.54,2.54c-1.4,0-2.54-1.14-2.54-2.54
		C212.72,130.97,213.86,129.83,215.26,129.83L215.26,129.83z"/>
	<path class="st0" d="M216.42,136.39c1.4,0,2.54,1.14,2.54,2.54c0,1.4-1.14,2.54-2.54,2.54c-1.4,0-2.54-1.14-2.54-2.54
		C213.88,137.53,215.01,136.39,216.42,136.39L216.42,136.39z"/>
	<path class="st0" d="M216.93,142.57c1.4,0,2.54,1.14,2.54,2.54c0,1.4-1.14,2.54-2.54,2.54c-1.4,0-2.54-1.14-2.54-2.54
		C214.39,143.71,215.53,142.57,216.93,142.57L216.93,142.57z"/>
	<path class="st0" d="M217.06,148.62c1.4,0,2.54,1.14,2.54,2.54c0,1.4-1.14,2.54-2.54,2.54c-1.4,0-2.54-1.14-2.54-2.54
		C214.52,149.76,215.66,148.62,217.06,148.62L217.06,148.62z"/>
	<path class="st0" d="M324.09,152.22c0,0,1.83,0.21,6.88,4.37c5.05,4.16,7.81,5.22,11.38,5.65c3.57,0.42,4.29,1.15,4.42,2.63
		c0.13,1.49,0.13,2.76-0.93,2.89c-1.06,0.13-11.63,1.06-15.46-3.01c-3.82-4.08-6.92-9.51-6.88-10.79
		C323.53,152.69,324.09,152.22,324.09,152.22L324.09,152.22z"/>
	<path class="st0" d="M318.69,152.94c0,0,3.14,3.4,5.01,5.73c1.87,2.34,5.22,4.88,5.35,6.28s-0.47,1.78-1.1,2
		c-0.64,0.21-4.29,0.76-5.82-1.49c-1.53-2.25-4.67-8.58-4.25-10.28C318.31,153.49,318.69,152.94,318.69,152.94L318.69,152.94z"/>
	<path class="st0" d="M293.99,168.04c1.2-0.25,2.29-0.6,3.15-1.08c4.54-2.54,8.16-5.31,8.16-6.7c0-1.39-2.7-4.54-4.93-4.47
		c-2.23,0.08-5.47,2.62-7.55,4.24c-2.08,1.62-8.16,4.47-10.32,5.16c-2.16,0.69-3.23,2.23-2.7,2.77c0.03,0.03,0.06,0.05,0.09,0.08
		H293.99L293.99,168.04z"/>
	<path class="st0" d="M298.52,151.71c0,0-5.47,7.09-14.02,8.39c-8.55,1.31-15.63,0.92-18.48-0.62c-2.85-1.54-3.39-3-3.39-3
		s11.86-0.39,15.63-2.31c3.77-1.93,12.24-7.86,14.79-9.93c2.54-2.08,3.7-2.16,3.85-0.69c0.15,1.46,0.15,1.85-0.85,3
		c-1,1.16-1.69,2.54-1.69,2.54s0.67,1.14,2.1,1.45C297.89,150.85,298.52,151.71,298.52,151.71L298.52,151.71z"/>
	<path class="st0" d="M296.75,132.46c0,0,1,4.85-0.15,6.7c-1.16,1.85-4.24,5.01-11.47,4.47c-7.24-0.54-12.63-2.23-13.32-3.39
		c-0.69-1.16-0.62-1.54,1.16-1.77c1.77-0.23,9.86,0.15,14.79-2.39C292.67,133.54,296.75,132.46,296.75,132.46L296.75,132.46z"/>
	<path class="st0" d="M273.96,126.37c0,0,7.78,1.23,13.25-1c5.47-2.23,11.32-4.93,12.4-5.62c1.08-0.69,1.85-0.85,1.85-0.85
		s-0.31,2.54-1.54,4.31c-1.23,1.77-2,2.62-2,2.62s1.16,1,1.08,1.62c-0.08,0.62-3.47,2.7-5.31,3.39c-1.85,0.69-13.63,1.23-15.71,0.39
		c-2.08-0.85-3.7-1-4-2.39C273.65,127.45,273.96,126.37,273.96,126.37L273.96,126.37z"/>
	<path class="st0" d="M280.42,109.43c0,0,3.93,4.93,8.93,7.39c5.01,2.46,8.7,3.23,9.78,2.77c1.08-0.46,2.23-1.08,2.23-1.08
		l2.77-8.01c0,0-3.54,1.16-7.62,1c-4.08-0.15-7.93-0.69-10.94-1.54C282.58,109.12,280.42,109.43,280.42,109.43L280.42,109.43z"/>
	<path class="st0" d="M303.6,94.34c0,0-0.69,3.08,2.23,6.7c2.93,3.62,3.54,4.7,3.54,4.7s-0.39,3.47-2,3.7
		c-1.62,0.23-3.16-0.08-3.7-1.31c-0.54-1.23-3-5.39-2.85-8.24C300.99,97.03,303.6,94.34,303.6,94.34L303.6,94.34z"/>
	<path class="st0" d="M317.47,91.56c0,0-2.08,3.08-2.08,4.62c0,1.54,1.16,6.47,1.46,7.7s0.23,2.23,0.23,2.23s-5.01,1-5.39,0.23
		c-0.39-0.77-1.69-5.62-0.69-7.78c1-2.16,2.62-5.7,4.08-6.39C316.54,91.49,317.47,91.56,317.47,91.56L317.47,91.56z"/>
	<path class="st0" d="M323.24,94.18c0,0,2.77,0.69,3.23,3.31c0.46,2.62,0.39,7.16,0,7.86c-0.39,0.69-6.16,0.23-6.16,0.23
		s1.46-2.08,2.16-4.93C323.17,97.8,323.24,94.18,323.24,94.18L323.24,94.18z"/>
	<path class="st0" d="M322.28,168.04c-0.79-1.01-5.28-6.86-6.12-11.55c-0.92-5.16-1.08-8.93-1.08-8.93s-2.23-0.54-3.23,0.23
		c-1,0.77-1.16,1.93-1,2.85c0.15,0.92,0.23,1.31,0.23,1.31l-4.47-2.7c0,0-1.54,1.54-0.62,4.93c0.92,3.39,3.62,9.24,5.16,10.94
		c1.02,1.12,2.75,2.28,3.8,2.93H322.28L322.28,168.04z"/>
	<path class="st0" d="M318.47,136.38c0,0-0.23,1.62-1.08,3.31c-0.85,1.69-3.54,4.54-6.47,6.39s-6.01,3.77-6.7,2.85
		c-0.69-0.92-1.93-2.16,0.15-5.7c2.08-3.54,3.85-7.24,4.31-8.93c0.46-1.69,6.32-3.77,8.01-4.7c1.69-0.92,4-1.62,4-1.62
		s1.08,0.39,0,1.39c-1.08,1-8.16,6.78-9.47,8.32c-1.31,1.54-2.54,5.01-0.15,3.39c2.39-1.62,5.47-4.77,6.31-4.7
		C318.24,136.46,318.47,136.38,318.47,136.38L318.47,136.38z"/>
	<path class="st0" d="M321,141.59c0,0,2.28-1.12,4.56-3.22c2.28-2.09,3.86-4.54,3.86-5.62s-1.39-0.97-2.36-0.66
		c-0.97,0.31-2.12,0.31-2.78,0.12c-0.66-0.19-0.46-0.89-0.54-1.4c-0.08-0.5-1.89-0.5-2.63,0.58c-0.73,1.09-1.04,3.14-0.89,5.66
		C320.38,139.57,321,141.59,321,141.59L321,141.59z"/>
	<path class="st0" d="M306.61,128.14c0,0,2.46,2.23,5.39,0.62c2.93-1.62,5.62-3.23,5.78-4.7c0.15-1.46-2.7-1.93-3.31-2.16
		c-0.62-0.23-0.92-0.54-0.92-0.54s0.08-0.08,1.08-0.62c1-0.54,1.39-1.08,0.39-1.69c-1-0.62-2.93,0.31-4.08,1.62
		c-1.16,1.31-4.24,4.39-4.47,5.78C306.22,127.84,306.61,128.14,306.61,128.14L306.61,128.14z"/>
	<path class="st0" d="M308.38,117.44c0,0,1.62,0.92,4.77-0.08c3.16-1,4.16-2.23,4.16-2.23s-0.46-0.77-1.16-1.08
		c-0.69-0.31-0.92-0.54-0.92-0.54s-0.85-0.31,0.23-1.08c1.08-0.77,1.31-1.39,0.31-1.85c-1-0.46-2.85-1.16-4.7,0.92
		C309.23,113.59,308.38,117.44,308.38,117.44L308.38,117.44z"/>
	<path class="st0" d="M324.9,128.41c0,0,6.99,1.9,11.55,0c4.56-1.9,9.08-4.73,10.08-6.09c1-1.36,1.08-1.74,1.08-1.74
		s1.31,0.04,2.09,0.74c0.77,0.7,0.85,0.97,0.85,0.97s1.31-0.93,1.31-2.17s0.42-4.96-1.89-6.47c-2.32-1.51-9.2-1.82-9.85-1.82
		s-0.66,0-0.66,0s-0.15-0.66-0.89-0.97c-0.73-0.31-5.41-0.19-6.18,0.35c-0.77,0.54-1.08,1.01-1.08,1.01s-0.5,5.16-1.62,7.29
		c-1.12,2.13-2.7,4.88-4.02,6.16c-1.31,1.28-2.24,2.4-2.24,2.4L324.9,128.41L324.9,128.41z"/>
	<path class="st0" d="M322.14,107.84c0,0-2.01,1.6-1.56,3.24c0.45,1.64,1.75,3.38,2.86,3.46c1.12,0.07,1.49,0.89,3.46-0.97
		c1.97-1.86,2.49-2.49,2.42-3.57c-0.07-1.08-0.52-1.64-1.15-1.82c-0.63-0.19-1.49-0.22-1.49-0.22s0-0.52,0.52-0.6
		c0.52-0.07,2.94-0.22,3.76,0.15c0.82,0.37,1.45,1.6,0.97,2.45c-0.48,0.86-3.24,3.87-4.43,4.91c-1.19,1.04-3.16,1.41-4.76,0.89
		c-1.6-0.52-4.46-3.12-4.35-4.28c0.11-1.15,0.07-2.16,1.19-3.09c1.12-0.93,1.34-0.97,1.6-0.93
		C321.43,107.51,322.14,107.84,322.14,107.84L322.14,107.84z"/>
	<path class="st0" d="M205.6,564.76c0,0-6.02-5.49-1.59-10.62c4.42-5.13,9.91-9.73,10.09-13.8c0.18-4.07-7.79-14.87-10.26-23.01
		c-2.48-8.14-6.72-21.59-1.06-27.96c5.66-6.37,8.32-10.26,14.87-9.03c6.55,1.24,12.74,5.13,10.97,11.5
		c-1.77,6.37-3.54,9.38-5.84,9.56s-4.6,0.18-4.96-2.65c-0.35-2.83-0.53-4.25-1.42-4.96c-0.88-0.71-3.89,0.71-3.89,3.72
		s0.88,9.38,5.49,10.62c4.6,1.24,18.94-0.71,22.65,0c3.72,0.71,10.09,5.13,15.57,11.5c5.49,6.37,7.43,8.67,8.49,8.85
		s3.19,1.06,1.59,2.83c-1.59,1.77-1.77,2.3-1.77,2.3s3.54,2.3,5.66,2.3c2.12,0,3.19-1.24,4.25-1.06s2.48,2.48,2.48,4.25
		s-0.18,1.77-0.18,1.77s3.19,0.35,5.13,2.12c1.95,1.77,7.26,11.68,11.86,13.8c4.6,2.12,9.38,2.12,9.38,2.12s-3.89,6.72-7.08,6.55
		s-11.5-2.3-13.27-3.89c-1.77-1.59-5.31-4.25-5.31-4.25s-0.35,1.95,1.24,3.72c1.59,1.77,2.12,3.01,2.12,3.01s-0.88,1.95-3.72,0.71
		s-4.6-0.88-6.37-3.36c-1.77-2.48-5.66-10.09-9.91-12.56c-4.25-2.48-4.07-2.12-4.07-2.12s-1.06,0.88,0.88,4.42
		c1.95,3.54,2.12,5.31,2.12,5.31s-9.56,1.06-11.68-1.24c-2.12-2.3-6.19-5.31-6.19-5.31s-2.65-0.71-3.72-1.06
		c-1.06-0.35-2.48-1.95-2.48-1.95s-1.59,4.25-2.83,5.66c-1.24,1.42-2.12,1.95-1.95,3.54c0.18,1.59,1.42,6.37,1.42,6.37
		s-2.3,0.35-4.6-1.24c-2.3-1.59-5.13-5.84-5.13-5.84s-1.24,1.95-4.6,2.65c-3.36,0.71-9.56-0.53-10.62,1.59
		C206.31,561.75,205.6,564.76,205.6,564.76L205.6,564.76z M251.97,542.64c0,0,6.72-1.42,10.8,2.12c4.07,3.54,8.32,10.26,8.85,12.39
		s1.42,2.65,1.42,2.65v-9.56c0,0,3.19,1.59,6.02,3.89s4.42,3.72,6.72,3.89c2.3,0.18,3.19-0.18,3.19-0.18s-6.02-5.84-8.67-9.03
		c-2.65-3.19-7.96-8.85-13.8-10.09c-5.84-1.24-10.62-1.95-13.1-1.06C250.91,538.57,251.97,542.64,251.97,542.64L251.97,542.64z
		 M209.85,553.61c0,0,7.43-6.9,8.32-11.5c0.88-4.6-5.31-16.81-7.96-21.06c-2.65-4.25-7.08-12.74-6.72-19.29s2.65-12.03,5.49-14.16
		s9.03-5.66,11.33-1.59c2.3,4.07,2.48,6.19,2.12,7.08c-0.35,0.88-1.06,1.24-1.06,1.24s-0.71-2.65-2.48-4.25
		c-1.77-1.59-5.84-3.01-8.49,1.06c-2.65,4.07-3.54,9.03-1.95,12.56c1.59,3.54,6.55,9.91,12.56,9.73c6.02-0.18,15.4-2.3,19.47-1.06
		c4.07,1.24,6.72,2.12,9.56,7.43c2.83,5.31,4.07,7.43,6.9,8.32c2.83,0.88,5.31,1.24,5.31,1.24s-1.77,3.19-5.49,3.01
		c-3.72-0.18-6.37-0.18-6.37-0.18s-0.18,6.02-3.01,8.85c-2.83,2.83-6.02,3.89-6.02,3.89s0.35-0.71,2.83-4.6
		c2.48-3.89,3.01-11.86,1.06-14.69c-1.95-2.83-5.13-8.49-10.8-9.56c-5.66-1.06-12.92,0.18-12.92,0.18s-2.48,1.95,2.48,3.01
		c4.96,1.06,9.03-0.53,13.1,4.07c4.07,4.6,6.19,6.55,5.13,10.09c-1.06,3.54-1.06,3.72-1.06,3.72l-1.24,0.71c0,0,1.06-0.18-3.01-4.6
		c-4.07-4.42-14.51-8.85-18.4-12.74c-3.89-3.89-10.26-10.62-10.62-13.1c-0.35-2.48-1.06-3.19-1.06-3.19s-1.77,7.96,1.42,11.33
		c3.19,3.36,10.8,10.97,15.93,12.92c5.13,1.95,5.31,1.24,5.84,5.13c0.53,3.89,1.59,10.8-0.18,15.93c-1.77,5.13-1.95,6.9-1.95,6.9
		s-1.24-2.3-1.06-6.19c0.18-3.89,0.88-12.03,0.18-13.63c-0.71-1.59-2.83-3.36-3.36-2.12c-0.53,1.24,0,0.88,0,4.96
		c0,4.07,0.53,7.79-3.54,11.5c-4.07,3.72-5.13,3.72-6.9,3.72C211.44,554.67,209.85,553.61,209.85,553.61L209.85,553.61z"/>
	<path class="st0" d="M246.51,546.5c0,0-0.39,2.41,1.64,4.15c2.03,1.74,2.41,2.51,3.76,2.22c1.35-0.29,2.12,0,1.64-1.64
		c-0.48-1.64-0.58-1.93-2.51-3.38C249.12,546.4,246.51,546.5,246.51,546.5L246.51,546.5z"/>
	<path class="st0" d="M259.56,523.51c2.08-0.89,5.96-2.76,10.07-5.8c6.07-4.49,9.46-8.25,9.46-8.25s5.46-1.46,11.16,1.21
		c1.87,0.88,3.4,1.74,4.64,2.59c-0.76-1.8-0.78-3.85-0.16-5.27c-1.76-1.33-3.89-2.4-6.55-2.77c-7.64-1.09-8.86,0.61-14.92,3.76
		c-6.07,3.15-11.04,6.43-14.07,7.76c-1.39,0.61-2.61,1.51-3.51,2.3c0.18,0.2,0.35,0.4,0.53,0.6
		C257.52,521.14,258.62,522.43,259.56,523.51L259.56,523.51z"/>
	<path class="st0" d="M289.25,552.91c1.13,0.03,2.69-0.3,4.64-1.6c4.26-2.84,7.02-5.1,9.85-12.07c-2.67-0.31-3.79-0.59-3.79-0.59
		s-0.92-1.24-1.87-2.79c0.41,2.51,0.81,4.79-0.43,6.11c-1.82,1.94-3.03,5.1-7.04,5.1c-2.82,0-5.03-0.36-6.1-0.57
		C285.88,548.46,287.52,550.87,289.25,552.91L289.25,552.91z"/>
	<path class="st0" d="M299.96,538.65c0,0,3.09,0.77,11.2,1.16c8.11,0.39,9.01,0.51,9.01,0.51s12.36,7.72,18.66,7.72
		c6.31,0,14.03,2.32,23.42-2.7c9.4-5.02,17.25-16.09,18.53-20.72c0.31-1.13,0.51-2.54,0.62-4.03c-0.15,0.02-0.23,0.04-0.23,0.04
		s-2.69-0.09-5.5-0.33c0.32,0.21,0.61,0.45,0.87,0.72c1.93,2.06,0.39,3.35-3.48,9.27c-3.86,5.92-13.51,10.81-21.75,13.13
		c-8.24,2.32-20.85-2.7-23.81-3.86c-2.96-1.16-7.08-4.25-10.43-4.5s-15.7-1.67-15.7-1.67s-0.51-1.03-0.77-1.8
		c-0.26-0.77-0.64-2.19,1.67-6.95c2.32-4.76,7.08-4.89,13.39-6.56s11.33-2.96,15.57-6.18c4.25-3.22,14.8-9.65,23.42-12.23
		c8.62-2.57,11.2-3.09,14.29-1.29c0.55,0.32,0.96,0.62,1.28,0.91c1.58-0.92,3.44-1.16,5.02-1.17c-0.59-0.8-1.19-1.47-1.79-1.93l0,0
		c-0.02,0.57,0.02,0.92,0.02,0.92s-4.01,0.46-8.18-0.46c-3.2-0.71-6.13-0.97-7.31-2.66c-1.73,0.34-3.5,0.85-5.24,1.56
		c-8.24,3.35-17.5,9.01-25.48,13c-5,2.5-10.81,4.49-15.43,5.89c-0.38,0.27-1.25,0.95-2.61,2.08c-1.89,1.58-4.1,1.42-6.94,1.58
		c-0.22,0.01-0.43,0.01-0.65,0c-2.03,1.57-3.47,3.68-4.23,5.13c-1.16,2.19-1.93,6.31-1.16,8.88
		C297,534.66,299.96,538.65,299.96,538.65L299.96,538.65z"/>
	<path class="st0" d="M381.17,520.63c0,0,3.86-0.77,6.82,1.8c2.96,2.57,11.33,7.21,16.99,10.3c5.66,3.09,19.69,4.76,24.97,2.57
		c5.28-2.19,11.84-7.72,13.13-13.64c1.29-5.92-1.67-21.62-7.98-25.48c-6.31-3.86-13.77-7.34-22.52-5.92
		c-8.75,1.42-14.67,4.76-21.37,5.92c-6.69,1.16-12.61,1.93-15.83,1.93c-3.22,0-7.72,0.9-8.49,6.69c-0.77,5.79,0.64,14.03,3.73,14.8
		S381.17,520.63,381.17,520.63L381.17,520.63z M372.16,510.33c0,0-0.9,3.6,2.19,4.25c3.09,0.64,8.11,0.26,11.97,2.19
		s16.35,11.71,22.14,13.39c5.79,1.67,13.64,4.38,20.59,1.16c6.95-3.22,11.58-8.88,11.45-13.77c-0.13-4.89-3.6-13.51-6.95-16.47
		c-3.35-2.96-7.98-5.53-16.09-6.05c-8.11-0.51-11.84,1.29-19.05,4.38c-7.21,3.09-11.2,4.89-13.39,4.89c-2.19,0-7.98-1.54-10.43,0.64
		C372.16,507.12,372.16,510.33,372.16,510.33L372.16,510.33z"/>
	<path class="st0" d="M280.8,512.95c-0.75-0.75-2.53-0.2-3.96,1.23s-1.98,3.2-1.23,3.96c0.75,0.75,2.53,0.2,3.96-1.23
		C281.01,515.48,281.56,513.71,280.8,512.95L280.8,512.95z"/>
	<path class="st0" d="M313.02,492.64c-0.91-0.55-2.5,0.41-3.54,2.15c-1.04,1.74-1.15,3.59-0.23,4.14c0.91,0.55,2.5-0.41,3.54-2.15
		C313.82,495.04,313.93,493.19,313.02,492.64L313.02,492.64z"/>
	<path class="st0" d="M324.95,517.46c-0.75-0.75-2.53-0.2-3.96,1.23c-1.43,1.43-1.98,3.2-1.23,3.96c0.75,0.75,2.53,0.2,3.96-1.23
		C325.15,519.98,325.7,518.21,324.95,517.46L324.95,517.46z"/>
	<path class="st0" d="M323.79,529.56c-0.75-0.75-2.53-0.2-3.96,1.23s-1.98,3.2-1.23,3.96c0.75,0.75,2.53,0.2,3.96-1.23
		S324.54,530.31,323.79,529.56L323.79,529.56z"/>
	<path class="st0" d="M341.81,511.41c-0.75-0.75-2.53-0.2-3.96,1.23c-1.43,1.43-1.98,3.2-1.23,3.96c0.75,0.75,2.53,0.2,3.96-1.23
		C342.01,513.93,342.56,512.16,341.81,511.41L341.81,511.41z"/>
	<path class="st0" d="M343.48,523.38c-0.75-0.75-2.53-0.2-3.96,1.23c-1.43,1.43-1.98,3.2-1.23,3.96c0.75,0.75,2.53,0.2,3.96-1.23
		C343.68,525.9,344.23,524.13,343.48,523.38L343.48,523.38z"/>
	<path class="st0" d="M356.74,508.19c-0.75-0.75-2.53-0.2-3.96,1.23c-1.43,1.43-1.98,3.2-1.23,3.96c0.75,0.75,2.53,0.2,3.96-1.23
		C356.94,510.72,357.49,508.94,356.74,508.19L356.74,508.19z"/>
	<path class="st0" d="M361.63,524.28c-0.75-0.75-2.53-0.2-3.96,1.23c-1.43,1.43-1.98,3.2-1.23,3.96c0.75,0.75,2.53,0.2,3.96-1.23
		C361.83,526.8,362.38,525.03,361.63,524.28L361.63,524.28z"/>
	<path class="st0" d="M348.76,534.45c-0.75-0.75-2.53-0.2-3.96,1.23c-1.43,1.43-1.98,3.2-1.23,3.96c0.75,0.75,2.53,0.2,3.96-1.23
		C348.96,536.97,349.51,535.2,348.76,534.45L348.76,534.45z"/>
	<path class="st0" d="M370.87,477c-0.85-0.26-1.95,0.84-2.44,2.46c-0.49,1.62-0.2,3.15,0.65,3.41c0.85,0.26,1.95-0.84,2.44-2.46
		C372.02,478.79,371.73,477.26,370.87,477L370.87,477z"/>
	<path class="st0" d="M402.04,508.7c-0.75-0.75-2.53-0.2-3.96,1.23s-1.98,3.2-1.23,3.96c0.75,0.75,2.53,0.2,3.96-1.23
		S402.8,509.46,402.04,508.7L402.04,508.7z"/>
	<path class="st0" d="M415.43,497.89c-0.75-0.75-2.53-0.2-3.96,1.23s-1.98,3.2-1.23,3.96c0.75,0.75,2.53,0.2,3.96-1.23
		S416.18,498.65,415.43,497.89L415.43,497.89z"/>
	<path class="st0" d="M413.5,512.95c-0.75-0.75-2.53-0.2-3.96,1.23c-1.43,1.43-1.98,3.2-1.23,3.96c0.75,0.75,2.53,0.2,3.96-1.23
		C413.7,515.48,414.25,513.71,413.5,512.95L413.5,512.95z"/>
	<path class="st0" d="M424.56,507.29c-0.75-0.75-2.53-0.2-3.96,1.23c-1.43,1.43-1.98,3.2-1.23,3.96c0.75,0.75,2.53,0.2,3.96-1.23
		C424.77,509.82,425.32,508.04,424.56,507.29L424.56,507.29z"/>
	<path class="st0" d="M433.57,520.55c-0.75-0.75-2.53-0.2-3.96,1.23s-1.98,3.2-1.23,3.96c0.75,0.75,2.53,0.2,3.96-1.23
		S434.33,521.3,433.57,520.55L433.57,520.55z"/>
	<path class="st0" d="M312.04,514.29c0,0,0-5.84,7.73-10.57c7.73-4.73,8.36-3.63,10.72-5.05c2.37-1.42,15.46-17.35,16.72-24.29
		c1.26-6.94,2.68-16.09,1.89-17.03c-0.79-0.95-0.79-0.95-0.79-0.95s5.99-3.79,7.57-6.94c1.58-3.15,3.47-10.57,1.42-13.88
		c-2.05-3.31-3.79-7.41-8.36-5.99c-4.57,1.42-6.47,3.94-8.2,7.1c-1.73,3.15-3.47,5.99-3.47,5.99s-8.67-1.26-14.35,3.94
		c-5.68,5.2-14.04,16.56-16.88,25.71c-2.84,9.15-2.52,17.03-4.1,20.66c-1.58,3.63-5.36,12.62-6.62,14.04
		c-1.26,1.42-1.42,4.42-0.16,6.78c1.26,2.37,4.26,4.42,7.1,4.26s5.05,0,6.94-1.58C311.1,514.92,312.03,514.22,312.04,514.29
		L312.04,514.29z M305,515.5c0,0,2.69-0.22,3.53-2.22c0.85-2,1.31-6.55,4.54-9.24c3.23-2.7,10.7-7.26,15.49-10.65
		c4.78-3.39,14.19-16.51,16.2-24.22s1.85-9.26,1.85-9.26l-3.7-2.16c0,0,5.4-4.78,8.02-8.64c2.62-3.86,3.39-8.02,2.93-10.95
		c-0.46-2.93-3.55-6.33-6.02-3.55c-2.47,2.78-5.25,2.62-5.09,6.02c0.15,3.39,0.15,4.78,1.39,5.86c1.23,1.08,1.23,1.08,1.23,1.08
		s-4.32,1.85-4.63,3.39c-0.31,1.54-1.08,2.31-1.08,2.31s-4.01-5.4-7.25-5.4s-13.11,8.33-17.13,15.89
		c-4.01,7.56-8.79,17.9-9.26,23.76c-0.46,5.86-0.43,7.74-1.28,9.89s-2.62,5.08-4.31,8.7c-1.69,3.62-2.54,3.77-2,6.24
		c0.54,2.46,1.16,2.39,2.7,2.77S305,515.5,305,515.5L305,515.5z"/>
	<path class="st0" d="M316.1,475.65c-0.91-0.55-2.5,0.41-3.54,2.15c-1.04,1.74-1.15,3.59-0.23,4.14c0.91,0.55,2.5-0.41,3.54-2.15
		C316.91,478.05,317.02,476.2,316.1,475.65L316.1,475.65z"/>
	<path class="st0" d="M325.99,473.18c-0.91-0.55-2.5,0.41-3.54,2.15c-1.04,1.74-1.15,3.59-0.23,4.14c0.91,0.55,2.5-0.41,3.54-2.15
		C326.8,475.58,326.9,473.73,325.99,473.18L325.99,473.18z"/>
	<path class="st0" d="M332.16,461.45c-0.91-0.55-2.5,0.41-3.54,2.15c-1.04,1.74-1.15,3.59-0.23,4.14c0.91,0.55,2.5-0.41,3.54-2.15
		C332.97,463.85,333.08,461.99,332.16,461.45L332.16,461.45z"/>
	<path class="st0" d="M328.77,452.18c-0.91-0.55-2.5,0.41-3.54,2.15c-1.04,1.74-1.15,3.59-0.23,4.14c0.91,0.55,2.5-0.41,3.54-2.15
		C329.58,454.58,329.68,452.73,328.77,452.18L328.77,452.18z"/>
	<path class="st0" d="M338.96,471.64c-0.91-0.55-2.5,0.41-3.54,2.15c-1.04,1.74-1.15,3.59-0.23,4.14c0.91,0.55,2.5-0.41,3.54-2.15
		C339.77,474.04,339.87,472.19,338.96,471.64L338.96,471.64z"/>
	<path class="st0" d="M327.84,484.3c-0.91-0.55-2.5,0.41-3.54,2.15c-1.04,1.74-1.15,3.59-0.23,4.14c0.91,0.55,2.5-0.41,3.54-2.15
		C328.65,486.7,328.75,484.85,327.84,484.3L327.84,484.3z"/>
	<path class="st0" d="M351.31,436.43c-0.91-0.55-2.5,0.41-3.54,2.15c-1.04,1.74-1.15,3.59-0.23,4.14c0.91,0.55,2.5-0.41,3.54-2.15
		C352.12,438.83,352.22,436.98,351.31,436.43L351.31,436.43z"/>
	<path class="st0" d="M373.46,497.09c0,0-0.77-6.63,6.48-10.65c7.25-4.01,15.58-6.94,22.53-10.65s14.19-15.27,14.97-19.44
		c0.08-0.45,0.12-1.01,0.11-1.66c-1.32-0.01-2.41-0.03-3.2-0.03c-0.55,0-1.06-0.08-1.54-0.23c-0.06,1.29-0.25,2.56-0.62,3.78
		c-1.23,4.01-3.39,5.25-11.11,10.34c-7.71,5.09-15.43,8.95-20.83,11.73c-5.4,2.78-12.19,12.65-12.19,12.65s-4.17,1.08-4.94,0.62
		c-0.77-0.46-0.77-4.17-1.08-8.18c-0.31-4.01,0-6.94,2.47-15.12c2.47-8.18,7.56-17.59,10.95-22.22c3.39-4.63,12.34-10.8,17.9-11.42
		c5.55-0.62,11.57,0,13.58,1.54c0.61,0.47,1.21,1.03,1.78,1.69c0.4-0.58,0.93-1.15,1.62-1.69c0.44-0.34,0.91-0.62,1.4-0.83
		c-0.85-1.07-1.78-1.95-2.79-2.56c-6.17-3.7-10.34-7.25-22.68-0.77c-12.34,6.48-19.9,16.82-23.76,27.46
		c-3.86,10.65-5.09,27-5.09,30.55c0,3.55,3.7,3.7,7.87,4.63C369.45,497.55,373.46,497.09,373.46,497.09L373.46,497.09z"/>
	<path class="st0" d="M375.04,457.72c-0.85-0.26-1.95,0.84-2.44,2.46c-0.49,1.62-0.2,3.15,0.65,3.41c0.85,0.26,1.95-0.84,2.44-2.46
		C376.18,459.5,375.89,457.98,375.04,457.72L375.04,457.72z"/>
	<path class="st0" d="M380.29,467.59c-0.85-0.26-1.95,0.84-2.44,2.46c-0.49,1.62-0.2,3.15,0.65,3.41c0.85,0.26,1.95-0.84,2.44-2.46
		C381.43,469.38,381.14,467.85,380.29,467.59L380.29,467.59z"/>
	<path class="st0" d="M393.71,463.12c-0.85-0.26-1.95,0.84-2.44,2.46c-0.49,1.62-0.2,3.15,0.65,3.41c0.85,0.26,1.95-0.84,2.44-2.46
		C394.85,464.9,394.56,463.38,393.71,463.12L393.71,463.12z"/>
	<path class="st0" d="M391.55,452.01c-0.85-0.26-1.95,0.84-2.44,2.46c-0.49,1.62-0.2,3.15,0.65,3.41c0.85,0.26,1.95-0.84,2.44-2.46
		C392.69,453.79,392.4,452.27,391.55,452.01L391.55,452.01z"/>
	<path class="st0" d="M388.77,442.6c-0.85-0.26-1.95,0.84-2.44,2.46c-0.49,1.62-0.2,3.15,0.65,3.41c0.85,0.26,1.95-0.84,2.44-2.46
		C389.92,444.38,389.63,442.86,388.77,442.6L388.77,442.6z"/>
	<path class="st0" d="M396.33,443.99c-0.85-0.26-1.95,0.84-2.44,2.46c-0.49,1.62-0.2,3.15,0.65,3.41c0.85,0.26,1.95-0.84,2.44-2.46
		C397.48,445.77,397.19,444.25,396.33,443.99L396.33,443.99z"/>
	<path class="st0" d="M400.96,455.09c-0.85-0.26-1.95,0.84-2.44,2.46c-0.49,1.62-0.2,3.15,0.65,3.41c0.85,0.26,1.95-0.84,2.44-2.46
		C402.1,456.88,401.81,455.35,400.96,455.09L400.96,455.09z"/>
	<path class="st0" d="M407.56,448.8c0,0,2.16,5.86,6.79,5.86c4.63,0,20.06,0.62,27.31-2.62c7.25-3.24,18.67-12.19,20.21-17.28
		c1.54-5.09,2.01-16.97-0.62-20.52l-0.07-0.1c-1.5,0.58-3,0.08-4.79-0.43c0,0-2.77-1.05-4.02-1.98c-1.25-0.92-1.32-2.44-1.85-4.15
		c-0.05-0.17-0.09-0.36-0.13-0.56c-1.43-0.01-2.96,0.35-4.57,1.2c-4.06,2.16-6.82,5.1-9.32,8.32c0.14,0.57,0.23,0.94,0.23,0.94
		s0.19,0.81-0.33,1.71c-0.52,0.9-2.09,3.28-3.56,4.6c-1.15,1.04-2.04,1.59-3.24,1.84c-4.02,5.36-4.4,9.04-8,10.05
		c-3.86,1.08-8.33,0.15-11.26,2.47c-2.93,2.31-2.93,5.09-2.93,6.94S407.56,448.8,407.56,448.8L407.56,448.8z M411.26,448.64
		c0,0,14.5,1.85,20.52,0.62c6.02-1.23,17.13-5.71,21.14-10.65c4.01-4.94,6.79-10.18,6.63-14.19c-0.15-4.01-0.15-6.48-3.39-8.33
		c-3.24-1.85-6.79-2.78-10.03-0.15c-3.24,2.62-8.79,6.79-13.89,12.81c-5.09,6.02-8.02,11.42-11.73,12.5
		c-3.7,1.08-9.1,0.77-9.72,2.31s-0.15,3.7-0.15,3.7S411.42,448.64,411.26,448.64L411.26,448.64z"/>
	<path class="st0" d="M439.84,427.79c-0.85-0.26-1.95,0.84-2.44,2.46c-0.49,1.62-0.2,3.15,0.65,3.41c0.85,0.26,1.95-0.84,2.44-2.46
		C440.98,429.57,440.69,428.05,439.84,427.79L439.84,427.79z"/>
	<path class="st0" d="M446.94,420.23c-0.85-0.26-1.95,0.84-2.44,2.46c-0.49,1.62-0.2,3.15,0.65,3.41c0.85,0.26,1.95-0.84,2.44-2.46
		C448.08,422.01,447.79,420.48,446.94,420.23L446.94,420.23z"/>
	<path class="st0" d="M447.4,433.8c-0.85-0.26-1.95,0.84-2.44,2.46c-0.49,1.62-0.2,3.15,0.65,3.41c0.85,0.26,1.95-0.84,2.44-2.46
		C448.54,435.59,448.25,434.06,447.4,433.8L447.4,433.8z"/>
	<path class="st0" d="M455.12,421.15c-0.85-0.26-1.95,0.84-2.44,2.46c-0.49,1.62-0.2,3.15,0.65,3.41c0.85,0.26,1.95-0.84,2.44-2.46
		C456.26,422.94,455.97,421.41,455.12,421.15L455.12,421.15z"/>
	<path class="st0" d="M456.39,413.71c2.11,0.59,3.82,1.19,5.6,0c1.78-1.19,5.47-4.75,5.74-6.66c0.26-1.91-3.03-5.54-3.16-6
		c-0.13-0.46-0.73-1.85,0.59-3.3c1.32-1.45,0.99-2.24,2.11-2.24c1.12,0,2.97,0.2,3.49-1.38c0.53-1.58,0.86-3.1-1.58-3.36
		c-2.44-0.26-3.16-0.46-4.48-2.11c-1.32-1.65-2.04-2.51-3.23-1.91c-1.19,0.59-1.32,1.32-0.4,2.84c0.92,1.52,1.78,3.23,1.06,4.22
		c-0.73,0.99-1.12,2.57-2.44,2.51c-1.32-0.07-3.03-1.71-4.62-1.58c-1.58,0.13-4.75,1.38-4.62,4.55c0.13,3.16-0.46,6.59,0.07,8.31
		c0.53,1.71,0.59,3.23,1.85,4.15C453.62,412.66,456.39,413.71,456.39,413.71L456.39,413.71z M457.51,410.68c0,0,1.38,0.66,2.9-0.46
		c1.52-1.12,3.3-2.64,3.56-3.36c0.26-0.73-1.38-2.11-2.11-2.9c-0.73-0.79-2.77-2.64-4.35-2.64c-1.58,0-2.84,0.4-2.84,1.38
		c0,0.99,0.2,4.15,0.2,4.95c0,0.79,0.99,2.18,1.45,2.37C456.78,410.22,457.51,410.68,457.51,410.68L457.51,410.68z"/>
	<path class="st0" d="M436.73,417.48c0,0-1.14-4.89-2.04-6.69c-0.9-1.8-1.14-2.66-2.66-2.42c-1.52,0.24-3.18,1.99-3.18,1.99
		s-3.66,0.9-4.46,0.28c-0.81-0.62-1.42-1.38-1.23-2.04c0.19-0.66,0.28-2.09,0.05-3.09c-0.24-1-1.19-1.76-1.66-1.28
		c-0.47,0.47-2.09,2.61-3.28,3.32c-1.19,0.71-2.04,1.23-1.14,2.04c0.9,0.81,1.71,1.09,3.13,1.8c1.42,0.71,1.85,0.81,1.95,1.52
		c0.09,0.71,0.57,2.23-0.19,2.9c-0.76,0.66-2.33,2.04-2.04,3.99c0.28,1.95,0.24,5.55,2.71,5.79c2.47,0.24,4.04,0.33,5.84,0.19
		c1.8-0.14,2.85-0.66,4.32-1.99c1.47-1.33,3.04-3.7,3.56-4.6C436.92,418.28,436.73,417.48,436.73,417.48L436.73,417.48z
		 M433.03,421.65c0,0,0.33-2.61-0.09-3.7s-1.71-3.75-2.04-4.18c-0.33-0.43-1.19-1.19-2.14-0.33c-0.95,0.85-2.14,2.94-3.04,3.85
		c-0.9,0.9-1.8,1.8-0.81,2.61c1,0.81,2.23,1.33,3.37,1.66s1.99,0.28,2.9,0.38C432.08,422.03,433.03,421.65,433.03,421.65
		L433.03,421.65z"/>
	<path class="st0" d="M212.56,535.4l-3.72,0.12c0,0-8.16,6.15-9.04,7.66c-0.88,1.51-1.13,2.26-2.64,1.51
		c-1.51-0.75-1.26-1.38-2.76-0.5c-1.51,0.88-2.51,2.13-4.64,2.26c-2.13,0.13-3.01,0.5-3.01,0.5s-0.63,1.51-1.38,2.64
		c-0.75,1.13-2.64,0.88-3.26-0.25c-0.63-1.13-1-1.63-1-1.63s-5.15-0.38-8.03,0.13c-2.89,0.5-1.76,1.26-3.77,0.88
		c-2.01-0.38-2.39-1-3.26-2.13c-0.88-1.13-7.53-4.02-8.66-5.65s-8.66-12.05-9.04-14.94c-0.38-2.89-0.63-12.55,0.88-17.2
		c1.51-4.65,4.64-8.79,8.91-11.05c4.27-2.26,12.55-4.64,19.84-3.52c7.28,1.13,13.43,3.77,16.95,5.77c2.7,1.54,4.58,2.2,5.31,2.42
		c0.24,1.97,0.63,3.97,1.09,5.93c-1.49-0.93-4.89-2.9-10.29-5.33c-7.53-3.39-9.54-2.89-17.95-3.01c-8.41-0.13-11.68,1.76-16.07,5.4
		c-4.39,3.64-5.27,9.67-4.02,19.33c1.26,9.67,7.66,11.93,14.31,16.32c6.65,4.39,20.84,0.88,26.24-1.26
		c5.4-2.13,13.81-9.42,13.81-9.42l0.85-3.31C209.78,530.06,211.41,532.96,212.56,535.4L212.56,535.4z"/>
	<path class="st0" d="M195.03,518.19c2.01,0,3.64,1.15,3.64,2.57s-1.63,2.57-3.64,2.57s-3.64-1.15-3.64-2.57
		S193.02,518.19,195.03,518.19L195.03,518.19z"/>
	<path class="st0" d="M178.33,518.94c2.01,0,3.64,1.15,3.64,2.57c0,1.42-1.63,2.57-3.64,2.57c-2.01,0-3.64-1.15-3.64-2.57
		C174.69,520.1,176.32,518.94,178.33,518.94L178.33,518.94z"/>
	<path class="st0" d="M165.28,507.9c2.01,0,3.64,1.15,3.64,2.57c0,1.42-1.63,2.57-3.64,2.57c-2.01,0-3.64-1.15-3.64-2.57
		C161.63,509.05,163.27,507.9,165.28,507.9L165.28,507.9z"/>
	<path class="st0" d="M166.15,525.47c2.01,0,3.64,1.15,3.64,2.57s-1.63,2.57-3.64,2.57c-2.01,0-3.64-1.15-3.64-2.57
		S164.14,525.47,166.15,525.47L166.15,525.47z"/>
	<path class="st0" d="M181.6,531.62c2.01,0,3.64,1.15,3.64,2.57c0,1.42-1.63,2.57-3.64,2.57s-3.64-1.15-3.64-2.57
		C177.95,532.77,179.59,531.62,181.6,531.62L181.6,531.62z"/>
	<path class="st0" d="M150.61,505.46c-0.86-0.5-1.79-1.03-2.78-1.58c-5.4-3.02-9.5-9.94-12.74-14.04c-3.24-4.1-6.91-10.8-13.61-10.8
		c-6.7,0-14.04,0.65-14.04,0.65s0-10.58-1.73-17.5c-1.73-6.91-6.05-24.84-10.37-30.89c-4.32-6.05-11.45-16.63-16.42-17.06
		c-4.97-0.43-14.47-0.22-16.85,8.42c-2.38,8.64-3.24,21.82,1.73,29.16c4.97,7.34,11.23,16.63,16.42,20.52
		c5.18,3.89,9.29,11.23,9.29,11.23s-7.99,2.59-9.5,7.56s-3.24,17.28,0.43,22.25c3.67,4.97,9.72,14.04,20.52,16.85
		s22.68,2.81,27.86,1.08s7.13-4.54,11.45-4.75c3.11-0.16,6.23,0.25,8.37,0.49c-0.17-0.42-0.28-0.78-0.31-1.07
		c-0.08-0.59-0.15-1.48-0.2-2.54c-0.9,0.06-1.87,0.1-2.89,0.1c-4.75,0-10.15,1.94-23.54,3.67c-13.39,1.73-21.6-0.86-29.38-5.62
		c-7.78-4.75-8.86-9.29-9.29-19.87c-0.43-10.58,11.88-14.69,11.88-15.98c0-1.3-1.51-7.34-7.13-12.53
		c-5.62-5.18-13.61-14.9-19.01-23.33c-5.4-8.42-4.32-15.77-4.1-21.38c0.22-5.62,6.48-8.64,10.37-9.29c3.89-0.65,9.5,4.97,12.53,8.64
		c3.02,3.67,9.94,23.11,12.74,32.4c2.81,9.29,3.89,28.73,3.89,28.73s4.1-3.89,10.8-5.18c6.7-1.3,10.15,2.38,13.82,6.05
		c3.67,3.67,11.45,15.34,13.39,17.5c0.98,1.09,3.88,2.34,6.52,3.32c0.13-0.69,0.29-1.32,0.47-1.88
		C149.58,507.63,150.05,506.52,150.61,505.46L150.61,505.46z"/>
	<path class="st0" d="M136.29,508.79c1.65,1.15,2.33,3.03,1.51,4.19c-0.81,1.17-2.81,1.18-4.46,0.03c-1.65-1.15-2.33-3.03-1.51-4.19
		C132.64,507.65,134.64,507.64,136.29,508.79L136.29,508.79z"/>
	<path class="st0" d="M119.87,514.84c1.65,1.15,2.33,3.03,1.51,4.19c-0.81,1.17-2.81,1.18-4.46,0.03c-1.65-1.15-2.33-3.03-1.51-4.19
		C116.23,513.7,118.23,513.69,119.87,514.84L119.87,514.84z"/>
	<path class="st0" d="M106.91,511.38c1.65,1.15,2.33,3.03,1.51,4.19c-0.81,1.17-2.81,1.18-4.46,0.03c-1.65-1.15-2.33-3.03-1.51-4.19
		C103.27,510.24,105.26,510.23,106.91,511.38L106.91,511.38z"/>
	<path class="st0" d="M109.72,497.56c1.65,1.15,2.33,3.03,1.51,4.19c-0.81,1.17-2.81,1.18-4.46,0.03c-1.65-1.15-2.33-3.03-1.51-4.19
		C106.08,496.42,108.07,496.41,109.72,497.56L109.72,497.56z"/>
	<path class="st0" d="M120.52,489.13c1.65,1.15,2.33,3.03,1.51,4.19c-0.81,1.17-2.81,1.18-4.46,0.03c-1.65-1.15-2.33-3.03-1.51-4.19
		C116.88,488,118.87,487.98,120.52,489.13L120.52,489.13z"/>
	<path class="st0" d="M94.82,507.49c1.65,1.15,2.33,3.03,1.51,4.19c-0.81,1.17-2.81,1.18-4.46,0.03c-1.65-1.15-2.33-3.03-1.51-4.19
		C91.17,506.36,93.17,506.34,94.82,507.49L94.82,507.49z"/>
	<path class="st0" d="M89.27,460.8c1.15,0.8,1.63,2.12,1.06,2.93c-0.57,0.82-1.97,0.82-3.12,0.02c-1.15-0.8-1.63-2.12-1.06-2.94
		C86.72,460,88.12,459.99,89.27,460.8L89.27,460.8z"/>
	<path class="st0" d="M86.68,447.4c1.15,0.8,1.63,2.12,1.06,2.93c-0.57,0.82-1.97,0.82-3.12,0.02c-1.15-0.8-1.63-2.12-1.06-2.94
		C84.13,446.61,85.53,446.6,86.68,447.4L86.68,447.4z"/>
	<path class="st0" d="M76.74,449.78c1.15,0.8,1.63,2.12,1.06,2.93c-0.57,0.82-1.97,0.82-3.12,0.02c-1.15-0.8-1.63-2.12-1.06-2.94
		C74.19,448.98,75.59,448.98,76.74,449.78L76.74,449.78z"/>
	<path class="st0" d="M80.85,427.96c1.15,0.8,1.63,2.12,1.06,2.93c-0.57,0.82-1.97,0.82-3.12,0.02c-1.15-0.8-1.63-2.12-1.06-2.94
		C78.3,427.17,79.69,427.16,80.85,427.96L80.85,427.96z"/>
	<path class="st0" d="M73.29,432.72c1.15,0.8,1.63,2.12,1.06,2.93c-0.57,0.82-1.97,0.82-3.12,0.02c-1.15-0.8-1.63-2.12-1.06-2.94
		C70.74,431.92,72.13,431.91,73.29,432.72L73.29,432.72z"/>
	<path class="st0" d="M97.05,461.23c1.15,0.8,1.63,2.12,1.06,2.93c-0.57,0.82-1.97,0.82-3.12,0.02c-1.15-0.8-1.63-2.12-1.06-2.94
		C94.5,460.43,95.89,460.42,97.05,461.23L97.05,461.23z"/>
	<path class="st0" d="M74.2,540.33c0,0,0.79-2.95,0.37-3.96c-0.42-1-0.42-1-0.42-1s1.69-2.06,2.32-2.53
		c0.63-0.47,1.16-0.63,1.16-0.63s1.05,0.95,2.48,1.64c1.42,0.69,2.37,1.05,3.59-0.16c1.21-1.21,2.74-4.27,3.43-6.8
		c0.51-1.89,0.9-3.25,1.05-4.12c-3.4-3.28-5.87-6.86-7.74-9.38c-0.16-0.21-0.31-0.44-0.45-0.68c-0.9,0.59-2.4,1.61-3.42,2.53
		c-1.53,1.37-5.86,5.01-5.75,7.12c0.11,2.11,1.74,3.96,2.48,4.8c0.74,0.84,0.84,1.11,0.84,1.11l-2.48,3.38c0,0,0.05,0.26-0.84-0.32
		c-0.9-0.58-3.06,0-2.8,1.32c0.26,1.32,1.32,4.75,2.32,5.64C71.35,539.17,74.2,540.33,74.2,540.33L74.2,540.33z M83.75,526.93
		c0,0,0.53-3.9,0.42-5.22c-0.11-1.32,0.21-1.85-0.32-2.53c-0.53-0.69-2.58-1.69-3.59-1.58c-1,0.11-3.06,0.37-3.64,2.27
		c-0.58,1.9-1.27,2.64,0.21,3.75c1.48,1.11,2.22,1.74,3.64,2.58C81.9,527.04,83.75,526.93,83.75,526.93L83.75,526.93z"/>
	<path class="st0" d="M72.09,414.43c0.11-1,0.14-2.18,0.02-3.46c-0.38-4.1-0.26-7.31-0.7-7.69c-0.45-0.38-8.01-0.06-8.33-0.19
		c-0.32-0.13-1.09-2.05-0.83-3.08c0.26-1.03,1.03-1.79,1.47-2.5c0.45-0.7,0.19-1.92,0.19-1.92s-0.45-1.03-2.69-1.03
		c-2.24,0-4.04,2.18-5.06,3.91c-1.03,1.73-2.05,3.2-0.13,3.72c1.92,0.51,2.11-0.77,2.88,0.83c0.77,1.6,1.15,2.18,0.32,2.95
		c-0.83,0.77-4.36,3.52-4.1,6.34c0.26,2.82,2.37,5.45,3.97,6.92c1.25,1.15,1.99,2.3,3.21,2.69c0.64-1.86,1.63-3.3,2.84-4.4
		c-0.75-0.45-1.4-1.35-2.65-2.33c-1.54-1.22-1.67-2.11-1.22-3.33c0.45-1.22,3.65-3.4,4.55-3.52c0.9-0.13,1.28,0.13,2.05,1.03
		c0.7,0.81,0.82,4.21,0.59,6.08C69.64,414.96,70.87,414.63,72.09,414.43L72.09,414.43z"/>
	<path class="st0" d="M304.19,480.3c-2.96-2.01-11.05-7.57-13.61-9.76c-3.15-2.7-6-5.7-8.85-6.15c-2.85-0.45-3.75-1.35-8.55,2.55
		c-4.8,3.9-8.85,6.15-13.66,4.8c-4.8-1.35-21.91-5.1-29.26-15.16c-7.35-10.05-14.71-20.56-16.36-22.06c-1.65-1.5-6.3-2.55-9.9-2.7
		c-3.6-0.15-6.75,1.2-8.4,2.1c-1.65,0.9-1.05,1.5-4.5,0.9c-3.45-0.6-5.1-0.6-8.85,5.4c-3.75,6-5.1,8.25-5.1,8.25l2.4,4.5l1.5,2.55
		c0,0,1.65-4.8,3.45-9.3c1.8-4.5,4.65-6.6,4.65-6.6s6,1.05,7.5,0.15s2.4-1.95,2.4-1.95s11.11-1.8,12.01,0
		c0.9,1.8,9.3,13.21,12.91,17.41c3.6,4.2,16.51,14.26,22.96,17.71c6.45,3.45,15.31,4.65,21.46,2.25c6.15-2.4,6.9-4.5,10.35-4.35
		c3.45,0.15,2.1-1.65,5.4,1.05c3.3,2.7,10.2,8.85,14.11,10.95c2.65,1.43,4.4,2.02,5.25,2.26
		C303.68,483.62,303.9,482.01,304.19,480.3L304.19,480.3z"/>
	<path class="st0" d="M258.76,516.94c-2.05-4.15-7.65-15-12.57-19.48c-6.14-5.6-23.31-19.87-31.44-25.47
		c-8.13-5.6-19.15-16.8-20.41-17.34c-1.26-0.54-5.42,0.72-8.67,0c-3.25-0.72-3.43-0.72-3.43-0.72s-5.24-9.03-8.49-13.01
		c-3.25-3.97-2.89-6.5-6.5-9.58c-3.61-3.07-8.49-5.06-8.49-6.87c0-1.81-0.54-4.7-1.81-5.6c-1.26-0.9-4.7-3.79-7.77-1.26
		c-3.07,2.53-2.71,4.34-2.71,4.34s-1.45-1.45-2.71,2.35c-1.26,3.79-1.26,3.79-1.26,3.79l-1.45,0.9c0,0-5.78,2.71-9.03,6.87
		c-3.25,4.16-8.31,10.66-14.45,16.08c-4.97,4.38-9.93,7.94-11.94,9.9l0.09,0.35c0.5,1.99,0.85,4.28,1.1,6.54
		c2.13-2.24,6.06-6.23,8.94-8.48c4.16-3.25,17.16-17.89,23.49-22.94c6.32-5.06,7.59-7.05,7.95-9.03c0.36-1.99,1.63-3.97,3.07-5.06
		c1.45-1.08,1.45-2.35,1.45-2.35s3.43,0.54,4.34,3.61c0.9,3.07,2.35,5.42,2.35,5.42s5.42,2.17,7.59,5.24
		c2.17,3.07,12.1,18.97,13.73,21.32c1.63,2.35,8.13,1.63,10.66,2.35c2.53,0.72,8.13,4.16,13.55,9.58c2.9,2.9,8.76,7.52,14.69,12.18
		c5.03,1.16,9.63,3.92,10.24,8.18c1.27,1.06,2.44,2.05,3.43,2.95c7.23,6.5,13.37,11.2,15.72,15.9c1.72,3.44,2.86,5.63,3.77,7.47
		c1.32,1.21,2.64,2.54,3.91,3.98C256.5,518.32,257.55,517.53,258.76,516.94L258.76,516.94z"/>
	<path class="st0" d="M131.41,436.63c-1.46-2.16-3.71-5.7-4.05-7.52c-0.52-2.72-2.85-5.05-4.53-6.73c-1.68-1.68-3.63-5.05-3.63-5.05
		s-3.24,0.91-4.4,4.01c-1.17,3.11-0.65,4.66-1.29,4.92c-0.65,0.26-2.85,0.52-3.11-0.26c-0.26-0.78-0.91-2.85-0.91-2.85
		s-0.65-1.04-4.53,4.14c-2.66,3.55-5.01,8.24-6.24,10.86c0.57,1.48,1.13,3.07,1.67,4.71c0.35-0.6,0.69-1.31,0.94-2.1
		c0.78-2.46,5.7-10.62,7.12-10.75c1.42-0.13,1.04,0.52,2.59,0.91c1.55,0.39,5.57-2.07,6.09-4.4c0.52-2.33,0.78-3.63,0.78-3.63
		s0.91,0,1.68,1.55c0.78,1.55,2.85,1.68,2.98,3.63c0.13,1.94,0.39,3.76,1.81,6.09c1.42,2.33,3.88,5.05,4.53,5.31
		c0.06,0.02,0.13,0.03,0.22,0.03C129.95,438.48,130.72,437.51,131.41,436.63L131.41,436.63z"/>
	<path class="st0" d="M78.15,405.41c0,0,1.42-3.24,2.33-3.5c0.91-0.26,2.72,0.39,3.5-1.55c0.78-1.94-0.39-5.05,1.29-5.44
		c1.68-0.39,5.7-0.65,6.99-2.98c1.29-2.33,1.42-5.44,0.26-5.05c-1.17,0.39-2.33,1.94-4.01,3.37c-1.68,1.42-2.85,1.04-5.05,0.91
		c-2.2-0.13-4.14-1.55-5.44,1.94c-1.29,3.5-2.07,5.18-2.07,6.73C75.94,401.4,78.15,405.41,78.15,405.41L78.15,405.41z"/>
	<path class="st0" d="M119.24,417.4c0.23-1.83,0.3-5.02-1.21-8.37c-2.33-5.18-4.14-5.57-2.59-7.25c1.55-1.68,3.76-2.98,4.14-1.17
		c0.39,1.81,0.39,4.53,0.52,5.31c0.13,0.78,1.29,1.42,2.33,0.78c1.04-0.65,2.59-6.22,1.04-8.16c-1.55-1.94-1.55-3.11-5.83-2.59
		c-4.27,0.52-7.9,4.66-8.29,5.31c-0.39,0.65-4.4,1.29-6.35,1.81c-1.94,0.52-3.5,1.42-3.37-0.52c0.13-1.94,0-2.07,0.39-3.63
		c0.39-1.55,0.65-3.63-1.29-4.01c-1.94-0.39-4.14,1.17-5.18,2.59c-1.04,1.42-9.06,2.46-10.49,6.99c-1.37,4.37-2.39,8.75-1.99,10.44
		c2.41,1.3,5.11,4.18,7.68,7.38c0.13-0.02,0.27-0.05,0.4-0.09c4.27-1.17,8.16-3.37,11.91-3.88c3.76-0.52,7.64-3.76,7.64-0.78
		c0,2.2,0.28,4.26,0.43,5.5c0.27-0.06,0.35,0.07,0.35,0.07s0.65,2.07,0.91,2.85c0.14,0.42,0.86,0.54,1.58,0.51
		c0.25-1.93,0.68-5.75,0.49-7.64c-0.26-2.59-0.91-5.83-4.53-5.7c-3.63,0.13-8.68,1.42-11.53,2.98c-2.85,1.55-7.12,4.01-9.19,2.33
		c-2.07-1.68-4.4-5.7-2.33-8.42c2.07-2.72,1.55-3.24,4.14-4.14c2.59-0.91,2.98-1.29,4.27-2.33c1.29-1.04,2.2-1.29,0.26,2.33
		c-1.94,3.63-3.76,5.18-2.2,7.38c1.55,2.2,1.68,2.98,3.88-0.39s5.31-5.57,8.55-6.6c3.24-1.04,9.58-1.68,10.62,4.01
		c1.04,5.7,0.65,5.96,1.81,8.55c0.03,0.06,0.06,0.12,0.09,0.18c1.34-1.3,2.89-1.73,2.89-1.73L119.24,417.4L119.24,417.4z"/>
	<path class="st0" d="M289.97,481.85c1.09-0.46,3.17,2,4.65,5.49c1.48,3.49,1.8,6.7,0.71,7.16c-1.09,0.46-3.17-2-4.65-5.49
		C289.2,485.52,288.88,482.31,289.97,481.85L289.97,481.85z"/>
	<path class="st0" d="M285.51,491.7c1.09-0.46,3.17,2,4.65,5.49c1.48,3.49,1.8,6.7,0.71,7.16c-1.09,0.46-3.17-2-4.65-5.49
		C284.75,495.36,284.42,492.15,285.51,491.7L285.51,491.7z"/>
	<path class="st0" d="M279.21,496.45c0.65-0.27,1.89,1.19,2.77,3.27c0.88,2.08,1.07,4,0.43,4.27c-0.65,0.27-1.89-1.19-2.77-3.27
		C278.75,498.64,278.56,496.73,279.21,496.45L279.21,496.45z"/>
	<path class="st0" d="M278.65,476.77c0.65-0.27,1.89,1.19,2.77,3.27c0.88,2.08,1.07,4,0.43,4.27c-0.65,0.27-1.89-1.19-2.77-3.27
		C278.19,478.96,278,477.04,278.65,476.77L278.65,476.77z"/>
	<path class="st0" d="M272.25,479.38c0.81-0.35,2.38,1.5,3.49,4.12c1.11,2.62,1.35,5.03,0.53,5.37c-0.81,0.35-2.37-1.5-3.49-4.12
		C271.68,482.13,271.44,479.72,272.25,479.38L272.25,479.38z"/>
	<path class="st0" d="M263.15,481.79c0.81-0.35,2.38,1.5,3.49,4.12c1.11,2.62,1.35,5.03,0.53,5.37c-0.81,0.35-2.37-1.5-3.49-4.12
		C262.58,484.54,262.34,482.14,263.15,481.79L263.15,481.79z"/>
	<path class="st0" d="M254.55,483.1c1.02-0.43,2.97,1.88,4.36,5.16c1.39,3.28,1.69,6.29,0.67,6.72c-1.02,0.43-2.97-1.88-4.36-5.16
		C253.83,486.55,253.53,483.53,254.55,483.1L254.55,483.1z"/>
	<path class="st0" d="M247.51,489.69c0.73-0.31,2.12,1.34,3.11,3.68c0.99,2.34,1.2,4.49,0.48,4.79c-0.73,0.31-2.12-1.34-3.11-3.68
		C246.99,492.14,246.78,489.99,247.51,489.69L247.51,489.69z"/>
	<path class="st0" d="M227.08,473.72c0.73-0.31,2.12,1.34,3.11,3.68c0.99,2.34,1.2,4.49,0.48,4.79c-0.73,0.31-2.12-1.34-3.11-3.68
		C226.57,476.17,226.35,474.03,227.08,473.72L227.08,473.72z"/>
	<path class="st0" d="M233.77,472.05c0.73-0.31,2.12,1.34,3.11,3.68c0.99,2.34,1.2,4.49,0.48,4.79c-0.73,0.31-2.12-1.34-3.11-3.68
		C233.25,474.5,233.04,472.36,233.77,472.05L233.77,472.05z"/>
	<path class="st0" d="M241.38,470.56c0.73-0.31,2.12,1.34,3.11,3.68c0.99,2.34,1.2,4.49,0.48,4.79c-0.73,0.31-2.12-1.34-3.11-3.68
		C240.87,473.02,240.65,470.87,241.38,470.56L241.38,470.56z"/>
	<path class="st0" d="M215.57,452.92c0.73-0.31,2.12,1.34,3.11,3.68c0.99,2.34,1.2,4.49,0.48,4.79c-0.73,0.31-2.12-1.34-3.11-3.68
		C215.06,455.38,214.84,453.23,215.57,452.92L215.57,452.92z"/>
	<path class="st0" d="M208.77,452.66c0.77-0.16,1.81,1.73,2.31,4.22c0.5,2.49,0.28,4.64-0.49,4.79c-0.77,0.16-1.81-1.73-2.31-4.22
		C207.78,454.96,208,452.82,208.77,452.66L208.77,452.66z"/>
	<path class="st0" d="M199.39,448.82c1.05-0.21,2.47,2.37,3.15,5.76c0.68,3.4,0.38,6.33-0.67,6.54c-0.07,0.01-0.15,0.02-0.22,0
		c-0.44-0.4-0.87-0.79-1.28-1.17c-0.65-1.04-1.26-2.69-1.65-4.6C198.04,451.95,198.34,449.03,199.39,448.82L199.39,448.82z"/>
	<path class="st0" d="M191.22,447.7c1.05-0.21,2.47,2.37,3.15,5.76c0.09,0.45,0.16,0.9,0.22,1.33c-0.11-0.08-0.19-0.13-0.26-0.16
		c-0.64-0.28-2.04-0.08-3.69,0.08c-0.04-0.16-0.07-0.32-0.1-0.48C189.87,450.84,190.17,447.91,191.22,447.7L191.22,447.7z"/>
	<path class="st0" d="M155.72,468.3c1.23,0,2.23,2.87,2.23,6.41c0,3.54-1,6.41-2.23,6.41c-1.23,0-2.23-2.87-2.23-6.41
		C153.49,471.17,154.49,468.3,155.72,468.3L155.72,468.3z"/>
	<path class="st0" d="M157.02,448.43c1.23,0,2.23,2.87,2.23,6.41c0,3.54-1,6.41-2.23,6.41c-1.23,0-2.23-2.87-2.23-6.41
		C154.79,451.3,155.79,448.43,157.02,448.43L157.02,448.43z"/>
	<path class="st0" d="M160.55,487.42c1.23,0,2.23,2.87,2.23,6.41c0,0.7-0.04,1.38-0.11,2.01c-1.5,0.49-2.84,1.04-3.96,1.59
		c-0.24-1.03-0.39-2.26-0.39-3.6C158.32,490.29,159.32,487.42,160.55,487.42L160.55,487.42z"/>
	<path class="st0" d="M174.1,487.61c1.23,0,2.23,2.87,2.23,6.41v0c-1.47-0.13-2.97-0.12-4.46-0.02
		C171.88,490.47,172.88,487.61,174.1,487.61L174.1,487.61z"/>
	<path class="st0" d="M149.16,485.73c1.21,0.2,1.72,3.2,1.13,6.69c-0.59,3.49-2.05,6.15-3.26,5.95c-1.21-0.2-1.72-3.2-1.13-6.69
		C146.48,488.19,147.94,485.53,149.16,485.73L149.16,485.73z"/>
	<path class="st0" d="M137.65,482.39c1.21,0.2,1.72,3.2,1.13,6.69c-0.27,1.59-0.72,3-1.24,4.06c-0.87-1.2-1.69-2.33-2.45-3.3
		c-0.26-0.32-0.51-0.67-0.78-1.02c0.02-0.16,0.05-0.32,0.07-0.48C134.97,484.85,136.43,482.19,137.65,482.39L137.65,482.39z"/>
	<path class="st0" d="M128.36,476.82c1.14,0.19,1.66,2.86,1.22,6.09c-1.13-1.15-2.38-2.16-3.8-2.85
		C126.5,478,127.49,476.67,128.36,476.82L128.36,476.82z"/>
	<path class="st0" d="M118.72,470.94c1.14,0.46,0.98,3.5-0.35,6.77c-0.2,0.48-0.41,0.95-0.63,1.38c-1.57,0.05-3.09,0.11-4.46,0.19
		c0.17-0.99,0.49-2.1,0.96-3.25C115.57,472.76,117.58,470.48,118.72,470.94L118.72,470.94z"/>
	<path class="st0" d="M131.21,461.74c0.79,0.48,0.3,2.7-1.07,4.95c-1.38,2.26-3.13,3.7-3.91,3.22c-0.79-0.48-0.3-2.7,1.07-4.95
		C128.67,462.7,130.42,461.26,131.21,461.74L131.21,461.74z"/>
	<path class="st0" d="M123.97,455.8c0.79,0.48,0.3,2.7-1.07,4.95c-1.38,2.26-3.13,3.7-3.91,3.22c-0.79-0.48-0.3-2.7,1.07-4.95
		C121.43,456.76,123.18,455.32,123.97,455.8L123.97,455.8z"/>
	<path class="st0" d="M138.75,464.47c0.84,0.38,0.64,2.64-0.44,5.05c-1.08,2.41-2.64,4.06-3.48,3.69c-0.84-0.38-0.64-2.64,0.44-5.05
		C136.35,465.75,137.91,464.1,138.75,464.47L138.75,464.47z"/>
	<path class="st0" d="M147,467.99c0.87,0.29,0.91,2.56,0.09,5.07c-0.82,2.51-2.2,4.32-3.07,4.03c-0.87-0.29-0.91-2.56-0.09-5.07
		C144.75,469.51,146.12,467.7,147,467.99L147,467.99z"/>
	<path class="st0" d="M165.84,470.97c0.98,0,1.77,2.28,1.76,5.1c-0.01,2.81-0.8,5.09-1.78,5.09c-0.98,0-1.77-2.28-1.76-5.1
		C164.07,473.25,164.87,470.97,165.84,470.97L165.84,470.97z"/>
	<path class="st0" d="M174.52,469.06c1.12-0.25,2.59,2.15,3.3,5.36c0.71,3.2,0.38,6-0.74,6.25c-1.11,0.25-2.59-2.15-3.3-5.36
		C173.08,472.1,173.41,469.3,174.52,469.06L174.52,469.06z"/>
	<path class="st0" d="M183.14,469.02c1.06-0.43,2.92,1.67,4.17,4.71c1.25,3.03,1.4,5.85,0.35,6.28c-1.05,0.43-2.92-1.68-4.17-4.71
		C182.24,472.27,182.09,469.45,183.14,469.02L183.14,469.02z"/>
	<path class="st0" d="M193.29,467.14c1.12-0.63,3.5,1.47,5.32,4.69c1.82,3.22,2.38,6.34,1.26,6.97c-1.12,0.63-3.5-1.47-5.32-4.69
		C192.74,470.89,192.18,467.77,193.29,467.14L193.29,467.14z"/>
	<path class="st0" d="M194.59,483.29c1.12-0.63,3.5,1.47,5.32,4.69c0.68,1.2,1.18,2.38,1.49,3.43c-0.55,1.08-0.92,2.29-1.14,3.57
		c-1.24-0.4-2.99-2.22-4.4-4.72C194.04,487.05,193.47,483.92,194.59,483.29L194.59,483.29z"/>
	<path class="st0" d="M183.99,485.95c1.12-0.25,2.59,2.15,3.3,5.36c0.48,2.18,0.48,4.16,0.08,5.29c-0.93-0.33-1.9-0.64-2.91-0.94
		c-0.48-0.92-0.91-2.12-1.21-3.46C182.55,489,182.88,486.2,183.99,485.95L183.99,485.95z"/>
	<path class="st0" d="M171.92,450.12c1.12-0.25,2.59,2.15,3.3,5.36c0.71,3.2,0.38,6-0.74,6.25c-1.11,0.25-2.59-2.15-3.3-5.36
		C170.48,453.16,170.81,450.36,171.92,450.12L171.92,450.12z"/>
	<path class="st0" d="M165.01,450.36c1.14,0,2.05,2.65,2.04,5.91c-0.01,3.26-0.93,5.9-2.06,5.9c-1.13,0-2.05-2.65-2.04-5.91
		C162.95,453.01,163.88,450.36,165.01,450.36L165.01,450.36z"/>
	<path class="st0" d="M151.34,447.78c1.08,0.48,0.82,3.39-0.57,6.49c-1.39,3.1-3.39,5.22-4.47,4.74c-1.08-0.48-0.82-3.39,0.57-6.49
		C148.26,449.42,150.26,447.29,151.34,447.78L151.34,447.78z"/>
	<path class="st0" d="M143.09,446.33c0.79,0.48,0.3,2.7-1.07,4.95c-1.38,2.26-3.13,3.7-3.91,3.22c-0.79-0.48-0.3-2.7,1.07-4.95
		C140.55,447.29,142.31,445.85,143.09,446.33L143.09,446.33z"/>
	<path class="st0" d="M137.15,443.36c0.79,0.48,0.3,2.7-1.07,4.95c-1.38,2.26-3.13,3.7-3.91,3.22c-0.79-0.48-0.3-2.7,1.07-4.95
		C134.61,444.32,136.37,442.88,137.15,443.36L137.15,443.36z"/>
	<path class="st0" d="M113.31,434.88c0.98,0,1.78,2.29,1.78,5.11s-0.8,5.11-1.78,5.11c-0.98,0-1.78-2.29-1.78-5.11
		S112.33,434.88,113.31,434.88L113.31,434.88z"/>
	<path class="st0" d="M109.41,434.77c0.84,0.38,0.64,2.64-0.44,5.05c-1.08,2.41-2.64,4.06-3.48,3.69c-0.84-0.38-0.64-2.64,0.44-5.05
		C107.02,436.04,108.57,434.39,109.41,434.77L109.41,434.77z"/>
	<path class="st0" d="M119.38,433.41c1.12-0.25,2.59,2.15,3.3,5.36c0.71,3.2,0.38,6-0.74,6.25c-1.11,0.25-2.59-2.15-3.3-5.36
		C117.93,436.45,118.27,433.65,119.38,433.41L119.38,433.41z"/>
	<path class="st1" d="M62.99,119.21L37.58,78.55l5.38-3.36l25.41,40.67L62.99,119.21L62.99,119.21z M78.55,107.81L59.81,63.66
		l5.99-2.54l37.9,24.81L88.99,51.28l5.6-2.38l18.74,44.14l-5.99,2.54L69.43,70.74l14.72,34.69L78.55,107.81L78.55,107.81z
		 M142.03,64.77l-1.36-5.45l19.7-4.95l4.3,17.26c-2.42,3.17-5.09,5.76-8,7.78c-2.91,2.02-6.07,3.45-9.45,4.29
		c-4.57,1.14-8.97,1.2-13.19,0.17c-4.22-1.02-7.75-3.15-10.58-6.37c-2.83-3.23-4.82-7.13-5.96-11.7c-1.13-4.53-1.23-8.99-0.31-13.39
		c0.9-4.4,2.91-8,5.99-10.79c3.08-2.78,6.94-4.76,11.57-5.91c3.36-0.84,6.54-1.05,9.53-0.64c2.99,0.41,5.5,1.39,7.53,2.96
		c2.04,1.56,3.84,3.81,5.43,6.74l-5.18,2.91c-1.3-2.2-2.63-3.84-3.99-4.94c-1.38-1.1-3.13-1.81-5.26-2.14
		c-2.12-0.33-4.37-0.21-6.71,0.37c-2.82,0.7-5.15,1.74-6.98,3.11c-1.85,1.37-3.21,2.91-4.13,4.62c-0.91,1.71-1.5,3.48-1.79,5.34
		c-0.46,3.17-0.28,6.43,0.56,9.8c1.03,4.15,2.61,7.44,4.74,9.88c2.13,2.44,4.72,3.99,7.79,4.66c3.07,0.67,6.13,0.63,9.2-0.13
		c2.68-0.67,5.15-1.84,7.42-3.5c2.29-1.65,3.94-3.23,4.96-4.72l-2.16-8.67L142.03,64.77L142.03,64.77z M177.4,75.66l-5.84-47.6
		l34.41-4.22l0.69,5.62l-28.11,3.45l1.79,14.57l26.33-3.23l0.69,5.59l-26.33,3.23l1.99,16.2l29.22-3.59l0.69,5.62L177.4,75.66
		L177.4,75.66z M222.82,70.28V22.32h6.51l25.19,37.65V22.32h6.08v47.95h-6.51l-25.19-37.68v37.68H222.82L222.82,70.28z
		 M273.91,70.71l3.35-47.84l6.33,0.44l-3.35,47.84L273.91,70.71L273.91,70.71z M293.11,72.35l6.67-47.49l34.33,4.82l-0.79,5.61
		l-28.05-3.94l-2.04,14.54l26.27,3.69l-0.78,5.57l-26.27-3.69l-2.27,16.16l29.16,4.1l-0.79,5.61L293.11,72.35L293.11,72.35z
		 M338.54,79.68l12.41-46.32l20.53,5.5c4.13,1.11,7.16,2.37,9.08,3.77c1.92,1.41,3.25,3.33,3.98,5.78c0.72,2.46,0.73,4.96,0.05,7.5
		c-0.88,3.29-2.68,5.77-5.42,7.45c-2.73,1.68-6.4,2.24-11.01,1.66c1.42,1.21,2.44,2.31,3.08,3.3c1.35,2.12,2.49,4.63,3.44,7.52
		l4.68,14.77l-7.71-2.07l-3.54-11.28c-1.05-3.25-1.95-5.78-2.72-7.56c-0.76-1.79-1.52-3.1-2.28-3.93c-0.76-0.84-1.58-1.5-2.46-1.99
		c-0.66-0.33-1.78-0.71-3.36-1.13l-7.11-1.9l-5.51,20.57L338.54,79.68L338.54,79.68z M351.6,55.45l13.18,3.53
		c2.79,0.75,5.07,1.05,6.8,0.89c1.74-0.16,3.19-0.76,4.35-1.82c1.16-1.05,1.94-2.32,2.34-3.82c0.59-2.19,0.28-4.2-0.94-6.04
		c-1.21-1.84-3.53-3.21-6.97-4.13l-14.66-3.93L351.6,55.45L351.6,55.45z M387.23,95.29l17.19-44.77l5.92,2.27l-17.19,44.77
		L387.23,95.29L387.23,95.29z M400.83,99.7l39.93-32.32l5.92,3.42l-6.98,51.34l-6.27-3.62l2.42-15.38l-17.37-10.03l-11.82,9.95
		L400.83,99.7L400.83,99.7z M422.66,89.56l14.09,8.13l2.3-14c0.7-4.25,1.37-7.69,2.03-10.31c-2.07,2.36-4.34,4.57-6.83,6.64
		L422.66,89.56L422.66,89.56z"/>
	<path class="st0" d="M249.41,256.57c7.57,0,13.7,6.14,13.7,13.7c0,7.57-6.14,13.7-13.7,13.7s-13.7-6.14-13.7-13.7
		C235.71,262.71,241.84,256.57,249.41,256.57L249.41,256.57z M249.41,259.03c6.21,0,11.25,5.04,11.25,11.25
		c0,6.21-5.04,11.25-11.25,11.25c-6.21,0-11.25-5.04-11.25-11.25C238.16,264.06,243.2,259.03,249.41,259.03L249.41,259.03z"/>
	<path class="st0" d="M264.21,279.6c1.7-2.7,2.69-5.9,2.69-9.32c0-4.12-1.43-7.91-3.81-10.9l16.62-15.64
		c6.21,7.09,9.98,16.38,9.98,26.54c0,9.47-3.27,18.18-8.75,25.06L264.21,279.6L264.21,279.6z"/>
	<path class="st0" d="M234.95,260.44c-1.91,2.8-3.03,6.19-3.03,9.84c0,3.61,1.1,6.97,2.97,9.75l-16.7,15.71
		c-5.67-6.94-9.07-15.8-9.07-25.46c0-9.69,3.43-18.59,9.13-25.54L234.95,260.44L234.95,260.44z"/>
	<path class="st0" d="M309.32,336.05c-15.04,13.71-34.81,22.33-56.56,23.14v-20.35c16.15-0.78,30.83-7.14,42.17-17.19L309.32,336.05
		L309.32,336.05z"/>
	<path class="st0" d="M185.04,332.59l17.76-18.77c0,0,8.8,7.97,13.84,10.06c5.03,2.1,5.24,2.31,5.24,2.31l7.19-16.33
		c-12.52-6.45-21.59-18.67-23.69-33.15h-11.33v2.23h-7h-5.63v-2.23h-6.71v-2.5h-14.81C160.87,296.87,170.27,317.34,185.04,332.59
		L185.04,332.59z"/>
	<path class="st0" d="M252.44,335.15c1.57,0.02,5.28-0.12,10.34-1.49c6.8-1.85,10.1-4.37,10.1-4.37l-7.91-18.21
		c-3.94,1.56-8.14,2.59-12.53,2.99V335.15L252.44,335.15z"/>
	<polygon class="st0" points="199.35,240.48 199.35,199.41 224.43,199.41 224.43,206.36 206.74,206.36 206.74,216.08 222.02,216.08 
		222.02,223.03 206.74,223.03 206.74,240.48 199.35,240.48 	"/>
	<path class="st0" d="M252.76,181.23c46.49,1.72,83.89,39.06,85.7,85.53h-6.34v-1.01h-2.28v1.01h-3.1v-1.01h-2.28v1.01h-4.87v-1.01
		h-2.21v1.01h-3.04v-1.01h-2.21v1.01h-6.07v-1.01h-2.21v1.01h-10.14c-1.71-21.79-19.14-39.18-40.96-40.8V181.23L252.76,181.23z
		 M290,239.17v-39.76h8.29v39.76H290L290,239.17z"/>
	<path class="st2" d="M239.58,284.58c2.82,1.85,6.2,2.93,9.83,2.93c3.82,0,7.36-1.2,10.27-3.23l17.19,16.17
		c-7.3,6.5-16.92,10.45-27.46,10.45c-10.35,0-19.82-3.81-27.07-10.1L239.58,284.58L239.58,284.58z M240.37,285.62
		c2.6,1.71,5.71,2.7,9.05,2.7c3.52,0,6.78-1.1,9.45-2.97l15.82,14.88c-6.72,5.98-15.57,9.61-25.27,9.61
		c-9.53,0-18.24-3.51-24.91-9.3L240.37,285.62L240.37,285.62z"/>
	<path class="st2" d="M249.43,229.61c9.87,0,18.93,3.45,26.05,9.2L258,255.25c-2.55-1.38-5.47-2.17-8.57-2.17
		c-3.6,0-6.96,1.06-9.78,2.88l-17.31-16.29C229.6,233.4,239.07,229.61,249.43,229.61L249.43,229.61z M249.39,230.47
		c9.22,0,17.69,3.22,24.34,8.6l-16.33,15.37c-2.38-1.29-5.11-2.03-8.01-2.03c-3.37,0-6.51,0.99-9.14,2.69l-16.18-15.22
		C230.87,234.02,239.72,230.47,249.39,230.47L249.39,230.47z"/>
	<path class="st2" d="M247.22,360.45c-22.79-1.04-43.46-10.23-59.16-24.71l15.15-15.15c11.81,10.63,27.13,17.43,44.02,18.43V360.45
		L247.22,360.45z M245.21,359.09c-21.01-0.96-40.06-9.43-54.54-22.78l13.97-13.97c10.88,9.8,25.01,16.07,40.58,16.99V359.09
		L245.21,359.09z"/>
	<path class="st2" d="M245.65,335.15c-1.57,0.02-5.28-0.12-10.34-1.49c-6.8-1.85-10.1-4.37-10.1-4.37l7.91-18.21
		c3.94,1.56,8.14,2.59,12.53,2.99V335.15L245.65,335.15z M244.15,333.38c-1.34,0.02-4.5-0.1-8.82-1.27
		c-5.8-1.57-8.61-3.73-8.61-3.73l6.75-15.53c3.36,1.33,6.94,2.21,10.68,2.55V333.38L244.15,333.38z"/>
	<path class="st2" d="M245.3,226.02c-21.46,1.97-38.51,19.2-40.19,40.74h-4.42v-0.49h-6.64v-3.14h-7h-5.63v3.47h-5.05v0.17h-15.99
		c1.8-46.21,38.8-83.41,84.93-85.51V226.02L245.3,226.02z M243.4,225.93c-20.5,1.88-36.79,18.34-38.4,38.92l-10.96,0.03v-1.75h-7
		h-4.67h-0.96v1.56h-3.87v0.16h-15.28c1.72-44.15,37.06-79.68,81.14-81.69V225.93L243.4,225.93z"/>
	<path class="st2" d="M269.19,310.08l9.23,16.27c0,0,10.89-6.22,14-8.98c3.11-2.75,3.11-2.75,3.11-2.75s11.49,11.13,13.77,13.29
		c1.43,1.35,3.27,2.98,4.46,4.01c14.49-15.12,23.71-35.34,24.68-57.7h-6.33v1.18h-2.28v-0.2h-3.1v0.2h-2.28v-1.18h-4.87v1.18h-2.21
		v-0.2h-3.03v0.2h-2.21v-1.18h-6.07v1.18h-2.21v-1.18h-10.17C292.29,289.96,282.69,303.36,269.19,310.08L269.19,310.08z
		 M270.96,309.72l8.75,15.43c0,0,10.33-5.91,13.29-8.52c2.95-2.61,2.95-2.61,2.95-2.61s10.9,10.56,13.06,12.6
		c1.35,1.28,3.11,2.83,4.23,3.81c13.75-14.35,22.49-33.53,23.42-54.74h-6h-7.26h-4.62h-7.08h-5.76h-2.1h-9.65
		C292.88,290.64,283.77,303.34,270.96,309.72L270.96,309.72z"/>
	<path class="st0" d="M341.61,243.3c2.5,8.56,3.85,17.61,3.85,26.98c0,53.03-43.01,96.05-96.05,96.05
		c-53.04,0-96.05-43.01-96.05-96.05c0-9.94,1.51-19.52,4.31-28.53l0.83,1.67c-2.51,8.52-3.87,17.53-3.87,26.86
		c0,52.33,42.44,94.78,94.78,94.78c52.33,0,94.78-42.44,94.78-94.78c0-8.76-1.19-17.23-3.42-25.28L341.61,243.3L341.61,243.3z"/>
	<path class="st0" d="M232.89,176.94c-34.48,6.07-62.55,30.78-73.41,63.36l-0.79-1.6c11.31-32.49,39.58-57.04,74.2-63.04V176.94
		L232.89,176.94z"/>
	<path class="st0" d="M265.99,175.66c35.12,6.11,63.69,31.31,74.65,64.51l-0.8,1.63c-10.48-33.3-38.85-58.68-73.84-64.85V175.66
		L265.99,175.66z"/>
	<path class="st0" d="M248.38,367.58c-10.84-0.12-21.22-2.13-30.85-5.71l30.85,62.12V367.58L248.38,367.58z"/>
	<path class="st0" d="M251.95,424.6l31.56-63.55c-9.8,3.92-20.43,6.2-31.56,6.5V424.6L251.95,424.6z M253.64,419.41l27.4-55.18
		c-8.51,3.4-17.74,5.38-27.4,5.64V419.41L253.64,419.41z"/>
	<path class="st0" d="M176.36,266.59h5.05v8.88h-5.05V266.59L176.36,266.59z M177.49,267.73h3.92v7.38h-3.92V267.73L177.49,267.73z"
		/>
	<path class="st0" d="M181.41,263.13h5.63v15.81h-5.63V263.13L181.41,263.13z M182.73,264.19h4.31v13.65h-4.31V264.19L182.73,264.19
		z"/>
	<path class="st0" d="M187.04,263.13h7v3.14h-0.36v9.53h0.36v3.14h-7V263.13L187.04,263.13z M188.34,264.26h5.54v2.01h-0.19v9.53
		h0.19v2.12h-5.54V264.26L188.34,264.26z"/>
	<path class="st0" d="M193.68,266.27h7v9.53h-7V266.27L193.68,266.27z M194.84,267.66h4.28v7.38h-4.28V267.66L194.84,267.66z"/>
	<polygon class="st0" points="306.06,268.73 312.13,268.73 312.13,272.41 306.06,272.41 306.06,268.73 	"/>
	<polygon class="st0" points="303.85,265.75 306.06,265.75 306.06,275.4 303.85,275.4 303.85,265.75 	"/>
	<polygon class="st0" points="329.84,265.75 332.11,265.75 332.11,275.4 329.84,275.4 329.84,265.75 	"/>
	<polygon class="st0" points="324.46,265.75 326.74,265.75 326.74,275.4 324.46,275.4 324.46,265.75 	"/>
	<polygon class="st0" points="319.59,268.49 324.46,268.49 324.46,272.65 319.59,272.65 319.59,268.49 	"/>
	<polygon class="st0" points="317.38,265.75 319.59,265.75 319.59,275.4 317.38,275.4 317.38,265.75 	"/>
	<polygon class="st0" points="312.13,265.75 314.34,265.75 314.34,275.4 312.13,275.4 312.13,265.75 	"/>
	<polygon class="st0" points="332.11,268.96 337.49,268.96 337.49,272.18 332.11,272.18 332.11,268.96 	"/>
	<polygon class="st0" points="314.34,271.98 317.38,271.98 317.38,275.19 314.34,275.19 314.34,271.98 	"/>
	<polygon class="st0" points="326.74,271.98 329.84,271.98 329.84,275.19 326.74,275.19 326.74,271.98 	"/>
	<path class="st0" d="M342.65,247.15l38.77-79.11H250.04H118.65l37.95,77.44c0.34-1.27,0.69-2.52,1.08-3.77l-34.59-71.13h126.94
		h126.94l-35.36,72.72C341.98,244.58,342.33,245.86,342.65,247.15L342.65,247.15z"/>
	<path class="st0" d="M250.04,436.12l38.22-77.98c-1.03,0.46-2.07,0.9-3.12,1.32l-35.1,72.18l-34.81-71.58
		c-1.03-0.39-2.06-0.8-3.07-1.23L250.04,436.12L250.04,436.12z"/>
	<path class="st0" d="M232.83,175.66H128.04l30.65,63.03C170,206.23,198.24,181.69,232.83,175.66L232.83,175.66z"/>
	<path class="st0" d="M340.65,240.2l31.38-64.54H265.99C301.12,181.78,329.7,206.99,340.65,240.2L340.65,240.2z"/>
	<path class="st0" d="M232.83,175.66H128.04l30.65,63.03c1.06-3.04,2.27-6.01,3.61-8.9l0.01-0.02c3.6-7.72,8.19-14.87,13.61-21.31
		l0.01-0.01c1.01-1.2,2.05-2.37,3.11-3.52l0.04-0.05c1.05-1.13,2.13-2.24,3.24-3.32l0.08-0.08c1.09-1.06,2.2-2.09,3.34-3.1
		l0.15-0.14c1.14-1.01,2.31-1.99,3.5-2.95l0.09-0.07c0.4-0.32,0.8-0.64,1.21-0.95l0.02-0.01c0.82-0.63,1.65-1.25,2.48-1.86
		l0.04-0.03c0.41-0.3,0.82-0.59,1.23-0.88l0.15-0.1c1.24-0.86,2.49-1.69,3.77-2.49l0.23-0.15c1.25-0.78,2.51-1.53,3.8-2.25
		l0.33-0.19c1.26-0.7,2.55-1.38,3.84-2.03l0.37-0.18c1.29-0.64,2.6-1.24,3.92-1.82c0.14-0.06,0.27-0.12,0.41-0.18
		c0.43-0.18,0.85-0.37,1.28-0.54l0.22-0.09c0.84-0.35,1.69-0.68,2.54-1.01c0.12-0.05,0.25-0.09,0.37-0.14
		c0.44-0.16,0.87-0.32,1.31-0.48c0.12-0.04,0.24-0.09,0.37-0.13c0.82-0.29,1.65-0.57,2.49-0.84c0.12-0.04,0.25-0.08,0.37-0.12
		c0.43-0.14,0.86-0.27,1.29-0.4c0.18-0.05,0.35-0.1,0.53-0.16c0.8-0.24,1.61-0.47,2.42-0.68c0.13-0.04,0.27-0.07,0.4-0.11
		c0.42-0.11,0.85-0.22,1.28-0.33c0.2-0.05,0.39-0.1,0.59-0.14c1.37-0.33,2.74-0.63,4.13-0.9c0.21-0.04,0.42-0.08,0.63-0.12
		C231.96,175.82,232.39,175.74,232.83,175.66L232.83,175.66z"/>
	<path class="st0" d="M340.65,240.2l31.38-64.54H265.99C301.12,181.78,329.7,206.99,340.65,240.2L340.65,240.2z"/>
	<path class="st0" d="M246.61,8.87c99.74,0,187.51,28.78,238.3,72.33l-36.04,58.17c-45.91-35.57-118.68-58.56-200.59-58.56
		c-78.9,0-149.3,21.33-195.4,54.69L13.62,76.81C65.1,35.73,150.26,8.87,246.61,8.87L246.61,8.87z M246.77,11.89
		c98.02,0,183.9,27.69,231.49,69.15l-34.3,52.24c-43.39-34.1-114.83-56.36-195.61-56.36c-78.05,0-147.38,20.79-191.11,52.95
		L21.7,75.71C70.36,37.22,153.01,11.89,246.77,11.89L246.77,11.89z"/>
	<path class="st0" d="M323.49,151.05c0,0-1.28-2.79-1.97-5.45c-0.7-2.67-0.58-2.9-0.58-2.9s-2.2,1.39-2.2,2.55
		c0,1.16-0.81,4.18,0.81,5.22C321.17,151.51,323.49,151.05,323.49,151.05L323.49,151.05z"/>
</g>
</svg>
